<svg width="25" height="43" viewBox="0 0 25 43" fill="none" xmlns="http://www.w3.org/2000/svg">
<path d="M0 4L3.3 1L3.5 4H0Z" fill="#562C9B"/>
<path d="M23 0H5C3.89543 0 3 0.895431 3 2V43L14 31.5L25 43V2C25 0.895431 24.1046 0 23 0Z" fill="#8245E5"/>
<g clip-path="url(#clip0)">
<path d="M18.9739 15.8357C18.908 15.6333 18.7284 15.4899 18.5168 15.4707L15.6301 15.2087L14.4892 12.5377C14.405 12.3415 14.2133 12.2148 14 12.2148C13.7867 12.2148 13.595 12.3415 13.5113 12.5377L12.3704 15.2087L9.48326 15.4707C9.27162 15.4903 9.0924 15.6336 9.02618 15.8357C8.96033 16.0382 9.02114 16.2603 9.18121 16.4007L11.3633 18.3141L10.7199 21.1479C10.6729 21.3562 10.7537 21.5717 10.9266 21.6967C11.0195 21.7642 11.1287 21.7979 11.2383 21.7979C11.3324 21.7979 11.4267 21.7729 11.5108 21.7225L14 20.2342L16.4888 21.7225C16.6713 21.8316 16.9009 21.8216 17.0734 21.6967C17.2463 21.5717 17.3272 21.3562 17.2801 21.1479L16.6367 18.3141L18.8188 16.4007C18.9788 16.2603 19.0397 16.0387 18.9739 15.8357Z" fill="white"/>
</g>
<defs>
<clipPath id="clip0">
<rect width="10" height="10" fill="white" transform="translate(9 12)"/>
</clipPath>
</defs>
</svg>
