<svg width="16" height="16" viewBox="0 0 16 16" fill="none" xmlns="http://www.w3.org/2000/svg">
<path d="M9.46587 8.01242L15.696 1.78214C16.1014 1.37688 16.1014 0.721645 15.696 0.316392C15.2907 -0.0888623 14.6355 -0.0888623 14.2302 0.316392L7.99993 6.54667L1.76983 0.316392C1.36439 -0.0888623 0.709338 -0.0888623 0.304083 0.316392C-0.101361 0.721645 -0.101361 1.37688 0.304083 1.78214L6.53418 8.01242L0.304083 14.2427C-0.101361 14.648 -0.101361 15.3032 0.304083 15.7084C0.506046 15.9106 0.771597 16.0121 1.03696 16.0121C1.30232 16.0121 1.56768 15.9106 1.76983 15.7084L7.99993 9.47817L14.2302 15.7084C14.4324 15.9106 14.6977 16.0121 14.9631 16.0121C15.2285 16.0121 15.4938 15.9106 15.696 15.7084C16.1014 15.3032 16.1014 14.648 15.696 14.2427L9.46587 8.01242Z" fill="#878691"/>
</svg>
