<svg width="14" height="12" viewBox="0 0 14 12" fill="none" xmlns="http://www.w3.org/2000/svg">
<path d="M12.8829 1.76108L14 0.692413V0.458496H10.1302L7.37217 7.32316L4.23442 0.458496H0.17675V0.692413L1.48167 2.26333C1.60883 2.37941 1.67533 2.54916 1.65842 2.72008V8.8935C1.69867 9.11575 1.62633 9.34441 1.47 9.506L0 11.2875V11.5185H4.16792V11.2846L2.69792 9.506C2.53867 9.34383 2.46342 9.11925 2.4955 8.8935V3.55366L6.15417 11.5214H6.57942L9.72533 3.55366V9.90091C9.72533 10.0683 9.72533 10.1027 9.61567 10.2124L8.484 11.3073V11.5418H13.9743V11.3079L12.8835 10.2398C12.7878 10.1675 12.7382 10.0462 12.7587 9.92833V2.07258C12.7382 1.95416 12.7872 1.83283 12.8829 1.76108Z" fill="#F6F6F6"/>
</svg>
