<svg width="15" height="15" viewBox="0 0 15 15" fill="none" xmlns="http://www.w3.org/2000/svg">
<path d="M13.3281 5.8175C12.8544 5.8175 12.4375 6.01688 12.1306 6.3275C11.0025 5.535 9.48123 5.025 7.7956 4.97063L8.67123 0.966875L11.4594 1.60188C11.4594 2.29438 12.0156 2.86 12.6981 2.86C13.3937 2.86 13.9531 2.27938 13.9531 1.58625C13.9531 0.893125 13.3975 0.3125 12.6987 0.3125C12.2119 0.3125 11.7919 0.610625 11.5825 1.01813L8.5031 0.325625C8.3481 0.28375 8.19623 0.39625 8.15498 0.55375L7.19373 4.9675C5.52123 5.03813 4.01623 5.5475 2.88435 6.34063C2.57748 6.01688 2.14435 5.8175 1.6706 5.8175C-0.0868985 5.8175 -0.662524 8.21063 0.946851 9.02875C0.889976 9.28188 0.864351 9.55188 0.864351 9.82125C0.864351 12.5094 3.84873 14.6875 7.5131 14.6875C11.1931 14.6875 14.1775 12.5094 14.1775 9.82125C14.1775 9.55188 14.1494 9.26938 14.08 9.01563C15.6569 8.19438 15.0762 5.81875 13.3281 5.8175ZM3.5006 9.19875C3.5006 8.49313 4.05685 7.925 4.7556 7.925C5.4381 7.925 5.99498 8.48938 5.99498 9.19875C5.99498 9.89188 5.43873 10.4569 4.7556 10.4569C4.05998 10.46 3.5006 9.89188 3.5006 9.19875ZM10.275 12.1975C9.12435 13.365 5.87748 13.365 4.72623 12.1975C4.59935 12.085 4.59935 11.8863 4.72623 11.7581C4.83685 11.6456 5.0331 11.6456 5.14373 11.7581C6.02248 12.6725 8.93748 12.6881 9.85435 11.7581C9.96498 11.6456 10.1612 11.6456 10.2719 11.7581C10.4012 11.8869 10.4012 12.0856 10.275 12.1975ZM10.2494 10.4594C9.56685 10.4594 9.0106 9.895 9.0106 9.2025C9.0106 8.49688 9.56685 7.92875 10.2494 7.92875C10.945 7.92875 11.5044 8.49313 11.5044 9.2025C11.5012 9.89188 10.945 10.4594 10.2494 10.4594Z" fill="#F6F6F6"/>
</svg>
