<svg width="18" height="16" viewBox="0 0 18 16" fill="none" xmlns="http://www.w3.org/2000/svg">
<path d="M17.7221 0.788269C17.5022 0.519379 17.1729 0.371338 16.7947 0.371338C16.5891 0.371338 16.3713 0.414597 16.1475 0.500153L0.910795 6.31645C0.102201 6.62503 -0.00670087 7.0881 0.000302909 7.33667C0.00730668 7.58524 0.142301 8.04144 0.9671 8.30388C0.972044 8.30539 0.976987 8.3069 0.981931 8.30827L4.14242 9.21272L5.85162 14.1003C6.08467 14.7666 6.60776 15.1805 7.21695 15.1805C7.60106 15.1805 7.97885 15.0195 8.30954 14.7152L10.2644 12.9153L13.0999 15.1983C13.1001 15.1986 13.1005 15.1988 13.1008 15.199L13.1277 15.2207C13.1302 15.2227 13.1328 15.2247 13.1353 15.2266C13.4505 15.4711 13.7945 15.6002 14.1305 15.6003H14.1306C14.7872 15.6003 15.31 15.1143 15.4623 14.3623L17.9588 2.03508C18.0591 1.54028 17.975 1.09753 17.7221 0.788269ZM5.19972 9.04092L11.2973 5.92589L7.50053 9.96021C7.43832 10.0263 7.39424 10.1071 7.37254 10.1952L6.64044 13.1607L5.19972 9.04092ZM7.59501 13.9393C7.56975 13.9625 7.54434 13.9833 7.51893 14.0023L8.19816 11.2514L9.43371 12.2463L7.59501 13.9393ZM16.9252 1.82565L14.4286 14.153C14.4046 14.271 14.3278 14.5455 14.1305 14.5455C14.033 14.5455 13.9105 14.4923 13.7851 14.3958L10.5722 11.8088C10.5718 11.8084 10.5712 11.808 10.5707 11.8077L8.6589 10.2682L14.1495 4.43408C14.3252 4.24731 14.3412 3.96126 14.1872 3.75609C14.0331 3.55092 13.7539 3.48637 13.5256 3.6031L4.49508 8.21654L1.29161 7.3L16.5236 1.48549C16.6523 1.43633 16.7421 1.42603 16.7947 1.42603C16.827 1.42603 16.8844 1.42987 16.9057 1.4561C16.9337 1.4903 16.9694 1.60689 16.9252 1.82565Z" fill="white"/>
</svg>
