<svg width="18" height="16" viewBox="0 0 18 16" fill="none" xmlns="http://www.w3.org/2000/svg">
<path d="M18 2.41936C17.3306 2.71299 16.6174 2.90761 15.8737 3.00211C16.6388 2.54536 17.2226 1.82761 17.4971 0.962488C16.7839 1.38774 15.9964 1.68811 15.1571 1.85574C14.4799 1.13461 13.5146 0.687988 12.4616 0.687988C10.4186 0.687988 8.77387 2.34624 8.77387 4.37911C8.77387 4.67161 8.79862 4.95286 8.85938 5.22061C5.7915 5.07099 3.07687 3.60061 1.25325 1.36074C0.934875 1.91311 0.748125 2.54536 0.748125 3.22599C0.748125 4.50399 1.40625 5.63686 2.38725 6.29274C1.79437 6.28149 1.21275 6.10936 0.72 5.83824C0.72 5.84949 0.72 5.86411 0.72 5.87874C0.72 7.67199 1.99912 9.16149 3.6765 9.50461C3.37612 9.58674 3.04875 9.62611 2.709 9.62611C2.47275 9.62611 2.23425 9.61261 2.01038 9.56311C2.4885 11.0245 3.84525 12.0989 5.4585 12.1337C4.203 13.1159 2.60888 13.7076 0.883125 13.7076C0.5805 13.7076 0.29025 13.6941 0 13.657C1.63462 14.7111 3.57188 15.313 5.661 15.313C12.4515 15.313 16.164 9.68799 16.164 4.81224C16.164 4.64911 16.1584 4.49161 16.1505 4.33524C16.8829 3.81549 17.4982 3.16636 18 2.41936Z" fill="#F6F6F6"/>
</svg>
