<svg width="12" height="8" viewBox="0 0 12 8" fill="none" xmlns="http://www.w3.org/2000/svg">
<path d="M0.32959 3.99981C0.32959 4.23265 0.521461 4.42138 0.758185 4.42138H9.98314L7.2795 7.07824C7.19727 7.15912 7.15491 7.26697 7.15491 7.37481C7.15491 7.48265 7.19727 7.5905 7.2795 7.67138C7.44645 7.83559 7.71806 7.83559 7.88502 7.67138L11.3138 4.29638C11.4733 4.13951 11.4733 3.8601 11.3138 3.70079L7.88252 0.32824C7.71557 0.164024 7.44396 0.164024 7.27701 0.32824C7.11006 0.492456 7.11006 0.759613 7.27701 0.923828L9.97815 3.58069H0.755693C0.518969 3.57824 0.32959 3.76697 0.32959 3.99981Z" fill="white"/>
</svg>
