<svg width="28" height="28" viewBox="0 0 28 28" fill="none" xmlns="http://www.w3.org/2000/svg">
<circle cx="14" cy="14" r="14" fill="#090B2F"/>
<path fill-rule="evenodd" clip-rule="evenodd" d="M6.59979 10.9445C6.5989 10.9549 6.5992 10.9606 6.59919 10.9606L6.60167 10.9924V14.9571H4.90284V11.0508C4.88464 10.7147 4.96398 10.2484 5.27571 9.84104C5.63093 9.37688 6.20265 9.1001 6.94144 9.1001H8.59383L8.6322 9.10353C8.93929 9.13103 9.35005 9.25932 9.69911 9.56066C10.0777 9.88751 10.3391 10.3818 10.3391 11.0246V14.9571H8.64024V11.0246C8.64024 10.9328 8.62307 10.8852 8.61384 10.8652C8.60446 10.8448 8.59327 10.8311 8.57943 10.8192C8.56351 10.8055 8.5415 10.7921 8.51546 10.7818C8.50592 10.778 8.49771 10.7753 8.49133 10.7735H6.94144C6.78948 10.7735 6.71101 10.8003 6.67852 10.8151C6.64853 10.8287 6.63797 10.841 6.63227 10.8484C6.6238 10.8595 6.61353 10.8785 6.6063 10.9067C6.60282 10.9202 6.60075 10.9333 6.59979 10.9445Z" fill="white"/>
<path fill-rule="evenodd" clip-rule="evenodd" d="M12.7429 10.9737C12.6606 11.0653 12.6393 11.1759 12.6393 11.2106V14.9571H10.9658V11.2106C10.9658 10.8208 11.1035 10.2944 11.4981 9.85525C11.917 9.38912 12.5535 9.1001 13.3923 9.1001H15.1494V10.7735H13.3923C12.9593 10.7735 12.8009 10.9091 12.7429 10.9737Z" fill="white"/>
<path fill-rule="evenodd" clip-rule="evenodd" d="M14.3127 13.4928H12.0117V11.8193H14.3127V13.4928Z" fill="white"/>
<path d="M22.3998 9.1001H19.3408C20.23 9.24237 20.5146 10.345 20.5832 10.7735H22.3998V9.1001Z" fill="white"/>
<path fill-rule="evenodd" clip-rule="evenodd" d="M18.1895 10.916C18.258 11.0075 18.2875 11.139 18.2875 11.2106V13.2973H18.2877C18.3087 13.8787 18.5946 14.8118 19.4974 14.9571H19.9609H20.7977C20.2139 14.4248 20.0327 14.4541 19.9573 14.3783C19.9135 14.3343 19.9053 14.2547 19.8746 14.0086L19.9609 13.3328V12.5819V11.2106C19.9609 10.8576 19.8579 10.3522 19.529 9.91297C19.1696 9.43305 18.5885 9.1001 17.7994 9.1001H15.7773V10.7735H17.7994C17.95 10.7735 18.0358 10.803 18.0817 10.8257C18.1276 10.8485 18.1613 10.8783 18.1895 10.916Z" fill="white"/>
<path d="M19.8385 14.9568H21.2812C20.2904 14.8731 19.9808 13.9019 19.9601 13.2973H19.8385V14.9568Z" fill="white"/>
<rect x="4.90039" y="16.2122" width="17.5" height="3.76524" rx="1.88262" fill="#8245E5"/>
<path d="M9.98789 17.6781C10.1033 17.6781 10.2063 17.6861 10.2969 17.7023C10.3883 17.7176 10.4651 17.7418 10.5273 17.7748C10.5903 17.8078 10.6382 17.8496 10.6712 17.9002C10.7041 17.9507 10.7206 18.0108 10.7206 18.0805V18.5291C10.7206 18.5987 10.7041 18.6588 10.6712 18.7094C10.6382 18.76 10.5903 18.8018 10.5273 18.8347C10.4651 18.8677 10.3883 18.8923 10.2969 18.9084C10.2063 18.9238 10.1033 18.9315 9.98789 18.9315C9.92346 18.9315 9.85753 18.9293 9.7901 18.9249C9.72267 18.9198 9.65749 18.9135 9.59455 18.9062C9.53162 18.8981 9.47243 18.889 9.41699 18.8787C9.36155 18.8685 9.31435 18.8575 9.27539 18.8457V17.2581H9.56983V17.7572C9.63651 17.7338 9.70619 17.7147 9.77886 17.7001C9.85228 17.6854 9.92196 17.6781 9.98789 17.6781ZM9.90697 17.8826C9.86801 17.8826 9.83243 17.8851 9.80021 17.8903C9.76799 17.8954 9.73803 17.902 9.71031 17.9101C9.68333 17.9181 9.65824 17.9273 9.63501 17.9375C9.61178 17.9471 9.59006 17.9566 9.56983 17.9661V18.6588C9.59006 18.6654 9.61328 18.672 9.63951 18.6786C9.66573 18.6845 9.69345 18.69 9.72267 18.6951C9.75264 18.7002 9.78298 18.7043 9.8137 18.7072C9.84516 18.7101 9.87626 18.7116 9.90697 18.7116C9.95342 18.7116 9.99875 18.7112 10.043 18.7105C10.0872 18.709 10.1284 18.7057 10.1666 18.7006C10.2048 18.6955 10.2396 18.6878 10.2711 18.6775C10.3033 18.6673 10.3307 18.653 10.3531 18.6346C10.3764 18.6156 10.3943 18.5925 10.4071 18.5654C10.4198 18.5375 10.4262 18.5034 10.4262 18.4631V18.1399C10.4262 18.082 10.4123 18.0361 10.3846 18.0024C10.3569 17.968 10.3194 17.9419 10.2722 17.9244C10.225 17.9068 10.1699 17.8954 10.107 17.8903C10.0441 17.8851 9.9774 17.8826 9.90697 17.8826Z" fill="white"/>
<path d="M12.3187 18.4829C12.2999 18.4668 12.2767 18.451 12.249 18.4356C12.2213 18.4202 12.1872 18.4067 12.1467 18.3949C12.1063 18.3825 12.0579 18.3726 12.0018 18.3653C11.9463 18.3572 11.8811 18.3532 11.8062 18.3532C11.7395 18.3532 11.6762 18.3546 11.6163 18.3576C11.5571 18.3598 11.505 18.3671 11.4601 18.3795C11.4151 18.3913 11.3795 18.4103 11.3533 18.4367C11.3271 18.4631 11.314 18.4998 11.314 18.5467V18.6874C11.3799 18.6977 11.4526 18.7061 11.532 18.7127C11.6114 18.7193 11.6998 18.7226 11.7972 18.7226C11.8751 18.7226 11.9579 18.72 12.0456 18.7149C12.134 18.709 12.225 18.6977 12.3187 18.6808V18.4829ZM11.813 17.6781C11.8504 17.6781 11.8957 17.6799 11.9489 17.6836C12.0021 17.6872 12.0576 17.6938 12.1153 17.7034C12.173 17.7122 12.2299 17.7246 12.2861 17.7407C12.343 17.7561 12.394 17.7767 12.4389 17.8023C12.4846 17.8272 12.5213 17.8573 12.5491 17.8925C12.5768 17.9277 12.5906 17.9691 12.5906 18.0167V18.8677C12.5277 18.8802 12.4565 18.8908 12.3771 18.8996C12.3089 18.9077 12.2276 18.915 12.1332 18.9216C12.0388 18.9282 11.9336 18.9315 11.8175 18.9315C11.7021 18.9315 11.5792 18.9267 11.4488 18.9172C11.3192 18.9077 11.1836 18.8912 11.042 18.8677V18.4719C11.042 18.4294 11.0521 18.3924 11.0724 18.3609C11.0933 18.3286 11.1218 18.3011 11.1578 18.2784C11.1937 18.2557 11.2361 18.237 11.2848 18.2223C11.3335 18.2077 11.3859 18.1959 11.4421 18.1871C11.4983 18.1783 11.5567 18.1725 11.6174 18.1695C11.6781 18.1659 11.7388 18.164 11.7995 18.164C11.8916 18.164 11.9699 18.1699 12.0343 18.1816C12.0995 18.1926 12.1535 18.2047 12.1962 18.2179C12.2456 18.234 12.2865 18.252 12.3187 18.2718V18.0937C12.3187 18.0636 12.3112 18.038 12.2962 18.0167C12.2812 17.9947 12.261 17.9764 12.2355 17.9617C12.21 17.9463 12.1808 17.9343 12.1479 17.9255C12.1149 17.9159 12.0804 17.9086 12.0445 17.9035C12.0085 17.8983 11.9718 17.895 11.9343 17.8936C11.8976 17.8921 11.8632 17.8914 11.8309 17.8914C11.7972 17.8914 11.7613 17.8925 11.7231 17.8947C11.6848 17.8961 11.6466 17.8994 11.6084 17.9046C11.571 17.9097 11.5346 17.917 11.4994 17.9266C11.465 17.9353 11.4342 17.9474 11.4073 17.9628C11.3803 17.9782 11.3586 17.9969 11.3421 18.0189C11.3263 18.0402 11.3185 18.0658 11.3185 18.0959L11.0398 18.0255C11.0398 17.9764 11.0521 17.9339 11.0769 17.898C11.1016 17.8613 11.1342 17.8302 11.1746 17.8045C11.2158 17.7789 11.263 17.758 11.3162 17.7418C11.3694 17.725 11.4245 17.7122 11.4814 17.7034C11.5391 17.6938 11.5964 17.6872 11.6534 17.6836C11.7103 17.6799 11.7635 17.6781 11.813 17.6781Z" fill="white"/>
<path d="M13.656 17.6781C13.7452 17.6781 13.8321 17.6836 13.9167 17.6946C14.0014 17.7048 14.0774 17.7228 14.1449 17.7484C14.2123 17.7734 14.2677 17.8074 14.3112 17.8507C14.3546 17.8939 14.3805 17.9478 14.3887 18.0123L14.128 18.0827C14.128 18.0446 14.1145 18.013 14.0876 17.9881C14.0613 17.9625 14.0261 17.9427 13.9819 17.9288C13.9385 17.9141 13.8883 17.9038 13.8313 17.898C13.7744 17.8921 13.7159 17.8892 13.656 17.8892C13.5983 17.8892 13.541 17.8921 13.4841 17.898C13.4279 17.9031 13.3773 17.913 13.3324 17.9277C13.2881 17.9416 13.2522 17.961 13.2245 17.9859C13.1975 18.0108 13.184 18.0431 13.184 18.0827V18.2168H14.3887V18.5972C14.3887 18.6405 14.379 18.679 14.3595 18.7127C14.34 18.7457 14.3131 18.7746 14.2786 18.7996C14.2441 18.8237 14.2033 18.8446 14.1561 18.8622C14.1097 18.8791 14.0591 18.8926 14.0044 18.9029C13.9504 18.9132 13.8935 18.9205 13.8336 18.9249C13.7744 18.9293 13.7152 18.9315 13.656 18.9315C13.5654 18.9315 13.4777 18.9264 13.393 18.9161C13.3084 18.9051 13.2323 18.8872 13.1649 18.8622C13.0975 18.8366 13.042 18.8025 12.9986 18.76C12.9559 18.7167 12.9308 18.6625 12.9233 18.5972L13.184 18.5269C13.184 18.5672 13.1975 18.5998 13.2245 18.6247C13.2522 18.6497 13.2881 18.6691 13.3324 18.683C13.3773 18.6969 13.4279 18.7065 13.4841 18.7116C13.541 18.716 13.5983 18.7182 13.656 18.7182C13.7159 18.7182 13.7744 18.7156 13.8313 18.7105C13.8883 18.7046 13.9385 18.6947 13.9819 18.6808C14.0261 18.6662 14.0613 18.6467 14.0876 18.6225C14.1145 18.5976 14.128 18.5657 14.128 18.5269V18.3927H12.9233V18.0123C12.9233 17.9691 12.933 17.931 12.9525 17.898C12.972 17.8642 12.9986 17.8353 13.0323 17.8111C13.0668 17.7862 13.1072 17.7653 13.1537 17.7484C13.2001 17.7308 13.2503 17.7169 13.3043 17.7067C13.3589 17.6964 13.4159 17.6891 13.4751 17.6847C13.535 17.6803 13.5953 17.6781 13.656 17.6781Z" fill="white"/>
<path d="M15.4833 17.6781C15.5215 17.6781 15.5676 17.6799 15.6216 17.6836C15.6755 17.6872 15.7313 17.6938 15.789 17.7034C15.8474 17.7122 15.9051 17.725 15.9621 17.7418C16.019 17.758 16.07 17.7789 16.1149 17.8045C16.1606 17.8302 16.1973 17.8613 16.225 17.898C16.2535 17.9339 16.2677 17.9764 16.2677 18.0255V18.3971H14.9799V18.6786C15.0705 18.6911 15.1578 18.6999 15.2417 18.705C15.3256 18.7094 15.4062 18.7116 15.4833 18.7116C15.601 18.7116 15.7073 18.7072 15.8025 18.6984C15.8984 18.6896 15.9812 18.6797 16.0509 18.6687C16.131 18.6563 16.2033 18.642 16.2677 18.6258V18.8699C16.1254 18.8919 15.9879 18.9077 15.8553 18.9172C15.7234 18.9267 15.5995 18.9315 15.4833 18.9315C15.3665 18.9315 15.2604 18.9286 15.1653 18.9227C15.0701 18.9161 14.9885 18.9088 14.9203 18.9007C14.8409 18.8919 14.7693 18.8817 14.7056 18.8699V18.0255C14.7056 17.9764 14.718 17.9339 14.7427 17.898C14.7675 17.8613 14.8004 17.8302 14.8416 17.8045C14.8828 17.7789 14.93 17.758 14.9832 17.7418C15.0372 17.725 15.093 17.7122 15.1507 17.7034C15.2084 17.6938 15.2657 17.6872 15.3226 17.6836C15.3803 17.6799 15.4339 17.6781 15.4833 17.6781ZM14.9799 18.2212H15.989V18.0937C15.989 18.0636 15.9816 18.038 15.9666 18.0167C15.9516 17.9947 15.9314 17.9764 15.9059 17.9617C15.8812 17.9471 15.8519 17.9353 15.8182 17.9266C15.7853 17.917 15.7508 17.9101 15.7148 17.9057C15.6789 17.9005 15.6425 17.8972 15.6058 17.8958C15.5699 17.8943 15.5358 17.8936 15.5036 17.8936C15.4698 17.8936 15.4335 17.8943 15.3945 17.8958C15.3563 17.8972 15.3178 17.9005 15.2788 17.9057C15.2398 17.9108 15.2024 17.9181 15.1664 17.9277C15.1305 17.9364 15.0986 17.9485 15.0709 17.9639C15.0432 17.9786 15.0211 17.9969 15.0046 18.0189C14.9881 18.0402 14.9799 18.0658 14.9799 18.0959V18.2212Z" fill="white"/>
<path d="M17.3129 17.6781C17.3788 17.6781 17.4478 17.6854 17.5197 17.7001C17.5923 17.7147 17.6628 17.7338 17.731 17.7572V17.2581H18.0254V18.8457C17.9857 18.8575 17.9381 18.8685 17.8827 18.8787C17.828 18.889 17.7692 18.8981 17.7062 18.9062C17.6433 18.9135 17.5777 18.9198 17.5096 18.9249C17.4421 18.9293 17.3766 18.9315 17.3129 18.9315C17.1975 18.9315 17.0945 18.9238 17.0038 18.9084C16.9132 18.8923 16.8364 18.8677 16.7735 18.8347C16.7105 18.8018 16.6626 18.76 16.6296 18.7094C16.5967 18.6588 16.5802 18.5987 16.5802 18.5291V18.0805C16.5802 18.0108 16.5967 17.9507 16.6296 17.9002C16.6626 17.8496 16.7105 17.8078 16.7735 17.7748C16.8364 17.7418 16.9132 17.7176 17.0038 17.7023C17.0945 17.6861 17.1975 17.6781 17.3129 17.6781ZM17.3938 18.727C17.4238 18.727 17.4541 18.7255 17.4848 18.7226C17.5163 18.7197 17.5466 18.7156 17.5759 18.7105C17.6058 18.7054 17.6339 18.6995 17.6602 18.6929C17.6871 18.6863 17.7107 18.6793 17.731 18.672V17.9815C17.6793 17.9573 17.6261 17.9375 17.5714 17.9222C17.5174 17.906 17.4582 17.898 17.3938 17.898C17.3474 17.898 17.302 17.8991 17.2578 17.9013C17.2144 17.9027 17.1735 17.9068 17.1353 17.9134C17.0971 17.9192 17.0619 17.928 17.0297 17.9397C16.9975 17.9507 16.9698 17.9658 16.9465 17.9848C16.9241 18.0039 16.9064 18.0273 16.8937 18.0552C16.881 18.083 16.8746 18.1164 16.8746 18.1553V18.4785C16.8746 18.5379 16.8885 18.5844 16.9162 18.6181C16.9447 18.6511 16.9825 18.6757 17.0297 18.6918C17.0769 18.7079 17.132 18.7178 17.1949 18.7215C17.2578 18.7252 17.3241 18.727 17.3938 18.727Z" fill="white"/>
</svg>
