<svg width="23" height="23" viewBox="0 0 23 23" fill="none" xmlns="http://www.w3.org/2000/svg">
<g clip-path="url(#clip0)">
<path d="M10.9867 20.6357H2.7641C2.25978 20.6357 1.8505 20.2155 1.8505 19.6977V2.81398C1.8505 2.29621 2.25982 1.87602 2.7641 1.87602H10.9867C11.4919 1.87602 11.9003 1.45675 11.9003 0.938052C11.9003 0.419353 11.4919 0 10.9867 0H2.7641C1.25298 0 0.0232544 1.26256 0.0232544 2.81398V19.6977C0.0232544 21.2491 1.25298 22.5116 2.7641 22.5116H10.9867C11.4919 22.5116 11.9003 22.0924 11.9003 21.5737C11.9003 21.055 11.4919 20.6357 10.9867 20.6357Z" fill="white"/>
<path d="M21.751 10.588L16.1962 4.96007C15.8381 4.59613 15.2588 4.60085 14.9043 4.96947C14.5499 5.33809 14.5535 5.93183 14.9135 6.29577L18.8832 10.3178H8.24588C7.74065 10.3178 7.33228 10.7371 7.33228 11.2558C7.33228 11.7745 7.74065 12.1938 8.24588 12.1938H18.8832L14.9135 16.2159C14.5536 16.5798 14.5508 17.1735 14.9043 17.5422C15.0834 17.7279 15.3191 17.8217 15.5549 17.8217C15.7869 17.8217 16.019 17.7316 16.1962 17.5515L21.751 11.9236C21.9246 11.7473 22.0233 11.5071 22.0233 11.2558C22.0233 11.0045 21.9255 10.7653 21.751 10.588Z" fill="white"/>
</g>
<defs>
<clipPath id="clip0">
<rect width="22" height="22" fill="white" transform="translate(0.279053 0.255814)"/>
</clipPath>
</defs>
</svg>
