<svg width="22" height="22" viewBox="0 0 22 22" fill="none" xmlns="http://www.w3.org/2000/svg">
<path d="M21.4059 9.56894C21.4054 9.56844 21.4049 9.56793 21.4044 9.56743L12.4301 0.593506C12.0476 0.210815 11.539 0 10.998 0C10.4571 0 9.94849 0.210648 9.5658 0.593338L0.596245 9.56273C0.593223 9.56575 0.590202 9.56894 0.587181 9.57196C-0.198342 10.362 -0.196999 11.6439 0.591041 12.4319C0.951072 12.7921 1.42658 13.0007 1.93499 13.0226C1.95563 13.0246 1.97645 13.0256 1.99743 13.0256H2.35511V19.6298C2.35511 20.9367 3.41842 22 4.72561 22H8.23662C8.59246 22 8.88116 21.7115 8.88116 21.3555V16.1777C8.88116 15.5814 9.36623 15.0963 9.96259 15.0963H12.0335C12.6298 15.0963 13.1149 15.5814 13.1149 16.1777V21.3555C13.1149 21.7115 13.4034 22 13.7595 22H17.2705C18.5777 22 19.641 20.9367 19.641 19.6298V13.0256H19.9726C20.5134 13.0256 21.022 12.8149 21.4049 12.4322C22.1937 11.6429 22.1941 10.3588 21.4059 9.56894Z" fill="white"/>
</svg>
