<svg width="60" height="38" viewBox="0 0 60 38" fill="none" xmlns="http://www.w3.org/2000/svg">
<path fill-rule="evenodd" clip-rule="evenodd" d="M5.82651 6.52781C5.82345 6.56331 5.82449 6.583 5.82445 6.583L5.83297 6.69207V20.2854H0.00838826V6.89234C-0.0540094 5.74004 0.218032 4.14107 1.28682 2.74449C2.50472 1.15306 4.46489 0.204102 6.99788 0.204102H12.6632L12.7948 0.215883C13.8476 0.310167 15.256 0.750022 16.4528 1.78316C17.7509 2.90381 18.6469 4.59846 18.6469 6.80224V20.2854H12.8223V6.80224C12.8223 6.48756 12.7635 6.32443 12.7318 6.25573C12.6997 6.18584 12.6613 6.13912 12.6139 6.09816C12.5593 6.05103 12.4838 6.00523 12.3945 5.96982C12.3618 5.95685 12.3337 5.94781 12.3118 5.94162H6.99788C6.47687 5.94162 6.20784 6.03321 6.09645 6.08401C5.99363 6.13091 5.95742 6.17274 5.93788 6.19827C5.90882 6.23624 5.87362 6.30147 5.84884 6.39805C5.83689 6.44461 5.82981 6.48947 5.82651 6.52781Z" fill="white"/>
<path fill-rule="evenodd" clip-rule="evenodd" d="M26.8915 6.62707C26.6095 6.941 26.5363 7.32012 26.5363 7.43924V20.2844H20.7988V7.43924C20.7988 6.10258 21.2708 4.29802 22.6239 2.79221C24.06 1.19407 26.2423 0.203125 29.1182 0.203125H35.1426V5.94064H29.1182C27.6336 5.94064 27.0907 6.40548 26.8915 6.62707Z" fill="white"/>
<path fill-rule="evenodd" clip-rule="evenodd" d="M32.2738 15.2639H24.3848V9.52637H32.2738V15.2639Z" fill="white"/>
<path d="M59.9995 0.203125H49.5117C52.5605 0.69093 53.5361 4.47142 53.7713 5.94064H59.9995V0.203125Z" fill="white"/>
<path fill-rule="evenodd" clip-rule="evenodd" d="M45.5652 6.42917C45.8002 6.74294 45.9012 7.19379 45.9012 7.43924V14.5931H45.9018C45.974 16.587 46.9548 19.7875 50.0522 20.2844H51.6387H54.5075C52.5059 18.4591 51.8849 18.5598 51.6262 18.2999C51.4759 18.1488 51.448 17.876 51.3425 17.0324L51.6387 14.7153V12.1406V7.43924C51.6387 6.22891 51.2855 4.49608 50.1578 2.99012C48.9257 1.34469 46.933 0.203125 44.2278 0.203125H37.2949V5.94064H44.2278C44.7441 5.94064 45.0384 6.04149 45.1957 6.11954C45.3531 6.19759 45.4683 6.29978 45.5652 6.42917Z" fill="white"/>
<path d="M51.2194 20.2832H56.166C52.7688 19.9963 51.7072 16.6666 51.6364 14.5934H51.2194V20.2832Z" fill="white"/>
<rect y="24.5879" width="60" height="12.9094" rx="6.4547" fill="#6924D9"/>
<path d="M17.4428 29.6139C17.8384 29.6139 18.1916 29.6415 18.5024 29.6968C18.8158 29.7496 19.0791 29.8325 19.2923 29.9456C19.5081 30.0587 19.6725 30.2019 19.7855 30.3753C19.8985 30.5488 19.955 30.7548 19.955 30.9936V32.5316C19.955 32.7704 19.8985 32.9765 19.7855 33.1499C19.6725 33.3233 19.5081 33.4665 19.2923 33.5796C19.0791 33.6927 18.8158 33.7769 18.5024 33.8322C18.1916 33.885 17.8384 33.9113 17.4428 33.9113C17.2219 33.9113 16.9959 33.9038 16.7647 33.8887C16.5335 33.8711 16.31 33.8498 16.0943 33.8246C15.8785 33.797 15.6756 33.7656 15.4855 33.7304C15.2954 33.6952 15.1336 33.6575 15 33.6173V28.1738H16.0095V29.8853C16.2381 29.8049 16.477 29.7395 16.7262 29.6893C16.9779 29.639 17.2168 29.6139 17.4428 29.6139ZM17.1654 30.315C17.0319 30.315 16.9098 30.3238 16.7994 30.3414C16.6889 30.359 16.5862 30.3816 16.4911 30.4093C16.3987 30.4369 16.3126 30.4683 16.233 30.5035C16.1534 30.5362 16.0789 30.5689 16.0095 30.6015V32.9765C16.0789 32.9991 16.1585 33.0217 16.2484 33.0443C16.3383 33.0644 16.4333 33.0833 16.5335 33.1009C16.6363 33.1184 16.7403 33.1323 16.8456 33.1423C16.9535 33.1524 17.0601 33.1574 17.1654 33.1574C17.3247 33.1574 17.4801 33.1561 17.6316 33.1536C17.7832 33.1486 17.9245 33.1373 18.0555 33.1197C18.1865 33.1021 18.3059 33.0757 18.4138 33.0405C18.5243 33.0054 18.618 32.9563 18.6951 32.8935C18.7747 32.8282 18.8364 32.749 18.88 32.656C18.9237 32.5605 18.9455 32.4437 18.9455 32.3054V31.1971C18.9455 30.9986 18.898 30.8415 18.803 30.7259C18.7079 30.6078 18.5795 30.5186 18.4177 30.4583C18.2558 30.398 18.067 30.359 17.8513 30.3414C17.6355 30.3238 17.4069 30.315 17.1654 30.315Z" fill="white"/>
<path d="M25.4341 32.3733C25.3699 32.318 25.2903 32.264 25.1952 32.2112C25.1002 32.1584 24.9833 32.1119 24.8446 32.0717C24.7059 32.029 24.5402 31.9951 24.3475 31.9699C24.1575 31.9423 23.934 31.9285 23.6771 31.9285C23.4485 31.9285 23.2314 31.9335 23.0259 31.9435C22.823 31.9511 22.6445 31.9762 22.4904 32.0189C22.3362 32.0592 22.2142 32.1245 22.1243 32.215C22.0344 32.3054 21.9895 32.4311 21.9895 32.5919V33.0745C22.2155 33.1096 22.4647 33.1385 22.737 33.1612C23.0092 33.1838 23.3124 33.1951 23.6463 33.1951C23.9134 33.1951 24.1973 33.1863 24.4978 33.1687C24.8009 33.1486 25.113 33.1096 25.4341 33.0518V32.3733ZM23.7002 29.6139C23.8287 29.6139 23.9841 29.6201 24.1665 29.6327C24.3488 29.6453 24.5389 29.6679 24.7367 29.7006C24.9345 29.7307 25.1297 29.7734 25.3224 29.8287C25.5176 29.8815 25.6923 29.9519 25.8464 30.0398C26.0031 30.1253 26.129 30.2283 26.224 30.349C26.319 30.4696 26.3666 30.6116 26.3666 30.7749V33.6927C26.1508 33.7354 25.9068 33.7719 25.6345 33.802C25.4007 33.8297 25.122 33.8548 24.7984 33.8774C24.4747 33.9 24.1138 33.9113 23.7156 33.9113C23.3201 33.9113 22.8988 33.895 22.4518 33.8623C22.0074 33.8297 21.5425 33.7731 21.057 33.6927V32.3356C21.057 32.1898 21.0917 32.0629 21.1611 31.9549C21.233 31.8443 21.3306 31.75 21.4539 31.6721C21.5772 31.5942 21.7223 31.5301 21.8893 31.4799C22.0563 31.4296 22.2361 31.3894 22.4287 31.3592C22.6214 31.3291 22.8217 31.309 23.0298 31.2989C23.2379 31.2864 23.4459 31.2801 23.654 31.2801C23.9699 31.2801 24.2384 31.3002 24.4593 31.3404C24.6828 31.3781 24.8677 31.4196 25.0141 31.4648C25.1837 31.5201 25.3237 31.5817 25.4341 31.6495V31.0388C25.4341 30.9358 25.4084 30.8478 25.3571 30.7749C25.3057 30.6995 25.2363 30.6367 25.149 30.5864C25.0616 30.5337 24.9615 30.4922 24.8484 30.462C24.7354 30.4294 24.6173 30.4042 24.494 30.3867C24.3707 30.3691 24.2448 30.3578 24.1164 30.3527C23.9905 30.3477 23.8723 30.3452 23.7619 30.3452C23.6463 30.3452 23.523 30.349 23.392 30.3565C23.261 30.3615 23.13 30.3728 22.999 30.3904C22.8705 30.408 22.746 30.4331 22.6252 30.4658C22.5071 30.496 22.4017 30.5374 22.3093 30.5902C22.2168 30.643 22.1423 30.7071 22.0858 30.7825C22.0319 30.8554 22.0049 30.9433 22.0049 31.0464L21.0493 30.8051C21.0493 30.6367 21.0917 30.4909 21.1765 30.3678C21.2612 30.2421 21.373 30.1353 21.5117 30.0474C21.653 29.9594 21.8148 29.8878 21.9972 29.8325C22.1796 29.7747 22.3684 29.7307 22.5636 29.7006C22.7614 29.6679 22.9579 29.6453 23.1531 29.6327C23.3483 29.6201 23.5307 29.6139 23.7002 29.6139Z" fill="white"/>
<path d="M30.0193 29.6139C30.3249 29.6139 30.6229 29.6327 30.9132 29.6704C31.2034 29.7056 31.4642 29.7672 31.6954 29.8551C31.9265 29.9406 32.1166 30.0574 32.2656 30.2057C32.4146 30.354 32.5032 30.5387 32.5315 30.7599L31.6376 31.0011C31.6376 30.8704 31.5913 30.7624 31.4988 30.6769C31.4089 30.589 31.2882 30.5211 31.1367 30.4734C30.9877 30.4231 30.8156 30.3879 30.6203 30.3678C30.4251 30.3477 30.2248 30.3376 30.0193 30.3376C29.8215 30.3376 29.625 30.3477 29.4297 30.3678C29.2371 30.3854 29.0637 30.4193 28.9096 30.4696C28.758 30.5173 28.6347 30.5839 28.5397 30.6694C28.4472 30.7548 28.401 30.8654 28.401 31.0011V31.461H32.5315V32.7653C32.5315 32.9136 32.4981 33.0456 32.4313 33.1612C32.3645 33.2743 32.272 33.3735 32.1539 33.459C32.0357 33.5419 31.8957 33.6135 31.7339 33.6738C31.5746 33.7317 31.4012 33.7781 31.2137 33.8133C31.0288 33.8485 30.8335 33.8736 30.6281 33.8887C30.4251 33.9038 30.2222 33.9113 30.0193 33.9113C29.7085 33.9113 29.4079 33.8938 29.1176 33.8586C28.8274 33.8209 28.5667 33.7593 28.3355 33.6738C28.1043 33.5859 27.9142 33.469 27.7652 33.3233C27.6188 33.175 27.5328 32.989 27.5071 32.7653L28.401 32.5241C28.401 32.6623 28.4472 32.7741 28.5397 32.8596C28.6347 32.945 28.758 33.0116 28.9096 33.0594C29.0637 33.1071 29.2371 33.1398 29.4297 33.1574C29.625 33.1725 29.8215 33.18 30.0193 33.18C30.2248 33.18 30.4251 33.1712 30.6203 33.1536C30.8156 33.1335 30.9877 33.0996 31.1367 33.0518C31.2882 33.0016 31.4089 32.935 31.4988 32.8521C31.5913 32.7666 31.6376 32.6573 31.6376 32.5241V32.0642H27.5071V30.7599C27.5071 30.6116 27.5405 30.4809 27.6072 30.3678C27.674 30.2522 27.7652 30.1529 27.8808 30.07C27.999 29.9846 28.1377 29.9129 28.2969 29.8551C28.4562 29.7948 28.6283 29.7471 28.8133 29.7119C29.0008 29.6767 29.196 29.6516 29.3989 29.6365C29.6044 29.6214 29.8112 29.6139 30.0193 29.6139Z" fill="white"/>
<path d="M36.2844 29.6139C36.4154 29.6139 36.5733 29.6201 36.7583 29.6327C36.9432 29.6453 37.1346 29.6679 37.3324 29.7006C37.5328 29.7307 37.7305 29.7747 37.9258 29.8325C38.121 29.8878 38.2957 29.9594 38.4498 30.0474C38.6065 30.1353 38.7323 30.2421 38.8274 30.3678C38.925 30.4909 38.9738 30.6367 38.9738 30.8051V32.0793H34.5582V33.0443C34.869 33.087 35.1683 33.1172 35.4559 33.1348C35.7436 33.1499 36.0198 33.1574 36.2844 33.1574C36.6876 33.1574 37.0524 33.1423 37.3786 33.1122C37.7074 33.082 37.9913 33.0481 38.2302 33.0104C38.505 32.9677 38.7529 32.9186 38.9738 32.8634V33.7002C38.4857 33.7756 38.0144 33.8297 37.5597 33.8623C37.1076 33.895 36.6825 33.9113 36.2844 33.9113C35.8836 33.9113 35.5202 33.9013 35.1939 33.8812C34.8677 33.8586 34.5877 33.8334 34.354 33.8058C34.0817 33.7756 33.8364 33.7404 33.618 33.7002V30.8051C33.618 30.6367 33.6604 30.4909 33.7452 30.3678C33.83 30.2421 33.943 30.1353 34.0843 30.0474C34.2255 29.9594 34.3874 29.8878 34.5697 29.8325C34.7547 29.7747 34.9461 29.7307 35.1438 29.7006C35.3416 29.6679 35.5381 29.6453 35.7334 29.6327C35.9312 29.6201 36.1148 29.6139 36.2844 29.6139ZM34.5582 31.4761H38.0182V31.0388C38.0182 30.9358 37.9926 30.8478 37.9412 30.7749C37.8898 30.6995 37.8204 30.6367 37.7331 30.5864C37.6483 30.5362 37.5482 30.496 37.4326 30.4658C37.3195 30.4331 37.2014 30.4093 37.0781 30.3942C36.9548 30.3766 36.8302 30.3653 36.7043 30.3603C36.581 30.3552 36.4642 30.3527 36.3537 30.3527C36.2381 30.3527 36.1135 30.3552 35.98 30.3603C35.849 30.3653 35.7167 30.3766 35.5831 30.3942C35.4495 30.4118 35.3211 30.4369 35.1978 30.4696C35.0745 30.4997 34.9653 30.5412 34.8703 30.594C34.7752 30.6443 34.6995 30.7071 34.643 30.7825C34.5864 30.8554 34.5582 30.9433 34.5582 31.0464V31.4761Z" fill="white"/>
<path d="M42.5572 29.6139C42.7832 29.6139 43.0195 29.639 43.2661 29.6893C43.5153 29.7395 43.7567 29.8049 43.9905 29.8853V28.1738H45V33.6173C44.8639 33.6575 44.7007 33.6952 44.5107 33.7304C44.3231 33.7656 44.1215 33.797 43.9057 33.8246C43.69 33.8498 43.4652 33.8711 43.2314 33.8887C43.0003 33.9038 42.7755 33.9113 42.5572 33.9113C42.1616 33.9113 41.8084 33.885 41.4976 33.8322C41.1867 33.7769 40.9235 33.6927 40.7077 33.5796C40.4919 33.4665 40.3275 33.3233 40.2145 33.1499C40.1015 32.9765 40.045 32.7704 40.045 32.5316V30.9936C40.045 30.7548 40.1015 30.5488 40.2145 30.3753C40.3275 30.2019 40.4919 30.0587 40.7077 29.9456C40.9235 29.8325 41.1867 29.7496 41.4976 29.6968C41.8084 29.6415 42.1616 29.6139 42.5572 29.6139ZM42.8346 33.2102C42.9373 33.2102 43.0414 33.2051 43.1467 33.1951C43.2546 33.185 43.3586 33.1712 43.4588 33.1536C43.5615 33.136 43.6578 33.1159 43.7478 33.0933C43.8402 33.0707 43.9211 33.0468 43.9905 33.0217V30.6543C43.8133 30.5714 43.6309 30.5035 43.4434 30.4507C43.2584 30.3954 43.0555 30.3678 42.8346 30.3678C42.6753 30.3678 42.5199 30.3716 42.3684 30.3791C42.2194 30.3841 42.0794 30.398 41.9484 30.4206C41.8174 30.4407 41.6966 30.4708 41.5862 30.5111C41.4757 30.5488 41.3807 30.6003 41.3011 30.6656C41.224 30.731 41.1636 30.8114 41.12 30.9069C41.0763 31.0024 41.0545 31.1167 41.0545 31.2499V32.3582C41.0545 32.5618 41.102 32.7214 41.197 32.837C41.2946 32.9501 41.4244 33.0343 41.5862 33.0895C41.748 33.1448 41.9368 33.1788 42.1526 33.1913C42.3684 33.2039 42.5957 33.2102 42.8346 33.2102Z" fill="white"/>
</svg>
