<svg width="22" height="22" viewBox="0 0 22 22" fill="none" xmlns="http://www.w3.org/2000/svg">
<g clip-path="url(#clip0)">
<path d="M19.5971 15.5036C18.2111 14.3321 17.4163 12.6198 17.4163 10.8057V8.25C17.4163 5.02425 15.0202 2.354 11.9163 1.90667V0.916667C11.9163 0.40975 11.5057 0 10.9997 0C10.4937 0 10.083 0.40975 10.083 0.916667V1.90667C6.97826 2.354 4.58301 5.02425 4.58301 8.25V10.8057C4.58301 12.6198 3.78826 14.3321 2.39401 15.5109C2.03742 15.8162 1.83301 16.2598 1.83301 16.7292C1.83301 17.6138 2.55259 18.3333 3.43717 18.3333H18.5622C19.4468 18.3333 20.1663 17.6138 20.1663 16.7292C20.1663 16.2598 19.9619 15.8162 19.5971 15.5036Z" fill="white"/>
<path d="M10.9997 22C12.6598 22 14.0485 20.8166 14.3675 19.25H7.63184C7.95084 20.8166 9.33959 22 10.9997 22Z" fill="white"/>
</g>
<defs>
<clipPath id="clip0">
<rect width="22" height="22" fill="white"/>
</clipPath>
</defs>
</svg>
