<svg width="22" height="22" viewBox="0 0 22 22" fill="none" xmlns="http://www.w3.org/2000/svg">
<path d="M21.3406 13.4108L19.3184 11.8296C19.3441 11.5858 19.3661 11.3007 19.3661 10.9991C19.3661 10.6975 19.345 10.4124 19.3184 10.1686L21.3424 8.58645C21.7183 8.28944 21.8209 7.76235 21.5817 7.32329L19.4788 3.685C19.2542 3.27435 18.762 3.0635 18.2624 3.24775L15.8763 4.20565C15.4189 3.87565 14.9395 3.597 14.4436 3.37425L14.0806 0.843348C14.021 0.363 13.603 0 13.1089 0H8.89227C8.39817 0 7.98111 0.363 7.92242 0.836L7.55852 3.3761C7.07817 3.59245 6.60611 3.86745 6.12852 4.2075L3.73602 3.24685C3.28772 3.0736 2.75147 3.2679 2.52872 3.67675L0.423168 7.3196C0.174766 7.73945 0.277418 8.28485 0.661516 8.5892L2.68367 10.1704C2.65157 10.4793 2.63602 10.7479 2.63602 11C2.63602 11.2521 2.65161 11.5207 2.68367 11.8305L0.659668 13.4127C0.283821 13.7106 0.182071 14.2377 0.421321 14.6758L2.52417 18.3141C2.74877 18.7238 3.23642 18.9365 3.74057 18.7513L6.12667 17.7934C6.58317 18.1225 7.06257 18.4012 7.55852 18.6248L7.92152 21.1548C7.98107 21.637 8.39817 22 8.89317 22H13.1098C13.6039 22 14.0219 21.637 14.0806 21.164L14.4445 18.6248C14.9248 18.4076 15.396 18.1335 15.8745 17.7925L18.267 18.7532C18.3825 18.7981 18.5026 18.821 18.6263 18.821C18.982 18.821 19.3092 18.6267 19.4742 18.3242L21.5862 14.6667C21.8209 14.2377 21.7182 13.7106 21.3406 13.4108ZM11.0006 14.6667C8.97842 14.6667 7.33392 13.0222 7.33392 11C7.33392 8.97785 8.97842 7.33335 11.0006 7.33335C13.0227 7.33335 14.6672 8.97785 14.6672 11C14.6672 13.0222 13.0227 14.6667 11.0006 14.6667Z" fill="white"/>
</svg>
