<?xml version="1.0" standalone="no"?>
<!DOCTYPE svg PUBLIC "-//W3C//DTD SVG 20010904//EN"
 "http://www.w3.org/TR/2001/REC-SVG-20010904/DTD/svg10.dtd">
<svg version="1.0" xmlns="http://www.w3.org/2000/svg"
 width="700.000000pt" height="700.000000pt" viewBox="0 0 700.000000 700.000000"
 preserveAspectRatio="xMidYMid meet">
<metadata>
Created by potrace 1.14, written by Peter Selinger 2001-2017
</metadata>
<g transform="translate(0.000000,700.000000) scale(0.100000,-0.100000)"
fill="#000000" stroke="none">
<path d="M683 5679 c-193 -24 -390 -120 -493 -242 -14 -16 -35 -41 -48 -56
-33 -38 -98 -176 -119 -251 -17 -60 -18 -126 -18 -925 l0 -860 335 0 335 0 5
818 c5 778 6 819 23 832 29 21 91 24 427 24 291 -1 318 -2 340 -19 l25 -19 0
-818 1 -818 329 -1 c182 0 335 1 340 3 7 2 10 279 9 846 -1 743 -3 850 -17
909 -72 297 -292 510 -589 571 -73 16 -769 20 -885 6z"/>
<path d="M3277 5684 c-1 -1 -27 -5 -57 -9 -138 -16 -319 -83 -427 -156 -190
-130 -328 -351 -359 -574 -7 -49 -13 -1555 -6 -1585 3 -13 45 -15 325 -14 177
1 327 2 332 3 7 1 10 97 10 279 -1 152 1 283 3 290 3 9 79 12 332 12 253 0
329 3 332 13 3 6 4 156 4 332 l-1 320 -335 5 -335 5 0 129 c0 109 3 134 20
167 25 47 55 71 120 95 45 16 90 18 445 21 217 1 401 2 408 2 9 1 12 75 12
335 l0 334 -410 -1 c-226 0 -412 -2 -413 -3z"/>
<path d="M4350 5354 c0 -311 1 -334 18 -334 9 -1 208 -2 442 -3 489 -2 480 -1
521 -85 22 -47 23 -52 24 -512 1 -256 5 -485 9 -510 44 -281 193 -481 410
-553 36 -11 716 -18 716 -7 0 4 -17 11 -37 15 -185 34 -343 220 -405 473 -20
82 -21 117 -23 582 -1 272 -5 515 -9 540 -38 241 -165 452 -348 576 -90 62
-168 97 -279 125 -80 21 -109 22 -561 25 l-478 2 0 -334z"/>
<path d="M5856 5666 c147 -53 262 -181 343 -381 25 -62 71 -221 71 -246 0 -13
7 -19 23 -20 26 0 615 0 670 0 l37 1 0 334 0 333 -602 1 -603 0 61 -22z"/>
<path d="M737 2844 c-1 -1 -32 -4 -68 -8 -325 -30 -603 -291 -657 -616 -72
-431 228 -832 658 -877 91 -10 5588 -9 5678 1 117 12 247 66 355 148 127 95
231 250 273 408 31 115 22 346 -16 435 -5 11 -18 41 -29 67 -95 225 -328 398
-586 434 -39 5 -5601 13 -5608 8z"/>
</g>
</svg>
