<svg width="14" height="16" viewBox="0 0 14 16" fill="none" xmlns="http://www.w3.org/2000/svg">
<path d="M2.48926 5.18799C2.48926 2.70271 4.50398 0.687988 6.98926 0.687988C9.47454 0.687988 11.4893 2.70271 11.4893 5.18799V11.3245C11.4893 12.2156 10.7669 12.938 9.87582 12.938H4.1027C3.21162 12.938 2.48926 12.2156 2.48926 11.3245V5.18799Z" fill="white"/>
<path fill-rule="evenodd" clip-rule="evenodd" d="M10.817 11.3245V5.18799C10.817 3.07399 9.10326 1.36026 6.98926 1.36026C4.87526 1.36026 3.16153 3.07399 3.16153 5.18799V11.3245C3.16153 11.8443 3.58291 12.2657 4.1027 12.2657H9.87582C10.3956 12.2657 10.817 11.8443 10.817 11.3245ZM6.98926 0.687988C4.50398 0.687988 2.48926 2.70271 2.48926 5.18799V11.3245C2.48926 12.2156 3.21162 12.938 4.1027 12.938H9.87582C10.7669 12.938 11.4893 12.2156 11.4893 11.3245V5.18799C11.4893 2.70271 9.47454 0.687988 6.98926 0.687988Z" fill="#8245E5"/>
<path d="M3.86426 10.938C3.86426 10.1786 4.47987 9.56299 5.23926 9.56299C5.99865 9.56299 6.61426 10.1786 6.61426 10.938V14.6255C6.61426 15.3849 5.99865 16.0005 5.23926 16.0005C4.47987 16.0005 3.86426 15.3849 3.86426 14.6255V10.938Z" fill="white"/>
<path fill-rule="evenodd" clip-rule="evenodd" d="M5.94199 14.6255V10.938C5.94199 10.5499 5.62737 10.2353 5.23926 10.2353C4.85115 10.2353 4.53653 10.5499 4.53653 10.938V14.6255C4.53653 15.0136 4.85115 15.3282 5.23926 15.3282C5.62737 15.3282 5.94199 15.0136 5.94199 14.6255ZM5.23926 9.56299C4.47987 9.56299 3.86426 10.1786 3.86426 10.938V14.6255C3.86426 15.3849 4.47987 16.0005 5.23926 16.0005C5.99865 16.0005 6.61426 15.3849 6.61426 14.6255V10.938C6.61426 10.1786 5.99865 9.56299 5.23926 9.56299Z" fill="#8245E5"/>
<path d="M7.36426 10.938C7.36426 10.1786 7.97987 9.56299 8.73926 9.56299C9.49865 9.56299 10.1143 10.1786 10.1143 10.938V14.6255C10.1143 15.3849 9.49865 16.0005 8.73926 16.0005C7.97987 16.0005 7.36426 15.3849 7.36426 14.6255V10.938Z" fill="white"/>
<path fill-rule="evenodd" clip-rule="evenodd" d="M9.44199 14.6255V10.938C9.44199 10.5499 9.12737 10.2353 8.73926 10.2353C8.35115 10.2353 8.03653 10.5499 8.03653 10.938V14.6255C8.03653 15.0136 8.35115 15.3282 8.73926 15.3282C9.12737 15.3282 9.44199 15.0136 9.44199 14.6255ZM8.73926 9.56299C7.97987 9.56299 7.36426 10.1786 7.36426 10.938V14.6255C7.36426 15.3849 7.97987 16.0005 8.73926 16.0005C9.49865 16.0005 10.1143 15.3849 10.1143 14.6255V10.938C10.1143 10.1786 9.49865 9.56299 8.73926 9.56299Z" fill="#8245E5"/>
<path fill-rule="evenodd" clip-rule="evenodd" d="M12.942 10.0625V6.375C12.942 5.98689 12.6274 5.67227 12.2393 5.67227C11.8512 5.67227 11.5365 5.98689 11.5365 6.375V10.0625C11.5365 10.4506 11.8512 10.7652 12.2393 10.7652C12.6274 10.7652 12.942 10.4506 12.942 10.0625ZM12.2393 5C11.4799 5 10.8643 5.61561 10.8643 6.375V10.0625C10.8643 10.8219 11.4799 11.4375 12.2393 11.4375C12.9987 11.4375 13.6143 10.8219 13.6143 10.0625V6.375C13.6143 5.61561 12.9987 5 12.2393 5Z" fill="#8245E5"/>
<path d="M0.364258 6.375C0.364258 5.61561 0.979867 5 1.73926 5C2.49865 5 3.11426 5.61561 3.11426 6.375V10.0625C3.11426 10.8219 2.49865 11.4375 1.73926 11.4375C0.979867 11.4375 0.364258 10.8219 0.364258 10.0625V6.375Z" fill="white"/>
<path fill-rule="evenodd" clip-rule="evenodd" d="M2.44199 10.0625V6.375C2.44199 5.98689 2.12737 5.67227 1.73926 5.67227C1.35115 5.67227 1.03653 5.98689 1.03653 6.375V10.0625C1.03653 10.4506 1.35115 10.7652 1.73926 10.7652C2.12737 10.7652 2.44199 10.4506 2.44199 10.0625ZM1.73926 5C0.979867 5 0.364258 5.61561 0.364258 6.375V10.0625C0.364258 10.8219 0.979867 11.4375 1.73926 11.4375C2.49865 11.4375 3.11426 10.8219 3.11426 10.0625V6.375C3.11426 5.61561 2.49865 5 1.73926 5Z" fill="#8245E5"/>
<path d="M3.73926 7.625H10.1143V12.2981H3.86426L3.73926 7.625Z" fill="white"/>
<path d="M3.80176 0.345215L4.32292 0.000226464L5.32338 1.51159L4.80222 1.85658L3.80176 0.345215Z" fill="#8245E5"/>
<path d="M9.66797 0L10.1768 0.36294L9.12427 1.83852L8.61544 1.47559L9.66797 0Z" fill="#8245E5"/>
<path d="M3.11426 4.9375H10.8643V5.5625H3.11426V4.9375Z" fill="#8245E5"/>
<path d="M5.92676 3.56299C5.92676 3.80461 5.73088 4.00049 5.48926 4.00049C5.24763 4.00049 5.05176 3.80461 5.05176 3.56299C5.05176 3.32136 5.24763 3.12549 5.48926 3.12549C5.73088 3.12549 5.92676 3.32136 5.92676 3.56299Z" fill="#8245E5"/>
<path d="M8.86426 3.56299C8.86426 3.80461 8.66838 4.00049 8.42676 4.00049C8.18513 4.00049 7.98926 3.80461 7.98926 3.56299C7.98926 3.32136 8.18513 3.12549 8.42676 3.12549C8.66838 3.12549 8.86426 3.32136 8.86426 3.56299Z" fill="#8245E5"/>
</svg>
