<svg width="16" height="16" viewBox="0 0 16 16" fill="none" xmlns="http://www.w3.org/2000/svg">
<path d="M13.9625 5.97374L13.9624 5.97381L13.9522 5.98156L13.9521 5.98162L13.9503 5.98297C13.4564 6.35547 12.5207 7.06128 12.5207 8.45824C12.5207 9.28302 12.7849 9.8568 13.1145 10.2624C13.4429 10.6666 13.8345 10.9017 14.0847 11.0519L14.0852 11.0522C14.0852 11.0522 14.0852 11.0522 14.0852 11.0522C14.3105 11.1875 14.5095 11.3112 14.5095 11.5778L14.5095 11.5805C14.5096 11.6332 14.5097 11.7204 14.2186 12.3766L14.2186 12.3766C14.0645 12.7247 13.8128 13.2508 13.4894 13.7825C12.6067 15.2329 11.6789 15.95 10.7355 15.95C10.2051 15.95 9.85341 15.7985 9.50485 15.6437L9.48276 15.6338C9.14056 15.4817 8.79633 15.3287 8.29471 15.3287C8.14023 15.3287 7.97046 15.369 7.78951 15.4271C7.65992 15.4687 7.52176 15.5203 7.37737 15.5743C7.32029 15.5957 7.26224 15.6174 7.20335 15.639C6.78524 15.7923 6.31663 15.9431 5.80578 15.9431L5.79076 15.9431C5.79071 15.9431 5.79065 15.9431 5.7906 15.9431C5.09783 15.9391 4.47569 15.5157 3.95614 14.9557C3.43748 14.3967 3.02828 13.7093 2.7615 13.1944C1.98909 11.7038 1.49141 9.91749 1.49141 8.64597C1.49141 6.20033 2.59646 5.00599 3.51817 4.43308C4.04661 4.10487 4.57579 3.93866 4.9744 3.85455C5.17362 3.81252 5.33997 3.79105 5.45692 3.78009C5.51539 3.77462 5.56148 3.77177 5.59314 3.77029C5.60897 3.76955 5.62118 3.76916 5.62952 3.76895L5.63908 3.76875C5.64135 3.76872 5.64244 3.76871 5.64241 3.76871C6.15847 3.76871 6.71229 3.97197 7.21039 4.15546L7.21526 4.15726C7.3441 4.20473 7.47522 4.25303 7.59944 4.29465L7.74422 4.34315L7.65617 4.2184C7.6192 4.16603 7.59362 4.10527 7.58389 4.03883L7.58388 4.03877C7.45367 3.15643 7.78021 2.18036 8.48625 1.36241C9.18765 0.54994 10.1444 0.05 10.9789 0.05C11.2054 0.05 11.3907 0.230515 11.3971 0.456847C11.4302 1.6447 11.0014 2.75611 10.2241 3.50817L10.2241 3.50818C10.1465 3.58327 10.0659 3.65408 9.98274 3.72059L10.0238 3.80865C10.2495 3.76327 10.487 3.73466 10.7356 3.73435L10.7377 3.73436L10.7387 3.73435C11.1036 3.72753 12.9719 3.77586 14.0587 5.40758C14.1815 5.59205 14.1393 5.84039 13.9625 5.97374ZM10.0942 3.69351C10.1504 3.64573 10.2053 3.59593 10.2589 3.5441L10.0942 3.69351ZM10.5353 1.02618L10.5446 0.948979L10.4705 0.972536C10.0015 1.12164 9.50949 1.45804 9.11993 1.9093C8.69625 2.40007 8.44462 2.9532 8.39983 3.48052L8.39432 3.54538L8.4584 3.53398C8.88177 3.45866 9.29699 3.24048 9.64203 2.90658C10.1345 2.43039 10.4463 1.76369 10.5353 1.02618ZM5.7955 15.106H5.79553C6.23079 15.1083 6.65315 14.9508 7.06449 14.7973L7.06574 14.7968C7.48026 14.6421 7.88363 14.4916 8.29471 14.4916C8.91061 14.4916 9.3109 14.6441 9.66024 14.798C9.69813 14.8147 9.73553 14.8315 9.77265 14.8481C10.0773 14.9848 10.3628 15.1129 10.7355 15.1129C11.0468 15.1129 11.3785 14.9568 11.7135 14.6703C12.0491 14.3834 12.3927 13.9618 12.7287 13.4213C13.1284 12.7786 13.4173 12.1346 13.5687 11.7678L13.585 11.7284L13.5486 11.7061C12.9473 11.3376 11.6836 10.4601 11.6836 8.45824C11.6836 6.98601 12.4956 6.09596 13.0864 5.59835L13.1264 5.56467L13.091 5.52623C12.2329 4.59499 11.0142 4.56644 10.7557 4.57145H10.739C10.2046 4.57145 9.7118 4.74571 9.27417 4.91677C9.22429 4.93626 9.17521 4.95568 9.12689 4.97481C8.96204 5.04004 8.80605 5.10177 8.65754 5.15091C8.46564 5.21442 8.29092 5.25522 8.13228 5.25522C7.77318 5.25522 7.34366 5.09752 6.90295 4.93433L6.89048 4.92971C6.45965 4.77017 6.0184 4.60677 5.64535 4.60579L5.6439 4.60583C5.6051 4.60686 4.75942 4.63645 3.93196 5.1618L3.93195 5.16181C2.8649 5.83969 2.3285 7.01663 2.3285 8.64597C2.3285 9.79924 2.79115 11.4324 3.50486 12.8094C3.86814 13.5105 4.26697 14.0816 4.65994 14.4786C5.05117 14.8738 5.44411 15.104 5.7955 15.106Z" fill="#8245E5" stroke="white" stroke-width="0.1"/>
</svg>
