<svg width="20" height="20" viewBox="0 0 20 20" fill="none" xmlns="http://www.w3.org/2000/svg">
<path d="M16.3528 4.66276C14.9353 3.2453 13.1275 2.3603 11.1718 2.1071V1.17187C11.1718 0.525701 10.6461 0 9.99993 0C9.35376 0 8.82805 0.525701 8.82805 1.17187V2.10753C7.49259 2.28191 6.21471 2.75358 5.08034 3.49749C4.89995 3.61577 4.84959 3.85795 4.96791 4.03834C5.08619 4.21873 5.32834 4.26905 5.50877 4.15076C6.63349 3.41319 7.91294 2.96862 9.24669 2.84682C9.25294 2.8464 9.25919 2.84593 9.26536 2.84518C9.50864 2.82354 9.75368 2.81249 9.99993 2.81249C14.5231 2.81249 18.203 6.4924 18.203 11.0156C18.203 15.5388 14.5231 19.2187 9.99993 19.2187C5.47674 19.2187 1.79683 15.5388 1.79683 11.0156C1.79683 9.41266 2.25964 7.85958 3.13526 6.52415C3.25355 6.34373 3.20319 6.10158 3.0228 5.9833C2.84238 5.86506 2.60027 5.91537 2.48195 6.09576C1.52265 7.5588 1.01562 9.26004 1.01562 11.0156C1.01562 13.4154 1.95015 15.6715 3.64706 17.3685C5.34397 19.0654 7.60013 19.9999 9.99993 19.9999C12.3997 19.9999 14.6559 19.0654 16.3528 17.3685C18.0497 15.6716 18.9843 13.4154 18.9843 11.0156C18.9843 8.61579 18.0497 6.3597 16.3528 4.66276ZM9.60926 2.04007V1.17187C9.60926 0.956481 9.7845 0.781247 9.99989 0.781247C10.2153 0.781247 10.3905 0.956481 10.3905 1.17187V2.04015C10.2607 2.03464 10.1305 2.03132 9.99989 2.03132C9.86934 2.03132 9.73914 2.03448 9.60926 2.04007Z" fill="#8245E5"/>
<path d="M9.99997 18.4374C14.0924 18.4374 17.4218 15.108 17.4218 11.0156C17.4218 6.92315 14.0924 3.59375 9.99997 3.59375C5.90756 3.59375 2.57812 6.92319 2.57812 11.0156C2.57812 15.108 5.90756 18.4374 9.99997 18.4374ZM9.99997 4.37496C13.6616 4.37496 16.6406 7.35393 16.6406 11.0156C16.6406 14.6772 13.6616 17.6562 9.99997 17.6562C6.33834 17.6562 3.35937 14.6772 3.35937 11.0156C3.35941 7.35393 6.33838 4.37496 9.99997 4.37496Z" fill="#8245E5"/>
<path d="M5.37349 11.406H8.64266L8.98383 11.9215C9.01278 11.9652 9.05024 12.0027 9.09399 12.0316L9.60949 12.3728V15.642C9.60949 15.8577 9.78438 16.0326 10.0001 16.0326C10.2158 16.0326 10.3907 15.8577 10.3907 15.642V12.8899L13.1783 14.7348C13.2442 14.7784 13.3192 14.7997 13.3938 14.7997C13.4946 14.7997 13.5947 14.7608 13.6701 14.6853C13.8014 14.554 13.8222 14.3484 13.7197 14.1935L11.8747 11.406H14.6268C14.8425 11.406 15.0174 11.2311 15.0174 11.0153C15.0174 10.7996 14.8425 10.6247 14.6268 10.6247H11.3576L11.0164 10.1092C10.9875 10.0655 10.95 10.028 10.9063 9.99905L10.3908 9.65784V6.38867C10.3908 6.17293 10.2159 5.99805 10.0002 5.99805C9.78445 5.99805 9.60957 6.17293 9.60957 6.38867V9.14077L6.82201 7.29578C6.66712 7.19328 6.4615 7.21398 6.33017 7.34531C6.19884 7.47663 6.17814 7.68226 6.28064 7.8371L8.12563 10.6247H5.37353C5.15779 10.6247 4.98291 10.7996 4.98291 11.0153C4.98291 11.2311 5.15775 11.406 5.37349 11.406ZM10.4088 10.6067L12.0086 13.0238L9.59145 11.424L7.99165 9.00686L10.4088 10.6067Z" fill="#8245E5"/>
<path d="M3.92343 5.32967C4.01718 5.32967 4.11124 5.29611 4.18609 5.22807L4.18628 5.22787C4.34589 5.08276 4.35757 4.8358 4.21245 4.67615C4.06741 4.51654 3.82019 4.50483 3.66058 4.64998C3.50097 4.7951 3.48917 5.04217 3.63429 5.20178C3.7114 5.28662 3.81722 5.32967 3.92343 5.32967Z" fill="#8245E5"/>
</svg>
