<svg width="288" height="288" viewBox="0 0 288 288" fill="none" xmlns="http://www.w3.org/2000/svg">
<g clip-path="url(#clip0)">
<path d="M163.588 191.311C162.513 190.134 161.152 189.253 159.746 188.519C156.684 186.922 153.336 185.954 150.011 185.08V210.842C155.407 210.232 161.603 208.274 164.436 203.236C165.789 200.829 166.058 197.873 165.507 195.194C165.208 193.742 164.591 192.41 163.588 191.311Z" fill="#8245E5"/>
<path d="M164.408 203.285C164.418 203.267 164.425 203.256 164.436 203.236C164.427 203.252 164.417 203.268 164.408 203.285ZM124.699 150.128C123.771 151.482 123.189 153.021 123.029 154.657C122.868 156.296 122.958 158.12 123.581 159.663C124.174 161.134 125.416 162.219 126.698 163.094C128.137 164.072 129.719 164.837 131.331 165.484C132.683 166.029 134.203 166.549 135.843 167.052V143.74C131.701 144.623 127.177 146.51 124.699 150.128ZM164.543 203.045C164.509 203.106 164.473 203.169 164.437 203.235C164.479 203.158 164.512 203.101 164.543 203.045ZM164.679 202.804C164.688 202.788 164.689 202.787 164.679 202.804V202.804Z" fill="#8245E5"/>
<path d="M159.087 62.6643C180.996 44.2599 195.635 2.79746 186.626 0.983988C174.655 -1.42652 148.661 9.14324 136.097 11.0055C118.277 13.1571 98.8679 -8.31851 87.9736 3.65201C79.1156 13.3848 94.3241 48.78 118.118 64.1999C47.1299 99.0895 -52.6489 274.238 121.42 286.947C362.275 304.532 241.67 96.6634 159.087 62.6643ZM179.772 200.795C179.031 207.623 175.412 213.798 170.003 217.99C164.292 222.417 157.128 224.476 150.01 225.052V232.597C150.01 234.616 149.129 236.568 147.617 237.905C145.54 239.742 142.488 240.196 139.967 239.034C137.478 237.889 135.843 235.336 135.843 232.597V224.351C134.622 224.119 133.411 223.843 132.213 223.515C125.561 221.687 119.391 218.125 114.884 212.854C112.638 210.226 110.808 207.245 109.542 204.027C109.211 203.186 108.917 202.329 108.658 201.463C108.425 200.679 108.183 199.882 108.1 199.065C107.96 197.694 108.231 196.295 108.87 195.074C110.184 192.562 112.951 191.044 115.777 191.297C118.559 191.543 120.996 193.473 121.872 196.124C122.141 196.941 122.324 197.778 122.627 198.586C122.928 199.388 123.29 200.168 123.716 200.911C124.558 202.373 125.613 203.722 126.827 204.892C129.33 207.304 132.519 208.871 135.843 209.804V181.774C129.343 180.091 122.634 177.918 117.267 173.745C114.659 171.716 112.445 169.195 110.996 166.211C109.466 163.062 108.833 159.553 108.807 156.069C108.78 152.531 109.453 149.024 110.929 145.8C112.311 142.782 114.301 140.071 116.742 137.825C121.96 133.022 128.891 130.343 135.843 129.359V128.743V121.527C135.843 119.509 136.725 117.556 138.236 116.22C140.314 114.383 143.365 113.929 145.887 115.09C148.375 116.236 150.011 118.788 150.011 121.527V128.743V129.317C150.937 129.433 151.861 129.573 152.78 129.74C159.607 130.975 166.284 133.794 171.277 138.716C173.642 141.047 175.578 143.825 176.939 146.854C177.319 147.699 177.652 148.564 177.94 149.446C178.209 150.268 178.478 151.114 178.606 151.972C178.811 153.342 178.602 154.757 178.016 156.01C176.815 158.577 174.122 160.211 171.289 160.09C168.505 159.969 165.983 158.156 164.986 155.554C164.689 154.78 164.54 153.961 164.238 153.189C163.932 152.407 163.536 151.662 163.08 150.958C162.194 149.589 161.045 148.415 159.734 147.448C156.894 145.351 153.45 144.259 150.009 143.648V170.472C154.099 171.451 158.192 172.519 162.11 174.065C168.033 176.4 173.644 179.981 176.877 185.627C176.375 184.747 175.887 183.89 176.894 185.656C177.882 187.391 177.41 186.564 176.914 185.695C179.486 190.227 180.331 195.647 179.772 200.795Z" fill="#8245E5"/>
<path d="M164.332 203.418C164.291 203.492 164.255 203.557 164.227 203.607C164.251 203.564 164.288 203.5 164.332 203.418Z" fill="#8245E5"/>
</g>
<defs>
<clipPath id="clip0">
<rect width="288" height="288" fill="white"/>
</clipPath>
</defs>
</svg>
