<svg width="21" height="21" viewBox="0 0 21 21" fill="none" xmlns="http://www.w3.org/2000/svg">
<path d="M10.1605 5.45582C10.0003 5.45582 9.80382 5.4324 9.66929 5.28249C9.62253 5.22982 9.58156 5.18064 9.54181 5.13963C9.22136 4.8024 8.66937 5.2708 9.00385 5.70868L9.08453 5.8129C9.13715 5.87853 9.2319 5.95461 9.36754 6.04128C9.49973 6.12552 9.64706 6.18643 9.81079 6.22273V6.80121C9.81079 7.00026 9.9733 7.1642 10.1722 7.1642C10.3722 7.1642 10.5417 7.00026 10.5417 6.80121V6.21924C10.8037 6.15842 11.0283 6.03074 11.2118 5.83755C11.3966 5.64429 11.489 5.3879 11.489 5.06822C11.489 4.85043 11.4469 4.66898 11.3627 4.52255C11.2785 4.37735 11.1756 4.27551 11.0528 4.21809C10.9288 4.16071 10.7943 4.11034 10.6458 4.06707C10.4985 4.02376 10.364 3.99328 10.24 3.97458C10.1172 3.95694 10.0143 3.91946 9.93007 3.86449C9.84586 3.80822 9.80378 3.73566 9.80378 3.64547C9.80378 3.2146 10.4353 3.26727 10.7136 3.50146C11.1241 3.8469 11.5837 3.2146 11.1077 2.85748L11.0527 2.80826C11.0153 2.77906 10.9498 2.74272 10.8551 2.69703C10.7615 2.65142 10.6562 2.61741 10.5417 2.5928V2.24274V2.09053C10.5417 1.89144 10.3791 1.72754 10.1792 1.72754C9.98031 1.72754 9.81662 1.8914 9.81662 2.09053V2.58698C9.54993 2.63969 9.3289 2.77204 9.17575 2.96752C9.02137 3.16661 8.94303 3.38679 8.94303 3.63259C8.94303 3.87971 9.00037 4.08229 9.11492 4.2427C9.22952 4.40303 9.36873 4.51549 9.53361 4.58108C9.69734 4.64666 9.86104 4.69937 10.0248 4.73796C10.1897 4.77783 10.3289 4.8211 10.4434 4.87147C10.5581 4.92065 10.6154 4.98976 10.6154 5.07991C10.6154 5.33048 10.4634 5.45582 10.1605 5.45582Z" fill="#8245E5"/>
<path d="M20.5664 11.8469L17.1962 7.53005C16.9692 7.23851 16.6251 7.07129 16.252 7.07129C15.9887 7.07129 15.7395 7.15488 15.5303 7.31357L13.3247 8.99488C13.0722 9.18729 12.911 9.46652 12.8705 9.78111C12.8645 9.82799 12.8616 9.87475 12.8611 9.92126C12.0203 9.85756 11.1518 9.92159 10.3084 10.4698L10.2706 10.4944L8.13704 10.1681C8.14143 10.0942 8.13905 10.0195 8.12933 9.94443C8.08864 9.63058 7.92761 9.352 7.67565 9.15989L5.46951 7.48013C4.95263 7.08487 4.20528 7.18088 3.80337 7.69473L2.99996 8.72401C2.85935 8.90407 2.89143 9.16399 3.07149 9.30451C3.25159 9.44511 3.5115 9.41304 3.65206 9.23298L4.45523 8.20406C4.5768 8.04861 4.81116 8.01801 4.96768 8.13774L7.17432 9.8179C7.24905 9.87487 7.29687 9.95756 7.30893 10.0508C7.32103 10.1442 7.29581 10.2367 7.23822 10.3106L3.86739 14.6281C3.74664 14.7832 3.51199 14.8135 3.35572 14.695L1.15003 13.0136C1.07489 12.9563 1.02686 12.8733 1.01484 12.7799C1.0029 12.6869 1.02813 12.5951 1.08617 12.521L1.65924 11.7868C1.7998 11.6068 1.76776 11.3468 1.58766 11.2063C1.40761 11.0657 1.14769 11.0978 1.00709 11.2779L0.434346 12.0116C0.239235 12.261 0.154004 12.5713 0.194364 12.8853C0.234764 13.1998 0.39612 13.4791 0.64853 13.6714L2.85492 15.3535C3.06964 15.5164 3.3234 15.5952 3.57553 15.5951C3.72134 15.5951 3.86641 15.5683 4.0032 15.5167L4.28875 15.9077C4.13354 16.1909 4.10935 16.531 4.23407 16.8592C4.41237 17.3285 4.83307 17.6467 5.28822 17.6619C5.30233 17.7287 5.32189 17.7955 5.34859 17.8617C5.53205 18.3163 5.95099 18.6257 6.40113 18.646C6.40318 18.6578 6.40474 18.6697 6.40716 18.6815C6.4928 19.0977 6.81211 19.4532 7.22058 19.5871C7.32464 19.6212 7.42956 19.6387 7.53345 19.6418C7.57324 19.8094 7.65642 19.9712 7.78426 20.1133C7.98356 20.3348 8.27452 20.4766 8.59371 20.4766C8.82549 20.4766 9.07219 20.4013 9.30931 20.228L9.77766 20.6658C10.0163 20.8884 10.3166 20.9996 10.614 20.9996C10.9157 20.9995 11.2144 20.8852 11.4425 20.6569C11.5785 20.5208 11.6839 20.3588 11.752 20.1883C11.8683 20.2236 11.9818 20.2403 12.0907 20.2403C12.3975 20.2403 12.6682 20.1108 12.8622 19.911C13.0209 19.7475 13.1345 19.53 13.1847 19.298C13.2015 19.2989 13.2183 19.2996 13.2351 19.2997C13.2393 19.2998 13.2433 19.2998 13.2475 19.2998C13.5737 19.2998 13.8867 19.1734 14.1078 18.952C14.2627 18.797 14.3692 18.6061 14.4201 18.3978C14.499 18.4131 14.5783 18.4212 14.6573 18.4212C14.7569 18.4212 14.8562 18.4088 14.954 18.3838C15.3529 18.2816 15.6609 17.9698 15.7578 17.5702C15.8472 17.2015 15.7551 16.813 15.5042 16.46C16.1538 15.9374 16.4165 15.6799 16.7133 15.1985C16.916 15.3476 17.1627 15.4298 17.4235 15.4298C17.4235 15.4298 17.4235 15.4298 17.4236 15.4298C17.6876 15.4298 17.9373 15.3456 18.1449 15.1868L20.3519 13.5064C20.6037 13.3145 20.7648 13.0359 20.8055 12.7221C20.8461 12.4079 20.7614 12.0972 20.5664 11.8469ZM5.50461 16.7498C5.44125 16.807 5.3798 16.8361 5.32193 16.8361C5.20315 16.8361 5.06501 16.7173 5.00734 16.5655C4.95501 16.4276 4.97941 16.3124 5.08014 16.223L5.08146 16.2218C5.08187 16.2215 5.08232 16.2211 5.08273 16.2207L6.47619 14.9821C6.59276 14.8787 6.71006 14.8241 6.81552 14.8241C6.96982 14.8241 7.08519 14.9412 7.12707 15.0502C7.17186 15.1665 7.14491 15.2704 7.04746 15.3585L6.80456 15.5776C6.80436 15.5778 6.80411 15.5779 6.80391 15.5781C6.80272 15.5792 6.80157 15.5802 6.80038 15.5813C6.79168 15.5892 6.7827 15.5973 6.77384 15.6053L5.50461 16.7498ZM6.63094 17.7384C6.56815 17.7939 6.50831 17.8208 6.4481 17.8208C6.32255 17.8208 6.17657 17.7028 6.11575 17.5521C6.04873 17.386 6.12826 17.3094 6.1534 17.2851C6.16956 17.2696 6.18896 17.251 6.20918 17.2293C6.2093 17.2292 6.20943 17.2291 6.20955 17.229L6.21382 17.2252C6.29339 17.1542 6.99406 16.5211 7.32883 16.2186L7.35376 16.1961C7.46721 16.0965 7.58214 16.0439 7.68628 16.0439C7.8505 16.0439 7.97277 16.1696 8.01686 16.2863C8.06071 16.4024 8.03442 16.504 7.93901 16.588L7.85321 16.6635C7.85255 16.664 7.85194 16.6645 7.85132 16.6651C7.85112 16.6653 7.85091 16.6655 7.85071 16.6657L6.63094 17.7384ZM7.86379 18.6312C7.85809 18.6363 7.85272 18.6417 7.84718 18.6469L7.75014 18.7345C7.66388 18.8124 7.5775 18.8336 7.47824 18.8011C7.35278 18.7599 7.24318 18.6395 7.21751 18.5149C7.1952 18.4065 7.23859 18.306 7.34876 18.2088L7.48678 18.0883C7.49026 18.0852 7.49326 18.0819 7.49662 18.0788L8.40069 17.2837C8.61733 17.0922 8.83188 17.073 8.9747 17.2327C8.9948 17.2551 9.16509 17.4576 8.95719 17.6454L8.40196 18.1464C8.39601 18.1517 8.38998 18.1564 8.38408 18.1618C8.38198 18.1637 8.38026 18.1659 8.37821 18.1678L7.87015 18.6262C7.8681 18.628 7.8658 18.6293 7.86379 18.6312ZM8.39929 19.56C8.35569 19.5116 8.27161 19.3861 8.40955 19.2537L8.96342 18.7539C9.00534 18.718 9.04574 18.6896 9.08356 18.6701C9.08528 18.6692 9.08704 18.6683 9.08876 18.6674C9.31201 18.5482 9.43301 18.6872 9.46484 18.7326C9.50573 18.791 9.5556 18.9057 9.43022 19.0183L9.05074 19.3594C9.04931 19.3607 9.04791 19.362 9.04648 19.3633L8.88196 19.5111C8.61163 19.7538 8.44416 19.61 8.39929 19.56ZM14.9538 17.3752C14.9284 17.48 14.8536 17.5555 14.7487 17.5824C14.5747 17.627 14.3544 17.5304 14.1528 17.3235C14.1377 17.3067 14.1222 17.2903 14.106 17.2743L12.5447 15.731C12.3822 15.5704 12.1203 15.5719 11.9597 15.7344C11.7991 15.8968 11.8006 16.1587 11.9631 16.3193L13.5219 17.8601C13.5244 17.8629 13.5271 17.8656 13.5296 17.8683C13.5919 17.9324 13.6266 18.018 13.6269 18.1106C13.6273 18.2084 13.5902 18.2996 13.5225 18.3674C13.4557 18.4344 13.3557 18.4726 13.2477 18.4726C13.2461 18.4726 13.2447 18.4726 13.2432 18.4725C13.1475 18.4716 13.0602 18.4396 12.9988 18.3837C12.9729 18.3502 12.9447 18.3178 12.9138 18.2867L11.7723 17.1439C11.6109 16.9823 11.349 16.9821 11.1874 17.1435C11.0258 17.3049 11.0256 17.5668 11.187 17.7284L12.2694 18.8122C12.2825 18.8313 12.297 18.8497 12.3136 18.8669L12.3597 18.9144C12.419 19.0274 12.3822 19.2178 12.2686 19.3348C12.0933 19.5153 11.8466 19.3562 11.6708 19.1911L11.182 18.731C11.0157 18.5744 10.7539 18.5823 10.5973 18.7486C10.4407 18.915 10.4486 19.1767 10.615 19.3333L10.9884 19.6848C10.9893 19.6856 10.99 19.6866 10.9909 19.6874C10.9994 19.6954 11.0123 19.7074 11.0129 19.7491C11.0145 19.8461 10.9505 19.979 10.8573 20.0723C10.7212 20.2085 10.4949 20.2036 10.3424 20.0613L9.93303 19.6787L9.98307 19.6337C10.389 19.2692 10.4545 18.7036 10.1424 18.2581C10.0408 18.1131 9.91363 18.0004 9.77094 17.9223C9.97208 17.5256 9.91584 17.044 9.59121 16.6811C9.40807 16.4764 9.14939 16.3366 8.86064 16.3056C8.85239 16.2018 8.82967 16.0972 8.79074 15.9941C8.65023 15.6221 8.33789 15.3483 7.97031 15.2535C7.98561 15.0887 7.96284 14.9185 7.89919 14.753C7.72508 14.3007 7.28966 13.9968 6.81556 13.9968C6.50466 13.9968 6.19753 14.1235 5.92699 14.3635L4.87097 15.3022L4.63882 14.9843L7.78742 10.9514L9.22699 11.1716L9.00919 11.3129C7.84271 12.0697 7.75732 12.9499 8.06641 13.5213C8.31378 13.9786 8.80748 14.2401 9.33154 14.2401C9.54728 14.24 9.76827 14.1957 9.97921 14.1025C9.98479 14.1 9.99033 14.0975 9.99574 14.0948L11.0863 13.5541L11.7158 14.1272C11.7164 14.1278 11.7171 14.1282 11.7177 14.1288C11.7183 14.1293 11.7188 14.1299 11.7194 14.1305L14.6291 16.7182C14.8784 16.9399 14.9999 17.1855 14.9538 17.3752ZM14.9191 15.8691L12.2709 13.514L11.4342 12.7522C11.3082 12.6374 11.1247 12.6116 10.972 12.6874L9.63718 13.3493C9.27452 13.5052 8.91781 13.3568 8.79394 13.1278C8.62373 12.8131 8.87868 12.3836 9.45938 12.0069L10.759 11.1636C11.4636 10.7056 12.2028 10.6702 13.214 10.7876L16.1419 14.5391C15.8329 15.094 15.6688 15.2701 14.9191 15.8691ZM19.9851 12.6157C19.973 12.7088 19.9252 12.7915 19.8506 12.8484L17.6431 14.5292C17.5638 14.5898 17.4799 14.6025 17.4236 14.6025C17.3076 14.6025 17.201 14.5514 17.1316 14.4627L13.762 10.1451C13.7043 10.0713 13.679 9.97946 13.691 9.88652C13.703 9.79309 13.751 9.71003 13.8262 9.65273L16.0311 7.97195C16.1111 7.91129 16.1953 7.89853 16.252 7.89853C16.3681 7.89853 16.4744 7.94943 16.5438 8.03864L19.914 12.3555C19.9719 12.4299 19.9972 12.5223 19.9851 12.6157Z" fill="#8245E5"/>
<path d="M8.07315 8.40258C8.72255 8.75298 9.45612 8.93821 10.1946 8.93821C12.6564 8.93821 14.6593 6.93308 14.6593 4.46849C14.6593 2.74837 13.6551 1.16214 12.1013 0.427424C11.5027 0.143801 10.8612 0 10.1946 0C7.7333 0 5.73096 2.00456 5.73096 4.46849C5.73096 6.11182 6.62817 7.61914 8.07315 8.40258ZM10.1946 0.827203C10.7377 0.827203 11.2601 0.944221 11.7474 1.17506C13.0137 1.77384 13.832 3.06662 13.832 4.46849C13.832 6.47698 12.2003 8.111 10.1946 8.111C9.59282 8.111 8.9951 7.96007 8.46674 7.67501C7.28951 7.03668 6.5582 5.80802 6.5582 4.46849C6.5582 2.46069 8.18943 0.827203 10.1946 0.827203Z" fill="#8245E5"/>
<path d="M2.07165 10.5787C2.14782 10.6395 2.23891 10.669 2.32939 10.669C2.45088 10.669 2.57126 10.6158 2.65292 10.5134L2.6576 10.5075C2.80009 10.329 2.77084 10.0687 2.5923 9.92625C2.41376 9.78385 2.15348 9.81297 2.01103 9.99159L2.00635 9.99745C1.86387 10.176 1.89311 10.4362 2.07165 10.5787Z" fill="#8245E5"/>
</svg>
