<svg width="18" height="18" viewBox="0 0 18 18" fill="none" xmlns="http://www.w3.org/2000/svg">
<path d="M7.10166 12.614C7.03367 12.614 6.96518 12.5906 6.90929 12.543L4.98631 10.9056C4.91998 10.849 4.88184 10.7664 4.88184 10.6792C4.88184 10.5921 4.92014 10.5096 4.98631 10.453L6.90929 8.81559C7.03417 8.70912 7.22172 8.72421 7.32819 8.84908C7.43448 8.97412 7.41956 9.16168 7.29452 9.26797L5.63737 10.6792L7.29452 12.0904C7.41956 12.1969 7.43448 12.3844 7.32819 12.5093C7.26932 12.5785 7.18574 12.614 7.10166 12.614Z" fill="#8245E5"/>
<path d="M10.8979 12.614C10.8138 12.614 10.7302 12.5785 10.6715 12.5093C10.5651 12.3844 10.5802 12.1969 10.705 12.0904L12.3622 10.6792L10.705 9.26797C10.5802 9.16168 10.5651 8.97412 10.6715 8.84908C10.7778 8.72421 10.9656 8.70912 11.0903 8.81559L13.0132 10.453C13.0796 10.5096 13.1177 10.5921 13.1177 10.6792C13.1177 10.7664 13.0796 10.849 13.0132 10.9056L11.0903 12.543C11.0344 12.5906 10.9659 12.614 10.8979 12.614Z" fill="#8245E5"/>
<path d="M8.31912 13.8427C8.29873 13.8427 8.27816 13.8406 8.25743 13.8363C8.09691 13.8024 7.99409 13.6447 8.02792 13.4842L9.22638 7.79406C9.26021 7.63353 9.41775 7.53072 9.57844 7.56455C9.73896 7.59837 9.84178 7.75591 9.80795 7.9166L8.60949 13.6068C8.57997 13.7467 8.4566 13.8427 8.31912 13.8427Z" fill="#8245E5"/>
<path d="M16.0047 16.9425H1.99528C0.895158 16.9425 0 16.0475 0 14.9472V3.05681C0 1.95668 0.895158 1.06152 1.99528 1.06152H16.0047C17.1048 1.06152 18 1.95668 18 3.05681V14.9472C18 16.0475 17.1048 16.9425 16.0047 16.9425ZM1.99528 1.65586C1.22284 1.65586 0.59434 2.28436 0.59434 3.05681V14.9472C0.59434 15.7197 1.22284 16.3482 1.99528 16.3482H16.0047C16.7772 16.3482 17.4057 15.7197 17.4057 14.9472V3.05681C17.4057 2.28436 16.7772 1.65586 16.0047 1.65586H1.99528Z" fill="#8245E5"/>
<path d="M17.7028 5.81993H0.29717C0.132997 5.81993 0 5.68693 0 5.52276C0 5.35875 0.132997 5.22559 0.29717 5.22559H17.7028C17.867 5.22559 18 5.35875 18 5.52276C18 5.68693 17.867 5.81993 17.7028 5.81993Z" fill="#8245E5"/>
<path d="M5.07715 4.39795C4.55876 4.39795 4.13672 3.97591 4.13672 3.45752C4.13672 2.93896 4.55876 2.51709 5.07715 2.51709C5.5957 2.51709 6.01758 2.93896 6.01758 3.45752C6.01758 3.97591 5.5957 4.39795 5.07715 4.39795ZM5.07715 3.11143C4.88644 3.11143 4.73106 3.26665 4.73106 3.45752C4.73106 3.64839 4.88644 3.80361 5.07715 3.80361C5.26802 3.80361 5.42324 3.64839 5.42324 3.45752C5.42324 3.26665 5.26802 3.11143 5.07715 3.11143Z" fill="#8245E5"/>
<path d="M2.18848 4.38867C1.66992 4.38867 1.24805 3.9668 1.24805 3.44824C1.24805 2.92969 1.66992 2.50781 2.18848 2.50781C2.70703 2.50781 3.12891 2.92969 3.12891 3.44824C3.12891 3.9668 2.70703 4.38867 2.18848 4.38867ZM2.18848 3.10215C1.99777 3.10215 1.84239 3.25754 1.84239 3.44824C1.84239 3.63911 1.99777 3.79433 2.18848 3.79433C2.37935 3.79433 2.53457 3.63911 2.53457 3.44824C2.53457 3.25754 2.37935 3.10215 2.18848 3.10215Z" fill="#8245E5"/>
<path d="M7.96663 4.40657C7.44824 4.40657 7.02637 3.9847 7.02637 3.46614C7.02637 2.94775 7.44824 2.52588 7.96663 2.52588C8.48519 2.52588 8.90706 2.94775 8.90706 3.46614C8.90706 3.9847 8.48519 4.40657 7.96663 4.40657ZM7.96663 3.12005C7.77592 3.12005 7.62071 3.27527 7.62071 3.46614C7.62071 3.65702 7.77592 3.81223 7.96663 3.81223C8.1575 3.81223 8.31272 3.65702 8.31272 3.46614C8.31272 3.27527 8.1575 3.12005 7.96663 3.12005Z" fill="#8245E5"/>
</svg>
