<svg width="17" height="17" viewBox="0 0 17 17" fill="none" xmlns="http://www.w3.org/2000/svg">
<g clip-path="url(#clip0)">
<path d="M5.9119 6.22139H4.11195C4.42337 5.77929 4.50322 5.48452 4.45624 4.98441H4.98473C5.16811 4.98441 5.31676 4.83573 5.31676 4.65238C5.31676 4.46903 5.16811 4.32035 4.98473 4.32035H4.29265C4.17624 4.14298 3.97805 3.77967 3.97934 3.48247C3.97864 3.29351 4.06122 3.15482 4.23172 3.05853C4.49276 2.91114 4.91368 2.90835 5.15078 3.05255C5.33957 3.16734 5.48198 3.32721 5.52242 3.46978C5.57246 3.64616 5.75597 3.74859 5.93248 3.69859C6.10889 3.64855 6.21132 3.46497 6.16128 3.28853C6.07439 2.98226 5.83184 2.68944 5.49579 2.48511C5.04961 2.21381 4.38067 2.21182 3.9052 2.48026C3.52326 2.69595 3.31375 3.05269 3.31528 3.4822C3.31398 3.78448 3.41768 4.08358 3.53107 4.32031H3.25488C3.0715 4.32031 2.92285 4.469 2.92285 4.65235C2.92285 4.83569 3.0715 4.98438 3.25488 4.98438H3.78889L3.78985 4.99251C3.83275 5.37601 3.80991 5.51848 3.50168 5.93183L3.18366 6.35344C3.10783 6.45395 3.09538 6.58875 3.15155 6.70144C3.2077 6.81417 3.32282 6.88539 3.44872 6.88539H5.91193C6.09531 6.88539 6.24396 6.7367 6.24396 6.55336C6.24396 6.37001 6.09528 6.22139 5.9119 6.22139Z" fill="#8245E5"/>
<path d="M4.58329 0C2.05604 0 0 2.05604 0 4.58326C0 7.11048 2.05604 9.16655 4.58329 9.16655C7.11055 9.16655 9.16659 7.11048 9.16659 4.58326C9.16659 2.05604 7.11052 0 4.58329 0V0ZM4.58329 8.50249C2.42223 8.50249 0.664062 6.74435 0.664062 4.58326C0.664062 2.4222 2.42223 0.664062 4.58329 0.664062C6.74435 0.664062 8.50252 2.4222 8.50252 4.58326C8.50249 6.74435 6.74435 8.50249 4.58329 8.50249Z" fill="#8245E5"/>
<path d="M12.4168 7.8335C9.88957 7.8335 7.8335 9.88957 7.8335 12.4168C7.8335 14.944 9.88957 17 12.4168 17C14.944 17 17.0001 14.944 17.0001 12.4168C17.0001 9.88957 14.944 7.8335 12.4168 7.8335ZM12.4168 16.336C10.2557 16.336 8.49756 14.5778 8.49756 12.4168C8.49756 10.2557 10.2557 8.49756 12.4168 8.49756C14.5778 8.49756 16.336 10.2557 16.336 12.4168C16.336 14.5778 14.5778 16.336 12.4168 16.336Z" fill="#8245E5"/>
<path d="M12.9587 12.0799C12.8897 12.0555 12.8193 12.0301 12.7488 12.0039V10.6992C12.9255 10.7577 13.0417 10.8402 13.0473 10.8443C13.1933 10.9535 13.4004 10.9245 13.5107 10.7789C13.6215 10.6327 13.5928 10.4244 13.4466 10.3137C13.4289 10.3004 13.1542 10.0966 12.7488 10.0128V9.7373C12.7488 9.55396 12.6001 9.40527 12.4168 9.40527C12.2334 9.40527 12.0847 9.55396 12.0847 9.7373V10.0106C12.0406 10.0197 11.9961 10.0307 11.951 10.0442C11.5155 10.175 11.1901 10.5471 11.1017 11.0152C11.0208 11.4435 11.1588 11.8572 11.4616 12.0948C11.6196 12.2187 11.8158 12.3318 12.0847 12.4512V14.1478C11.8603 14.1297 11.7155 14.0735 11.4704 13.9132C11.3169 13.8128 11.1112 13.8558 11.0107 14.0093C10.9104 14.1627 10.9534 14.3685 11.1068 14.4689C11.4885 14.7186 11.7497 14.7941 12.0847 14.8137V15.0966C12.0847 15.28 12.2334 15.4286 12.4168 15.4286C12.6001 15.4286 12.7488 15.28 12.7488 15.0966V14.776C13.3705 14.6236 13.7693 14.095 13.8569 13.5737C13.9703 12.8991 13.6178 12.3128 12.9587 12.0799ZM11.8715 11.5723C11.7662 11.4896 11.7202 11.3193 11.7543 11.1384C11.7846 10.9782 11.8873 10.7872 12.0848 10.7016V11.7112C12.005 11.6665 11.9327 11.6203 11.8715 11.5723ZM13.2021 13.4635C13.1623 13.7002 13.0085 13.9505 12.7488 14.0751V12.7103C13.2551 12.8961 13.224 13.3331 13.2021 13.4635Z" fill="#8245E5"/>
<path d="M10.459 1.55078C12.9712 1.55078 15.0553 3.41693 15.399 5.83568C15.2689 5.71219 15.0634 5.71392 14.9358 5.84149C14.8062 5.97115 14.8062 6.18139 14.9358 6.31108L15.5463 6.92152C15.6111 6.98633 15.6961 7.01877 15.781 7.01877C15.866 7.01877 15.951 6.98633 16.0158 6.92152L16.6263 6.31108C16.7559 6.18142 16.7559 5.97118 16.6263 5.84149C16.4966 5.71186 16.2864 5.71186 16.1567 5.84149L16.0787 5.91941C15.7684 3.09303 13.3666 0.886719 10.459 0.886719C10.2756 0.886719 10.127 1.0354 10.127 1.21875C10.127 1.4021 10.2756 1.55078 10.459 1.55078Z" fill="#8245E5"/>
<path d="M6.54096 15.4489C4.02878 15.4489 1.94462 13.5828 1.60096 11.1641C1.66495 11.2248 1.74706 11.2555 1.8293 11.2555C1.91427 11.2555 1.99927 11.223 2.06408 11.1582C2.19374 11.0285 2.19374 10.8183 2.06408 10.6886L1.45364 10.0782C1.32398 9.94855 1.11374 9.94855 0.98405 10.0782L0.373611 10.6886C0.243953 10.8183 0.243953 11.0285 0.373611 11.1582C0.503269 11.2878 0.713511 11.2878 0.843203 11.1582L0.92113 11.0803C1.23158 13.9067 3.63329 16.113 6.54096 16.113C6.72434 16.113 6.87299 15.9643 6.87299 15.781C6.87299 15.5976 6.72434 15.4489 6.54096 15.4489Z" fill="#8245E5"/>
</g>
<defs>
<clipPath id="clip0">
<rect width="17" height="17" fill="white"/>
</clipPath>
</defs>
</svg>
