<svg width="19" height="19" viewBox="0 0 19 19" fill="none" xmlns="http://www.w3.org/2000/svg">
<g clip-path="url(#clip0)">
<path d="M4.50484 7.77663H5.95029C6.34502 7.77663 6.66617 7.45634 6.66617 7.06268V5.62069C6.66617 5.22703 6.34502 4.90674 5.95029 4.90674H4.50484C4.1107 4.90674 3.79004 5.22703 3.79004 5.62069V7.06268C3.79004 7.45634 4.1107 7.77663 4.50484 7.77663ZM4.53223 5.64885H5.92394V7.03452H4.53223V5.64885Z" fill="#8245E5"/>
<path d="M17.3935 10.3711C17.2158 10.3711 17.0374 10.4092 16.8746 10.4843C16.7495 10.0876 16.4517 9.83254 16.1109 9.72618V1.75101C16.1109 0.785494 15.3239 0 14.3566 0H2.16255C1.19522 0 0.408203 0.785494 0.408203 1.75101V2.73863C0.408203 3.20247 0.786088 3.57983 1.25059 3.57983H1.61222V17.5173C1.61222 17.9811 1.9901 18.3585 2.4546 18.3585H12.2757C12.9267 18.7803 13.6368 19 14.3582 19C14.7593 19 15.1639 18.9321 15.5636 18.7934C16.4258 18.4944 17.1961 17.8691 17.7326 17.0327C18.3015 16.1459 18.5986 15.0546 18.5917 13.8791V11.6146C18.5917 10.7983 17.9889 10.3711 17.3935 10.3711ZM2.3544 17.5173V3.57983H5.75455C5.95951 3.57983 6.12564 3.41369 6.12564 3.20877C6.12564 3.00386 5.95951 2.83772 5.75455 2.83772H1.25059C1.19629 2.83772 1.15039 2.79233 1.15039 2.7386V1.75101C1.15039 1.1947 1.60442 0.742113 2.16255 0.742113H12.9235C12.7212 1.02748 12.6023 1.37561 12.6023 1.75101V2.73863C12.6023 2.79237 12.5564 2.83775 12.5021 2.83775H9.09458C8.88962 2.83775 8.72349 3.00389 8.72349 3.20881C8.72349 3.41373 8.88962 3.57987 9.09458 3.57987H12.5021C12.9666 3.57987 13.3445 3.2025 13.3445 2.73867V1.75101C13.3445 1.1947 13.7985 0.742113 14.3566 0.742113C14.9147 0.742113 15.3687 1.1947 15.3687 1.75101V9.726C15.3186 9.74162 15.2694 9.76006 15.2216 9.78211C15.0523 9.24535 14.5671 8.967 14.0867 8.967C13.9317 8.967 13.7764 8.99591 13.6312 9.05313V6.96365C13.6312 6.14728 13.0287 5.72011 12.4336 5.72011C11.8384 5.72011 11.2359 6.14724 11.2359 6.96365V12.3256C11.2359 12.4945 11.239 12.6485 11.2417 12.7844C11.242 12.7991 11.2423 12.8139 11.2425 12.8288L10.38 11.9041C9.87748 11.3662 9.15091 11.311 8.61316 11.7699C8.08398 12.2216 7.84021 13.1106 8.43069 13.8684L11.0064 17.1742C11.1289 17.3314 11.2562 17.4786 11.3876 17.6163H2.4546C2.40027 17.6163 2.3544 17.571 2.3544 17.5173ZM17.8495 13.8813C17.8613 15.9024 16.8685 17.5554 15.3204 18.0924C14.0106 18.5466 12.6167 18.033 11.5919 16.7181L9.0162 13.4123C8.70901 13.0181 8.82754 12.5627 9.09503 12.3344C9.15744 12.2812 9.2769 12.2005 9.42786 12.2005C9.54858 12.2005 9.68948 12.2521 9.83743 12.4105L10.7411 13.3792C10.9961 13.6524 11.3133 13.9925 11.6651 13.8499C11.9453 13.7362 11.9714 13.4195 11.9799 13.3155C11.9917 13.1723 11.9882 12.9946 11.9837 12.7696C11.9811 12.6372 11.9781 12.4872 11.9781 12.3257V6.96365C11.9781 6.48638 12.3575 6.46223 12.4336 6.46223C12.5096 6.46223 12.889 6.48638 12.889 6.96365V12.2762C12.889 12.4811 13.0552 12.6473 13.2601 12.6473C13.465 12.6473 13.6312 12.4811 13.6312 12.2762V10.2105C13.6312 9.73327 14.0106 9.70911 14.0867 9.70911C14.2067 9.70911 14.3213 9.75197 14.401 9.82679C14.4947 9.91466 14.5422 10.0438 14.5422 10.2106V12.2763C14.5422 12.4812 14.7083 12.6473 14.9133 12.6473C15.1182 12.6473 15.2843 12.4812 15.2843 12.2763V10.9131C15.2843 10.4355 15.6635 10.4113 15.7396 10.4113C15.8597 10.4113 15.9743 10.4543 16.0541 10.5291C16.1478 10.6171 16.1953 10.7462 16.1953 10.9131V12.2762C16.1953 12.4811 16.3615 12.6473 16.5664 12.6473C16.7714 12.6473 16.9375 12.4811 16.9375 12.2762V11.6146C16.9375 11.1374 17.3174 11.1133 17.3935 11.1133C17.5138 11.1133 17.6285 11.1562 17.7083 11.231C17.802 11.3188 17.8495 11.4479 17.8495 11.6146V13.8813H17.8495Z" fill="#8245E5"/>
<path d="M7.48535 5.2778C7.48535 5.48271 7.65149 5.64885 7.85645 5.64885H10.8264C11.0313 5.64885 11.1975 5.48271 11.1975 5.2778C11.1975 5.07288 11.0313 4.90674 10.8264 4.90674H7.85645C7.65149 4.90674 7.48535 5.07288 7.48535 5.2778Z" fill="#8245E5"/>
<path d="M10.1959 7.03418H7.85644C7.65149 7.03418 7.48535 7.20032 7.48535 7.40524C7.48535 7.61015 7.65149 7.77629 7.85644 7.77629H10.1959C10.4008 7.77629 10.567 7.61015 10.567 7.40524C10.567 7.20032 10.4008 7.03418 10.1959 7.03418Z" fill="#8245E5"/>
<path d="M4.16113 9.9052H9.82907C10.034 9.9052 10.2002 9.73906 10.2002 9.53414C10.2002 9.32922 10.034 9.16309 9.82907 9.16309H4.16113C3.95618 9.16309 3.79004 9.32922 3.79004 9.53414C3.79004 9.73906 3.95618 9.9052 4.16113 9.9052Z" fill="#8245E5"/>
<path d="M4.16113 12.0331H7.21861C7.42357 12.0331 7.58971 11.867 7.58971 11.6621C7.58971 11.4572 7.42357 11.291 7.21861 11.291H4.16113C3.95618 11.291 3.79004 11.4572 3.79004 11.6621C3.79004 11.867 3.95618 12.0331 4.16113 12.0331Z" fill="#8245E5"/>
<path d="M4.16113 14.162H6.85382C7.05878 14.162 7.22492 13.9959 7.22492 13.791C7.22492 13.5861 7.05878 13.4199 6.85382 13.4199H4.16113C3.95618 13.4199 3.79004 13.5861 3.79004 13.791C3.79004 13.9959 3.95618 14.162 4.16113 14.162Z" fill="#8245E5"/>
<path d="M8.11162 15.5479H4.16113C3.95618 15.5479 3.79004 15.714 3.79004 15.9189C3.79004 16.1238 3.95618 16.29 4.16113 16.29H8.11162C8.31657 16.29 8.48271 16.1238 8.48271 15.9189C8.48271 15.714 8.31657 15.5479 8.11162 15.5479Z" fill="#8245E5"/>
<path d="M7.42477 3.58H7.42688C7.63184 3.58 7.79694 3.41387 7.79694 3.20895C7.79694 3.00403 7.62976 2.83789 7.4248 2.83789C7.21985 2.83789 7.05371 3.00403 7.05371 3.20895C7.05371 3.41387 7.21981 3.58 7.42477 3.58Z" fill="#8245E5"/>
</g>
<defs>
<clipPath id="clip0">
<rect width="19" height="19" fill="white"/>
</clipPath>
</defs>
</svg>
