<svg width="18" height="18" viewBox="0 0 18 18" fill="none" xmlns="http://www.w3.org/2000/svg">
<path d="M3.53107 3.33858V3.22029L3.44623 3.30272C1.90241 4.80257 1.00469 6.8641 1.00469 9C1.00469 13.4087 4.59132 16.9953 9 16.9953C13.4087 16.9953 16.9953 13.4087 16.9953 9C16.9953 4.59132 13.4087 1.00469 9 1.00469C8.73638 1.00469 8.52266 0.790964 8.52266 0.527344C8.52266 0.263724 8.73638 0.05 9 0.05C13.9221 0.05 17.95 4.07972 17.95 9C17.95 13.9221 13.9203 17.95 9 17.95C4.07794 17.95 0.05 13.9203 0.05 9C0.05 6.66083 0.994046 4.39688 2.69004 2.70374L2.77557 2.61836H2.65472H1.88086C1.6168 2.61836 1.40352 2.40772 1.40352 2.14453C1.40352 1.88091 1.61724 1.66719 1.88086 1.66719H4.00841C4.27196 1.66719 4.48516 1.88084 4.48516 2.14453V4.25391C4.48516 4.5176 4.27196 4.73125 4.00841 4.73125C3.74479 4.73125 3.53107 4.51753 3.53107 4.25391V3.33858Z" fill="#8245E5" stroke="white" stroke-width="0.1"/>
<path d="M12.6711 11.9961L12.7106 12.0356L12.7455 11.992C13.2979 11.3019 13.6637 10.4531 13.7663 9.52935L13.7725 9.47383H13.7166H13.2188C12.9547 9.47383 12.7414 9.26319 12.7414 9C12.7414 8.73638 12.9551 8.52266 13.2188 8.52266H13.7166H13.7725L13.7663 8.46714C13.6638 7.54335 13.2978 6.69806 12.7455 6.00804L12.7106 5.96443L12.6711 6.00393L12.3206 6.35444C12.1342 6.54085 11.832 6.54085 11.6456 6.35444L11.6102 6.38979L11.6456 6.35443C11.4591 6.16801 11.4591 5.86579 11.6456 5.67937L11.9961 5.32887L12.0356 5.28938L11.992 5.25448C11.3019 4.70218 10.4566 4.33628 9.53286 4.23367L9.47734 4.22751V4.28337V4.78125C9.47734 5.04487 9.26362 5.25859 9 5.25859C8.73638 5.25859 8.52266 5.04487 8.52266 4.78125V4.28337V4.22751L8.46714 4.23367C7.54335 4.33628 6.69806 4.70218 6.00804 5.25448L5.96443 5.28938L6.00393 5.32887L6.35443 5.67937C6.54085 5.86579 6.54085 6.16801 6.35443 6.35443L6.35443 6.35444C6.16805 6.54085 5.86576 6.54085 5.67938 6.35444L5.67937 6.35443L5.32887 6.00393L5.28938 5.96443L5.25448 6.00804C4.70218 6.69806 4.33628 7.54335 4.23367 8.46714L4.22751 8.52266H4.28337H4.78125C5.04487 8.52266 5.25859 8.73638 5.25859 9C5.25859 9.26362 5.04487 9.47734 4.78125 9.47734H4.28337H4.22751L4.23367 9.53286C4.33625 10.4566 4.70218 11.3019 5.25448 11.992L5.28938 12.0356L5.32887 11.9961L5.67937 11.6456C5.8658 11.4591 6.16805 11.4591 6.35443 11.6456L6.38979 11.6102L6.35443 11.6456C6.54085 11.832 6.54085 12.1342 6.35443 12.3206L6.00393 12.6711L5.96443 12.7106L6.00804 12.7455C6.69806 13.2978 7.54335 13.6637 8.46714 13.7663L8.52266 13.7725V13.7166V13.2188C8.52266 12.9551 8.73638 12.7414 9 12.7414C9.26362 12.7414 9.47734 12.9551 9.47734 13.2188V13.7166V13.7725L9.53286 13.7663C10.4566 13.6637 11.3019 13.2978 11.992 12.7455L12.0356 12.7106L11.9961 12.6711L11.6456 12.3206C11.4592 12.1342 11.4592 11.832 11.6456 11.6456C11.832 11.4591 12.1343 11.4591 12.3207 11.6456L12.6711 11.9961ZM3.24922 9C3.24922 5.83011 5.82928 3.24922 9 3.24922C12.1697 3.24922 14.7508 5.82907 14.7508 9C14.7508 12.1699 12.1707 14.7508 9 14.7508C5.83032 14.7508 3.24922 12.1709 3.24922 9Z" fill="#8245E5" stroke="white" stroke-width="0.1"/>
<path d="M9.47734 8.78157V8.80229L9.49199 8.81693L10.3922 9.71714C10.5787 9.90356 10.5787 10.2058 10.3922 10.3922L10.3922 10.3922C10.2058 10.5786 9.90356 10.5786 9.71718 10.3922L9.71718 10.3922L8.66249 9.33751C8.57297 9.24799 8.52266 9.12658 8.52266 9V6.89062C8.52266 6.627 8.73638 6.41328 9 6.41328C9.26362 6.41328 9.47734 6.627 9.47734 6.89062V8.78157Z" fill="#8245E5" stroke="white" stroke-width="0.1"/>
</svg>
