<svg width="17" height="21" viewBox="0 0 17 21" fill="none" xmlns="http://www.w3.org/2000/svg">
<path d="M3.18279 5.75765L4.33136 6.90622C4.58015 7.15501 4.93491 7.2622 5.27957 7.19334L5.27958 7.19334C5.77133 7.09501 6.12622 6.6602 6.12346 6.15903C6.11918 5.38739 6.22141 4.26135 6.72511 3.25391C7.73297 1.23822 9.53354 0.417472 9.60367 0.386211L9.60368 0.386203L10.1574 0.13921L10.3125 0.725316L10.3125 0.725382L3.18279 5.75765ZM3.18279 5.75765L2.82798 6.2469C2.82798 6.2469 2.82798 6.24691 2.82798 6.24691C2.78283 6.30918 1.74967 7.73409 1.56278 8.01697C0.653434 9.3935 0.179249 10.9969 0.191542 12.6544C0.208013 14.8681 1.07837 16.9414 2.64238 18.4935C4.2063 20.0454 6.28629 20.9 8.50016 20.9C13.0815 20.9 16.8089 17.1726 16.8089 12.5912C16.8089 10.9411 15.9992 9.09017 14.575 7.51721C12.7881 5.54364 11.7253 3.80526 11.1476 2.69257L11.2363 2.64649L3.18279 5.75765ZM2.42352 8.58559L2.50695 8.64072L2.42352 8.5856C1.6274 9.79067 1.21232 11.1951 1.22314 12.6467C1.23758 14.5856 1.99968 16.4023 3.36905 17.7612C4.73838 19.1201 6.561 19.8684 8.5002 19.8684C12.5129 19.8684 15.7774 16.604 15.7774 12.5913C15.7774 10.5917 14.3957 8.85615 13.8104 8.20964C11.1994 5.32599 10.0315 2.90286 9.57227 1.73488L9.52584 1.61679L9.42187 1.68954C8.90146 2.05367 8.15064 2.7096 7.64781 3.71522L7.6478 3.71522C7.23251 4.54589 7.15145 5.50267 7.15506 6.1534C7.1605 7.14702 6.45678 8.00991 5.482 8.20489C4.79777 8.34172 4.09528 8.12895 3.60199 7.63567L3.39185 7.42552L3.30875 7.34243L3.24002 7.43775C2.90706 7.89954 2.52083 8.43832 2.42352 8.58559Z" fill="#8245E5" stroke="white" stroke-width="0.2"/>
<path d="M10.9239 10.5478L7.19909 16.0024H6.0761L9.80086 10.5478H10.9239Z" fill="#8245E5" stroke="white" stroke-width="0.2"/>
<path d="M9.16982 14.608C9.16982 14.1292 9.32376 13.7623 9.57071 13.5154C9.81794 13.2682 10.1668 13.1327 10.5724 13.1327C10.9779 13.1327 11.3268 13.2682 11.574 13.5154C11.821 13.7623 11.9749 14.1292 11.9749 14.608C11.9749 15.0909 11.8209 15.4576 11.5742 15.7034C11.3271 15.9495 10.9783 16.0832 10.5724 16.0832C10.1664 16.0832 9.81759 15.9495 9.57056 15.7034C9.32386 15.4576 9.16982 15.0909 9.16982 14.608ZM10.1169 14.6079C10.1169 14.8868 10.1623 15.084 10.2429 15.2148C10.3272 15.3515 10.4478 15.4107 10.5724 15.4107C10.6969 15.4107 10.8175 15.3515 10.9018 15.2148C10.9825 15.084 11.0278 14.8868 11.0278 14.6079C11.0278 14.329 10.9825 14.1318 10.9018 14.0011C10.8175 13.8643 10.6969 13.8051 10.5724 13.8051C10.4478 13.8051 10.3272 13.8643 10.2429 14.0011C10.1623 14.1318 10.1169 14.329 10.1169 14.6079Z" fill="#8245E5" stroke="white" stroke-width="0.2"/>
<path d="M6.42832 10.4672C6.83389 10.4672 7.18276 10.6027 7.42999 10.8499C7.67693 11.0968 7.83086 11.4637 7.83086 11.9424C7.83086 12.4253 7.67682 12.792 7.43013 13.0378C7.18309 13.2839 6.83428 13.4176 6.42832 13.4176C6.02236 13.4176 5.67355 13.2839 5.42652 13.0378C5.17982 12.792 5.02578 12.4253 5.02578 11.9424C5.02578 11.4637 5.17971 11.0968 5.42665 10.8499C5.67388 10.6027 6.02275 10.4672 6.42832 10.4672ZM6.42832 11.1396C6.30378 11.1396 6.18318 11.1988 6.09885 11.3355C6.01821 11.4663 5.97289 11.6635 5.97289 11.9424C5.97289 12.2213 6.01821 12.4185 6.09885 12.5493C6.18318 12.686 6.30378 12.7452 6.42832 12.7452C6.55286 12.7452 6.67346 12.686 6.75779 12.5493C6.83843 12.4185 6.88375 12.2213 6.88375 11.9424C6.88375 11.6635 6.83843 11.4663 6.75779 11.3355C6.67346 11.1988 6.55286 11.1396 6.42832 11.1396Z" fill="#8245E5" stroke="white" stroke-width="0.2"/>
</svg>
