<svg width="22" height="22" viewBox="0 0 22 22" fill="none" xmlns="http://www.w3.org/2000/svg">
<g clip-path="url(#clip0)">
<path d="M12.3752 21.9997H9.62516C8.9835 21.9997 8.25016 21.4497 8.25016 20.3497V18.4247C8.25016 17.508 7.79183 16.683 7.0585 16.0413C5.4085 14.758 4.5835 12.9247 4.5835 10.908C4.67516 7.42467 7.51683 4.67467 10.9085 4.58301C12.6502 4.58301 14.3002 5.22467 15.4918 6.41634C16.6835 7.60801 17.4168 9.25801 17.4168 10.9997C17.4168 12.9247 16.5918 14.758 15.0335 15.9497C14.2085 16.5913 13.7502 17.5997 13.7502 18.5163V20.6247C13.7502 21.358 13.1085 21.9997 12.3752 21.9997ZM11.0002 5.49967C8.06683 5.49967 5.59183 7.97467 5.50016 10.908C5.50016 12.6497 6.2335 14.2997 7.6085 15.308C8.61683 16.133 9.16683 17.233 9.16683 18.4247V20.3497C9.16683 20.533 9.16683 21.083 9.62516 21.083H12.3752C12.6502 21.083 12.8335 20.8997 12.8335 20.6247V18.5163C12.8335 17.3247 13.4752 16.0413 14.4835 15.2163C15.7668 14.208 16.5002 12.6497 16.5002 10.9997C16.5002 9.53301 15.9502 8.15801 14.8502 7.05801C13.8418 6.04967 12.4668 5.49967 11.0002 5.49967Z" fill="#8245E5"/>
<path d="M13.2917 19.2497H8.70833C8.43333 19.2497 8.25 19.0663 8.25 18.7913C8.25 18.5163 8.43333 18.333 8.70833 18.333H13.2917C13.5667 18.333 13.75 18.5163 13.75 18.7913C13.75 19.0663 13.5667 19.2497 13.2917 19.2497Z" fill="#8245E5"/>
<path d="M11.0003 2.75C10.7253 2.75 10.542 2.56667 10.542 2.29167V0.458333C10.542 0.183333 10.7253 0 11.0003 0C11.2753 0 11.4587 0.183333 11.4587 0.458333V2.29167C11.4587 2.56667 11.2753 2.75 11.0003 2.75Z" fill="#8245E5"/>
<path d="M17.1419 5.31628C17.0502 5.31628 16.8669 5.31628 16.7752 5.22461C16.5919 5.04128 16.5919 4.76628 16.7752 4.58294L18.0585 3.29961C18.2419 3.11628 18.5169 3.11628 18.7002 3.29961C18.8835 3.48294 18.8835 3.75794 18.7002 3.94128L17.4169 5.22461C17.4169 5.22461 17.2335 5.31628 17.1419 5.31628Z" fill="#8245E5"/>
<path d="M21.5417 11.4587H19.7083C19.4333 11.4587 19.25 11.2753 19.25 11.0003C19.25 10.7253 19.4333 10.542 19.7083 10.542H21.5417C21.8167 10.542 22 10.7253 22 11.0003C22 11.2753 21.8167 11.4587 21.5417 11.4587Z" fill="#8245E5"/>
<path d="M18.4252 18.8837C18.3335 18.8837 18.1502 18.8837 18.0585 18.792L16.7752 17.5087C16.5919 17.3253 16.5919 17.0503 16.7752 16.867C16.9585 16.6837 17.2335 16.6837 17.4169 16.867L18.7002 18.1503C18.8835 18.3337 18.8835 18.6087 18.7002 18.792C18.7002 18.8837 18.6085 18.8837 18.4252 18.8837Z" fill="#8245E5"/>
<path d="M3.57497 18.8837C3.4833 18.8837 3.29997 18.8837 3.2083 18.792C3.02497 18.6087 3.02497 18.3337 3.2083 18.1503L4.49163 16.867C4.67497 16.6837 4.94997 16.6837 5.1333 16.867C5.31663 17.0503 5.31663 17.3253 5.1333 17.5087L3.84997 18.792C3.7583 18.8837 3.66663 18.8837 3.57497 18.8837Z" fill="#8245E5"/>
<path d="M2.29167 11.4587H0.458333C0.183333 11.4587 0 11.2753 0 11.0003C0 10.7253 0.183333 10.542 0.458333 10.542H2.29167C2.56667 10.542 2.75 10.7253 2.75 11.0003C2.75 11.2753 2.56667 11.4587 2.29167 11.4587Z" fill="#8245E5"/>
<path d="M4.8583 5.31663C4.76663 5.31663 4.5833 5.31663 4.49163 5.22497L3.2083 3.84997C3.02497 3.66663 3.02497 3.39163 3.2083 3.2083C3.39163 3.02497 3.66663 3.02497 3.84997 3.2083L5.1333 4.49163C5.31663 4.67497 5.31663 4.94997 5.1333 5.1333C5.04163 5.22497 4.94997 5.31663 4.8583 5.31663Z" fill="#8245E5"/>
<path d="M14.667 11.4583C14.392 11.4583 14.2087 11.275 14.2087 11C14.2087 9.25833 12.742 7.79167 11.0003 7.79167C10.7253 7.79167 10.542 7.60833 10.542 7.33333C10.542 7.05833 10.7253 6.875 11.0003 6.875C13.292 6.875 15.1253 8.70833 15.1253 11C15.1253 11.275 14.942 11.4583 14.667 11.4583Z" fill="#8245E5"/>
</g>
<defs>
<clipPath id="clip0">
<rect width="22" height="22" fill="white"/>
</clipPath>
</defs>
</svg>
