<svg width="18" height="18" viewBox="0 0 18 18" fill="none" xmlns="http://www.w3.org/2000/svg">
<g clip-path="url(#clip0)">
<mask id="path-1-inside-1" fill="white">
<path d="M16.0836 6.03608C16.4339 5.61983 16.6455 5.08321 16.6455 4.49789C16.6455 3.17851 15.5721 2.10512 14.2527 2.10512C12.9333 2.10512 11.8599 3.17851 11.8599 4.49789C11.8599 4.51185 11.8607 4.52563 11.8609 4.53952C11.5887 4.37498 11.2704 4.28013 10.9305 4.28013H10.4666C11.0287 3.84191 11.3913 3.15907 11.3913 2.39277C11.3913 1.07339 10.3179 0 8.99856 0C7.67918 0 6.60579 1.07339 6.60579 2.39277C6.60579 3.15907 6.96832 3.84191 7.5304 4.28013H7.06655C6.72785 4.28013 6.41067 4.37435 6.13906 4.53783C6.13927 4.52447 6.14007 4.51129 6.14007 4.49789C6.14007 3.17851 5.06668 2.10512 3.7473 2.10512C2.42793 2.10512 1.35457 3.17851 1.35457 4.49786C1.35457 5.08317 1.56614 5.6198 1.91644 6.03605C1.00877 6.07152 0.28125 6.81525 0.28125 7.72488V11.5634C0.28125 12.2148 0.654574 12.781 1.19974 13.0631L1.68462 17.5296C1.71369 17.7972 1.93968 18 2.2089 18H5.28574C5.55497 18 5.78095 17.7972 5.80999 17.5296L6.29497 13.0624C6.33962 13.0393 6.38322 13.0143 6.42558 12.9875L6.93605 17.5315C6.96604 17.7983 7.19163 18 7.46009 18H10.5369C10.8055 18 11.0311 17.7983 11.061 17.5314L11.5711 12.9833C11.6145 13.011 11.659 13.037 11.7048 13.0608L12.19 17.5296C12.219 17.7973 12.445 18 12.7142 18H15.7911C16.0603 18 16.2863 17.7973 16.3153 17.5296L16.8002 13.0632C17.3454 12.7811 17.7187 12.2149 17.7187 11.5635V7.72488C17.7188 6.81525 16.9912 6.07148 16.0836 6.03608ZM8.99856 1.05469C9.73635 1.05469 10.3366 1.65495 10.3366 2.39277C10.3366 3.13059 9.73638 3.73085 8.99856 3.73085C8.26074 3.73085 7.66048 3.13059 7.66048 2.39277C7.66048 1.65495 8.26074 1.05469 8.99856 1.05469ZM16.6641 7.72488V11.5634C16.6641 11.914 16.3733 12.1992 16.0159 12.1992H12.4894C12.2709 12.1992 12.0718 12.0891 11.9534 11.9188C12.4314 11.5889 12.7458 11.0349 12.7458 10.4081V7.08901H16.0159C16.3733 7.08905 16.6641 7.37427 16.6641 7.72488ZM14.2527 3.15977C14.9905 3.15977 15.5908 3.76003 15.5908 4.49786C15.5908 5.23568 14.9905 5.83594 14.2527 5.83594C13.5149 5.83594 12.9146 5.23568 12.9146 4.49786C12.9146 3.76003 13.5149 3.15977 14.2527 3.15977ZM9.36468 7.2732L8.99856 7.74763L8.63241 7.2732L8.99856 6.33734L9.36468 7.2732ZM6.30594 6.10995C6.30594 5.68252 6.64717 5.33482 7.06658 5.33482H8.25827L7.54151 7.16695C7.47404 7.33943 7.50196 7.53462 7.61513 7.68125L8.58111 8.93299C8.68096 9.0624 8.83515 9.13816 8.9986 9.13816C9.162 9.13816 9.31623 9.06237 9.41607 8.93299L10.3821 7.68125C10.4952 7.53465 10.5232 7.33943 10.4557 7.16695L9.73892 5.33482H10.9306C11.35 5.33482 11.6912 5.68255 11.6912 6.10995V10.4081C11.6912 10.8356 11.35 11.1833 10.9306 11.1833H7.06655C6.64713 11.1833 6.30591 10.8355 6.30591 10.4081V6.10995H6.30594ZM3.7473 3.15977C4.48513 3.15977 5.08539 3.76003 5.08539 4.49786C5.08539 5.23568 4.48513 5.83594 3.7473 5.83594C3.00948 5.83594 2.40926 5.23568 2.40926 4.49786C2.40926 3.76003 3.00952 3.15977 3.7473 3.15977ZM1.33594 7.72488C1.33594 7.37427 1.62672 7.08905 1.98408 7.08905H5.25125V10.4081C5.25125 11.0359 5.56657 11.5907 6.04582 11.9204C5.92671 12.0916 5.72766 12.1993 5.51057 12.1993H1.98408C1.62672 12.1992 1.33594 11.914 1.33594 11.5634V7.72488ZM2.68207 16.9453L2.28132 13.2539H5.21332L4.81254 16.9453H2.68207ZM10.0655 16.9453H7.93157L7.40275 12.238H10.5935L10.0655 16.9453ZM13.1875 16.9453L12.7867 13.2539H15.7187L15.3179 16.9453H13.1875Z"/>
</mask>
<path d="M16.0836 6.03608C16.4339 5.61983 16.6455 5.08321 16.6455 4.49789C16.6455 3.17851 15.5721 2.10512 14.2527 2.10512C12.9333 2.10512 11.8599 3.17851 11.8599 4.49789C11.8599 4.51185 11.8607 4.52563 11.8609 4.53952C11.5887 4.37498 11.2704 4.28013 10.9305 4.28013H10.4666C11.0287 3.84191 11.3913 3.15907 11.3913 2.39277C11.3913 1.07339 10.3179 0 8.99856 0C7.67918 0 6.60579 1.07339 6.60579 2.39277C6.60579 3.15907 6.96832 3.84191 7.5304 4.28013H7.06655C6.72785 4.28013 6.41067 4.37435 6.13906 4.53783C6.13927 4.52447 6.14007 4.51129 6.14007 4.49789C6.14007 3.17851 5.06668 2.10512 3.7473 2.10512C2.42793 2.10512 1.35457 3.17851 1.35457 4.49786C1.35457 5.08317 1.56614 5.6198 1.91644 6.03605C1.00877 6.07152 0.28125 6.81525 0.28125 7.72488V11.5634C0.28125 12.2148 0.654574 12.781 1.19974 13.0631L1.68462 17.5296C1.71369 17.7972 1.93968 18 2.2089 18H5.28574C5.55497 18 5.78095 17.7972 5.80999 17.5296L6.29497 13.0624C6.33962 13.0393 6.38322 13.0143 6.42558 12.9875L6.93605 17.5315C6.96604 17.7983 7.19163 18 7.46009 18H10.5369C10.8055 18 11.0311 17.7983 11.061 17.5314L11.5711 12.9833C11.6145 13.011 11.659 13.037 11.7048 13.0608L12.19 17.5296C12.219 17.7973 12.445 18 12.7142 18H15.7911C16.0603 18 16.2863 17.7973 16.3153 17.5296L16.8002 13.0632C17.3454 12.7811 17.7187 12.2149 17.7187 11.5635V7.72488C17.7188 6.81525 16.9912 6.07148 16.0836 6.03608ZM8.99856 1.05469C9.73635 1.05469 10.3366 1.65495 10.3366 2.39277C10.3366 3.13059 9.73638 3.73085 8.99856 3.73085C8.26074 3.73085 7.66048 3.13059 7.66048 2.39277C7.66048 1.65495 8.26074 1.05469 8.99856 1.05469ZM16.6641 7.72488V11.5634C16.6641 11.914 16.3733 12.1992 16.0159 12.1992H12.4894C12.2709 12.1992 12.0718 12.0891 11.9534 11.9188C12.4314 11.5889 12.7458 11.0349 12.7458 10.4081V7.08901H16.0159C16.3733 7.08905 16.6641 7.37427 16.6641 7.72488ZM14.2527 3.15977C14.9905 3.15977 15.5908 3.76003 15.5908 4.49786C15.5908 5.23568 14.9905 5.83594 14.2527 5.83594C13.5149 5.83594 12.9146 5.23568 12.9146 4.49786C12.9146 3.76003 13.5149 3.15977 14.2527 3.15977ZM9.36468 7.2732L8.99856 7.74763L8.63241 7.2732L8.99856 6.33734L9.36468 7.2732ZM6.30594 6.10995C6.30594 5.68252 6.64717 5.33482 7.06658 5.33482H8.25827L7.54151 7.16695C7.47404 7.33943 7.50196 7.53462 7.61513 7.68125L8.58111 8.93299C8.68096 9.0624 8.83515 9.13816 8.9986 9.13816C9.162 9.13816 9.31623 9.06237 9.41607 8.93299L10.3821 7.68125C10.4952 7.53465 10.5232 7.33943 10.4557 7.16695L9.73892 5.33482H10.9306C11.35 5.33482 11.6912 5.68255 11.6912 6.10995V10.4081C11.6912 10.8356 11.35 11.1833 10.9306 11.1833H7.06655C6.64713 11.1833 6.30591 10.8355 6.30591 10.4081V6.10995H6.30594ZM3.7473 3.15977C4.48513 3.15977 5.08539 3.76003 5.08539 4.49786C5.08539 5.23568 4.48513 5.83594 3.7473 5.83594C3.00948 5.83594 2.40926 5.23568 2.40926 4.49786C2.40926 3.76003 3.00952 3.15977 3.7473 3.15977ZM1.33594 7.72488C1.33594 7.37427 1.62672 7.08905 1.98408 7.08905H5.25125V10.4081C5.25125 11.0359 5.56657 11.5907 6.04582 11.9204C5.92671 12.0916 5.72766 12.1993 5.51057 12.1993H1.98408C1.62672 12.1992 1.33594 11.914 1.33594 11.5634V7.72488ZM2.68207 16.9453L2.28132 13.2539H5.21332L4.81254 16.9453H2.68207ZM10.0655 16.9453H7.93157L7.40275 12.238H10.5935L10.0655 16.9453ZM13.1875 16.9453L12.7867 13.2539H15.7187L15.3179 16.9453H13.1875Z" fill="#8245E5" stroke="white" stroke-width="0.4" mask="url(#path-1-inside-1)"/>
</g>
<defs>
<clipPath id="clip0">
<rect width="18" height="18" fill="white"/>
</clipPath>
</defs>
</svg>
