<svg width="19" height="19" viewBox="0 0 19 19" fill="none" xmlns="http://www.w3.org/2000/svg">
<path d="M18.1094 11.875C18.1881 11.875 18.2636 11.8437 18.3193 11.788C18.375 11.7324 18.4062 11.6569 18.4062 11.5781V10.3906C18.4062 10.3119 18.375 10.2364 18.3193 10.1807C18.2636 10.125 18.1881 10.0938 18.1094 10.0938H16.8038C16.4285 10.0934 16.0587 10.0036 15.725 9.83187C15.3913 9.66014 15.1034 9.41139 14.8849 9.10622C14.5788 8.67851 14.1505 8.35336 13.6562 8.17345V7.42188C13.6562 7.34314 13.625 7.26763 13.5693 7.21195C13.5136 7.15628 13.4381 7.125 13.3594 7.125H12.1719C12.0931 7.125 12.0176 7.15628 11.962 7.21195C11.9063 7.26763 11.875 7.34314 11.875 7.42188V8.17345C11.3807 8.35336 10.9524 8.67853 10.6463 9.10626C10.4279 9.41141 10.1399 9.66015 9.80621 9.83187C9.47252 10.0036 9.10273 10.0934 8.72744 10.0938H7.42188C7.34314 10.0938 7.26763 10.125 7.21195 10.1807C7.15628 10.2364 7.125 10.3119 7.125 10.3906V11.5781C7.125 11.6569 7.15628 11.7324 7.21195 11.788C7.26763 11.8437 7.34314 11.875 7.42188 11.875H8.42589L7.83214 13.0625H7.42188C7.34314 13.0625 7.26763 13.0938 7.21195 13.1495C7.15628 13.2051 7.125 13.2806 7.125 13.3594V13.5078C7.125 14.0196 7.32831 14.5104 7.69019 14.8723C8.05208 15.2342 8.5429 15.4375 9.05469 15.4375C9.56647 15.4375 10.0573 15.2342 10.4192 14.8723C10.7811 14.5104 10.9844 14.0196 10.9844 13.5078V13.3594C10.9844 13.2806 10.9531 13.2051 10.8974 13.1495C10.8417 13.0938 10.7662 13.0625 10.6875 13.0625H10.2772L9.68348 11.875H10.6875C10.7413 11.875 10.7941 11.8604 10.8403 11.8327L11.8155 11.2475C11.8351 11.2358 11.855 11.2244 11.875 11.2134V15.9414L11.4193 16.625H10.3906C10.3355 16.625 10.2815 16.6403 10.2346 16.6693C10.1877 16.6983 10.1498 16.7398 10.1251 16.7891L9.53135 17.9766C9.50871 18.0219 9.49803 18.0722 9.5003 18.1227C9.50257 18.1733 9.51773 18.2224 9.54433 18.2654C9.57094 18.3085 9.6081 18.344 9.6523 18.3687C9.6965 18.3933 9.74627 18.4062 9.79688 18.4062H15.7344C15.785 18.4062 15.8347 18.3933 15.8789 18.3687C15.9231 18.344 15.9603 18.3085 15.9869 18.2654C16.0135 18.2224 16.0287 18.1733 16.031 18.1227C16.0332 18.0722 16.0225 18.0219 15.9999 17.9766L15.4062 16.7891C15.3815 16.7398 15.3436 16.6983 15.2967 16.6693C15.2498 16.6403 15.1958 16.625 15.1406 16.625H14.112L13.6562 15.9414V11.2134C13.6763 11.2245 13.6961 11.2358 13.7158 11.2475L14.691 11.8327C14.7371 11.8604 14.7899 11.875 14.8438 11.875H15.8478L15.254 13.0625H14.8438C14.765 13.0625 14.6895 13.0938 14.6338 13.1495C14.5782 13.2051 14.5469 13.2806 14.5469 13.3594V13.5078C14.5469 14.0196 14.7502 14.5104 15.1121 14.8723C15.474 15.2342 15.9648 15.4375 16.4766 15.4375C16.9883 15.4375 17.4792 15.2342 17.8411 14.8723C18.2029 14.5104 18.4062 14.0196 18.4062 13.5078V13.3594C18.4062 13.2806 18.375 13.2051 18.3193 13.1495C18.2636 13.0938 18.1881 13.0625 18.1094 13.0625H17.6991L17.1054 11.875H18.1094ZM12.4688 7.71875H13.0625V8.03288C12.8653 8.00988 12.666 8.00988 12.4688 8.03288V7.71875ZM9.05469 14.8438C8.72619 14.8433 8.40932 14.7221 8.16446 14.5031C7.9196 14.2841 7.76387 13.9827 7.72694 13.6562H10.3824C10.3455 13.9827 10.1898 14.2841 9.94491 14.5031C9.70006 14.7221 9.38319 14.8433 9.05469 14.8438ZM8.49598 13.0625L9.05469 11.9451L9.61339 13.0625H8.49598ZM15.254 17.8125H10.2772L10.5741 17.2188H14.9571L15.254 17.8125ZM13.1124 16.1959L13.3984 16.625H12.1328L12.4189 16.1959C12.4514 16.1472 12.4688 16.0899 12.4688 16.0312V11.0086C12.6653 10.9763 12.8659 10.9763 13.0625 11.0086V16.0312C13.0625 16.0899 13.0798 16.1472 13.1124 16.1959ZM14.0213 10.7384H14.0212C13.6419 10.5108 13.2079 10.3906 12.7656 10.3906C12.3233 10.3906 11.8893 10.5108 11.51 10.7384L10.6053 11.2812H7.71875V10.6875H8.72744C9.19722 10.687 9.66012 10.5747 10.0778 10.3597C10.4955 10.1447 10.856 9.83336 11.1295 9.45137C11.3155 9.19094 11.561 8.97867 11.8456 8.83223C12.1302 8.68578 12.4456 8.60938 12.7656 8.60937C13.0857 8.60937 13.4011 8.68577 13.6857 8.83221C13.9702 8.97865 14.2157 9.1909 14.4018 9.45133C14.6752 9.83333 15.0357 10.1447 15.4534 10.3597C15.8711 10.5746 16.334 10.687 16.8038 10.6875H17.8125V11.2812H14.926L14.0213 10.7384ZM16.4766 14.8438C16.1481 14.8433 15.8312 14.7221 15.5863 14.5031C15.3415 14.2841 15.1857 13.9827 15.1488 13.6562H17.8043C17.7674 13.9827 17.6116 14.2841 17.3668 14.5031C17.1219 14.7221 16.8051 14.8433 16.4766 14.8438ZM15.9179 13.0625L16.4766 11.9451L17.0353 13.0625H15.9179Z" fill="#8245E5"/>
<path d="M12.7656 10.0938C13.0935 10.0938 13.3594 9.82792 13.3594 9.5C13.3594 9.17208 13.0935 8.90625 12.7656 8.90625C12.4377 8.90625 12.1719 9.17208 12.1719 9.5C12.1719 9.82792 12.4377 10.0938 12.7656 10.0938Z" fill="#8245E5"/>
<path d="M5.64062 4.26562C5.64062 4.10167 5.77354 3.96875 5.9375 3.96875H8.3125C8.47646 3.96875 8.60938 4.10167 8.60938 4.26562C8.60938 4.42958 8.47646 4.5625 8.3125 4.5625H5.9375C5.77354 4.5625 5.64062 4.42958 5.64062 4.26562Z" fill="#8245E5"/>
<path d="M2.5 4.26562C2.5 4.10167 2.63292 3.96875 2.79688 3.96875H4.45312C4.61708 3.96875 4.75 4.10167 4.75 4.26562C4.75 4.42958 4.61708 4.5625 4.45312 4.5625H2.79687C2.63292 4.5625 2.5 4.42958 2.5 4.26562Z" fill="#8245E5"/>
<path d="M7.42188 7.42188C7.42188 7.25792 7.55479 7.125 7.71875 7.125H10.9844C11.1483 7.125 11.2812 7.25792 11.2812 7.42188C11.2812 7.58583 11.1483 7.71875 10.9844 7.71875H7.71875C7.55479 7.71875 7.42188 7.58583 7.42188 7.42188Z" fill="#8245E5"/>
<path d="M2.5 7.42188C2.5 7.25792 2.63292 7.125 2.79688 7.125L6.53125 7.125C6.69521 7.125 6.82812 7.25792 6.82812 7.42188C6.82812 7.58583 6.69521 7.71875 6.53125 7.71875H2.79688C2.63292 7.71875 2.5 7.58583 2.5 7.42188Z" fill="#8245E5"/>
<path d="M2.5 10.5781C2.5 10.4142 2.63292 10.2812 2.79688 10.2812H6.23438C6.39833 10.2812 6.53125 10.4142 6.53125 10.5781C6.53125 10.7421 6.39833 10.875 6.23438 10.875H2.79687C2.63292 10.875 2.5 10.7421 2.5 10.5781Z" fill="#8245E5"/>
<path d="M2.5 13.7344C2.5 13.5704 2.63292 13.4375 2.79688 13.4375L6.20312 13.4375C6.36708 13.4375 6.5 13.5704 6.5 13.7344C6.5 13.8983 6.36708 14.0312 6.20312 14.0312H2.79688C2.63292 14.0312 2.5 13.8983 2.5 13.7344Z" fill="#8245E5"/>
<path d="M1.48438 18.4063H8.90625V17.8125H1.48438C1.40567 17.8124 1.33021 17.7811 1.27455 17.7255C1.2189 17.6698 1.18759 17.5943 1.1875 17.5156V1.48438C1.18759 1.40567 1.2189 1.33021 1.27455 1.27456C1.33021 1.2189 1.40567 1.1876 1.48438 1.18751H9.60187C9.66746 1.18755 9.73285 1.19478 9.79688 1.20906V4.15626C9.79732 4.5498 9.95385 4.9271 10.2321 5.20537C10.5104 5.48365 10.8877 5.64018 11.2812 5.64063H13.0625V5.04688H11.2812C11.0451 5.04661 10.8187 4.95269 10.6518 4.78573C10.4848 4.61876 10.3909 4.39238 10.3906 4.15626V1.60738L13.9891 5.20583C14.0721 5.28835 14.1379 5.3865 14.1826 5.49461C14.2274 5.60271 14.2503 5.71862 14.25 5.83564V8.01563H14.8438V5.83564C14.8443 5.64062 14.8061 5.44744 14.7315 5.26727C14.6569 5.0871 14.5472 4.92352 14.409 4.78599L10.6515 1.02856C10.514 0.890274 10.3504 0.78064 10.1702 0.706005C9.99007 0.631371 9.79689 0.593218 9.60187 0.593756H1.48438C1.24825 0.594026 1.02187 0.687946 0.854906 0.854912C0.68794 1.02188 0.59402 1.24826 0.59375 1.48438V17.5156C0.59402 17.7518 0.68794 17.9781 0.854906 18.1451C1.02187 18.3121 1.24825 18.406 1.48438 18.4063Z" fill="#8245E5"/>
</svg>
