<svg width="20" height="16" viewBox="0 0 20 16" fill="none" xmlns="http://www.w3.org/2000/svg">
<g clip-path="url(#clip0)">
<path d="M19.7891 6.72668L16.4165 5.29711C15.1451 4.69214 13.5021 3.04977 13.4858 3.03325C13.4065 2.95374 13.2931 2.91776 13.182 2.93652C13.071 2.95572 12.9765 3.02768 12.9285 3.12979C12.3634 4.32826 10.7196 4.68356 10.6815 4.69214L0.254037 7.55872C0.119856 7.59585 0.0209492 7.7091 0.00302428 7.84667C-0.0153488 7.98437 0.0511655 8.11977 0.170622 8.19L5.74713 11.4613C5.80065 11.4927 5.86109 11.5089 5.92203 11.5089C5.95513 11.5089 5.98874 11.5041 6.02126 11.4943L19.7532 7.3755C19.893 7.3337 19.9912 7.20886 19.999 7.06342C20.0071 6.91797 19.9231 6.7834 19.7891 6.72668ZM5.96697 10.7891L1.22717 8.00851L10.8425 5.36432C10.9158 5.34947 12.4886 5.01402 13.3174 3.83149C13.8819 4.36219 15.086 5.43001 16.1332 5.92774L18.6371 6.98896L5.96697 10.7891Z" fill="#8245E5"/>
<path d="M19.5551 8.09631L5.9673 12.1719L0.520615 8.97681C0.356346 8.88008 0.144192 8.93545 0.0476529 9.09985C-0.0490777 9.26438 0.00616954 9.4764 0.170695 9.57281L5.87722 12.9204L19.7533 8.75838C19.9363 8.70352 20.0402 8.51089 19.9852 8.32793C19.9305 8.14548 19.7377 8.04247 19.5551 8.09631Z" fill="#8245E5"/>
</g>
<defs>
<clipPath id="clip0">
<rect width="20" height="16" fill="white"/>
</clipPath>
</defs>
</svg>
