<svg width="18" height="20" viewBox="0 0 18 20" fill="none" xmlns="http://www.w3.org/2000/svg">
<path d="M17.3963 7.50678L16.1101 6.22V3.67012C16.1101 2.80847 15.4091 2.10745 14.5474 2.10745H12.0003L10.0089 0.114934C9.93568 0.0416842 9.83633 0.0004688 9.73272 0.000429734L8.27737 0C8.27733 0 8.27729 0 8.27726 0C8.17369 0 8.07434 0.0411372 8.00109 0.114348L6.00674 2.10749H3.45248C2.59082 2.10749 1.88981 2.8085 1.88981 3.67016V6.22411L0.604438 7.50651C0.224124 7.88663 0.0146484 8.39211 0.0146484 8.92986V17.9877C0.0146484 18.5297 0.230453 19.022 0.580178 19.3842C0.587718 19.3932 0.59557 19.4021 0.604048 19.4106C0.612486 19.419 0.621315 19.4268 0.630301 19.4343C0.992488 19.7841 1.48485 20 2.02697 20H7.24199C7.45775 20 7.63265 19.8251 7.63265 19.6093C7.63265 19.3936 7.45775 19.2187 7.24199 19.2187H2.02694C1.82977 19.2187 1.64346 19.1718 1.47805 19.089L6.0828 14.4843L7.58195 15.9825C7.96199 16.3624 8.46712 16.5715 9.0044 16.5715H9.00503C9.54255 16.5714 10.0478 16.3619 10.4278 15.9817L11.9207 14.4878L16.5219 19.089C16.3565 19.1718 16.1701 19.2187 15.973 19.2187H10.758C10.5422 19.2187 10.3673 19.3936 10.3673 19.6093C10.3673 19.8251 10.5422 20 10.758 20H15.973C16.5151 20 17.0075 19.7842 17.3696 19.4344C17.3787 19.4269 17.3875 19.419 17.396 19.4106C17.4045 19.4021 17.4123 19.3932 17.4199 19.3842C17.7696 19.022 17.9854 18.5297 17.9854 17.9877V8.92928C17.9853 8.39203 17.7762 7.88686 17.3963 7.50678ZM16.1101 7.3252L16.8437 8.05911C16.9114 8.12689 16.97 8.20135 17.0194 8.28073L16.1101 9.1906V7.3252ZM8.43895 0.781373L9.57068 0.781764L10.8956 2.10749H7.11201L8.43895 0.781373ZM1.15653 8.05942L1.88985 7.32778V9.18931L0.980807 8.28085C1.03023 8.20151 1.08883 8.12708 1.15653 8.05942ZM0.925567 18.5366C0.842823 18.3712 0.795982 18.1849 0.795982 17.9877V9.20071L5.53016 13.932L0.925567 18.5366ZM9.87516 15.4294C9.64271 15.662 9.33366 15.7901 9.00483 15.7902C9.00472 15.7902 9.0046 15.7902 9.00448 15.7902C8.67581 15.7902 8.3668 15.6622 8.13431 15.4299L2.67118 9.97013V3.67012C2.67118 3.23929 3.02169 2.88879 3.45252 2.88879H14.5475C14.9783 2.88879 15.3288 3.23929 15.3288 3.67012V6.33189C15.3251 6.36295 15.3251 6.39428 15.3288 6.42534V9.97236L9.87516 15.4294ZM17.204 17.9877C17.204 18.1849 17.1572 18.3712 17.0744 18.5366L12.4731 13.9352L17.204 9.20138V17.9877Z" fill="#8245E5"/>
<path d="M9.00004 19.2183C8.8973 19.2183 8.7965 19.2601 8.72384 19.3327C8.65118 19.4054 8.60938 19.5062 8.60938 19.6089C8.60938 19.7117 8.65118 19.8125 8.72384 19.8851C8.7965 19.9582 8.8973 19.9996 9.00004 19.9996C9.10279 19.9996 9.20358 19.9582 9.27624 19.8851C9.34891 19.8125 9.39071 19.7117 9.39071 19.6089C9.39071 19.5062 9.34891 19.4054 9.27624 19.3327C9.20358 19.2601 9.10279 19.2183 9.00004 19.2183Z" fill="#8245E5"/>
<path d="M9.00008 4.52734C6.96619 4.52734 5.31152 6.18197 5.31152 8.21586C5.31152 10.2776 6.98885 11.9549 9.05056 11.9549H11.425C11.6408 11.9549 11.8157 11.78 11.8157 11.5642C11.8157 11.3485 11.6408 11.1736 11.425 11.1736H9.05056C7.41968 11.1736 6.09286 9.84674 6.09286 8.21586C6.09286 6.61284 7.39702 5.30868 9.00008 5.30868C10.6031 5.30868 11.9073 6.61284 11.9073 8.21586V9.01646C11.9073 9.32415 11.657 9.57445 11.3493 9.57445C11.0416 9.57445 10.7913 9.32415 10.7913 9.01646V8.11218C10.7913 7.04257 9.92108 6.1724 8.85147 6.1724C7.72674 6.1724 6.81176 7.08742 6.81176 8.21215C6.81176 9.33684 7.72678 10.2519 8.85147 10.2519H9.47295C9.68871 10.2519 9.86361 10.0769 9.86361 9.8612C9.86361 9.64547 9.68871 9.47053 9.47295 9.47053H8.85147C8.15761 9.47053 7.5931 8.90602 7.5931 8.21211C7.5931 7.51825 8.15761 6.95374 8.85147 6.95374C9.49025 6.95374 10.0099 7.47344 10.0099 8.11218V9.01646C10.0099 9.75498 10.6107 10.3558 11.3493 10.3558C12.0878 10.3558 12.6886 9.75498 12.6886 9.01646V8.21586C12.6886 6.18197 11.0339 4.52734 9.00008 4.52734Z" fill="#8245E5"/>
</svg>
