<svg width="288" height="288" viewBox="0 0 288 288" fill="none" xmlns="http://www.w3.org/2000/svg">
<g clip-path="url(#clip0)">
<path d="M192.349 184.701C185.525 184.701 179.974 179.896 179.974 173.99C179.974 168.084 185.525 163.279 192.349 163.279C199.172 163.279 204.724 168.084 204.724 173.99C204.724 177.097 207.243 179.615 210.349 179.615C213.455 179.615 215.974 177.097 215.974 173.99C215.974 163.683 208.293 155.016 197.974 152.663V149.738C197.974 146.632 195.455 144.113 192.349 144.113C189.243 144.113 186.724 146.632 186.724 149.738V152.663C176.404 155.016 168.724 163.683 168.724 173.99C168.724 186.099 179.322 195.951 192.349 195.951C199.172 195.951 204.724 200.756 204.724 206.662C204.724 212.568 199.172 217.373 192.349 217.373C185.525 217.373 179.974 212.568 179.974 206.662C179.974 203.556 177.455 201.037 174.349 201.037C171.243 201.037 168.724 203.556 168.724 206.662C168.724 216.97 176.404 225.637 186.724 227.989V230.419C186.724 233.525 189.243 236.044 192.349 236.044C195.455 236.044 197.974 233.525 197.974 230.419V227.989C208.293 225.637 215.974 216.97 215.974 206.662C215.974 194.553 205.376 184.701 192.349 184.701ZM253.958 151.242C246.61 139.793 236.258 130.631 224.021 124.748C221.22 123.402 217.859 124.581 216.514 127.381C215.168 130.181 216.346 133.541 219.146 134.887C240.471 145.138 254.25 167.041 254.25 190.688C254.25 200.806 251.755 210.84 247.038 219.708C245.579 222.45 246.619 225.856 249.361 227.315C250.203 227.763 251.107 227.976 251.998 227.976C254.011 227.976 255.958 226.892 256.969 224.992C262.55 214.504 265.5 202.642 265.5 190.688C265.5 176.648 261.509 163.008 253.958 151.242ZM201.191 117.563L200.812 117.563C197.706 117.563 195.187 120.081 195.187 123.188C195.187 126.295 197.706 128.813 200.812 128.813L201.138 128.813C201.147 128.813 201.155 128.813 201.165 128.813C204.259 128.813 206.775 126.313 206.789 123.215C206.803 120.108 204.297 117.578 201.191 117.563ZM165.604 246.488C144.279 236.237 130.501 214.333 130.501 190.688C130.501 180.569 132.995 170.535 137.713 161.668C139.172 158.926 138.132 155.519 135.389 154.06C132.647 152.601 129.24 153.641 127.781 156.384C122.201 166.871 119.251 178.733 119.251 190.688C119.251 204.728 123.242 218.367 130.792 230.133C138.14 241.583 148.492 250.745 160.73 256.628C161.515 257.006 162.346 257.184 163.163 257.184C165.258 257.184 167.268 256.009 168.237 253.995C169.582 251.195 168.404 247.834 165.604 246.488ZM183.938 252.563L183.613 252.561C180.492 252.556 177.976 255.053 177.962 258.16C177.948 261.267 180.455 263.797 183.561 263.811L183.938 263.813C187.044 263.813 189.563 261.294 189.563 258.188C189.563 255.081 187.044 252.563 183.938 252.563Z" fill="#8245E5"/>
<path d="M217.917 98.5318C217.233 96.9006 216.394 95.3632 215.418 93.9373H230.062C244.329 93.9373 255.937 82.3296 255.937 68.0624C255.937 53.7951 244.329 42.1874 230.062 42.1874H185.017C187.881 38.0238 189.562 32.9866 189.562 27.5624C189.562 13.2952 177.954 1.68748 163.687 1.68748H25.875C11.6077 1.68748 0 13.2952 0 27.5624C0 41.8297 11.6077 53.4374 25.875 53.4374H70.9199C68.0562 57.601 66.3749 62.6382 66.3749 68.0624C66.3749 73.4865 68.0556 78.5237 70.9199 82.6873H56.2499C41.9827 82.6873 30.3749 94.2951 30.3749 108.562C30.3749 116.756 34.2078 124.068 40.1709 128.812C34.2078 133.556 30.3749 140.868 30.3749 149.062C30.3749 157.256 34.2078 164.568 40.1709 169.312C34.2078 174.056 30.3749 181.368 30.3749 189.562C30.3749 197.756 34.2078 205.068 40.1709 209.812C34.2078 214.556 30.3749 221.868 30.3749 230.062C30.3749 244.329 41.9827 255.937 56.2499 255.937H122.54C140.004 274.616 164.847 286.313 192.375 286.313C245.103 286.313 288 243.415 288 190.688C288 146.803 258.283 109.734 217.917 98.5318ZM230.062 53.4374C238.127 53.4374 244.687 59.9984 244.687 68.0624C244.687 76.1263 238.127 82.6873 230.062 82.6873H194.062H92.2498C84.1853 82.6873 77.6249 76.1263 77.6249 68.0624C77.6249 59.9984 84.1853 53.4374 92.2498 53.4374H230.062ZM25.875 42.1874C17.8104 42.1874 11.25 35.6264 11.25 27.5624C11.25 19.4985 17.8104 12.9375 25.875 12.9375H163.687C171.752 12.9375 178.312 19.4985 178.312 27.5624C178.312 35.6264 171.752 42.1874 163.687 42.1874H25.875ZM56.2499 93.9373H194.062C196.328 93.9373 198.497 94.4638 200.444 95.4066C197.783 95.1832 195.093 95.0629 192.375 95.0629C165.969 95.0629 142.029 105.823 124.707 123.187H56.2499C48.1859 123.187 41.6249 116.626 41.6249 108.562C41.6249 100.498 48.1859 93.9373 56.2499 93.9373ZM56.2499 134.437H115.096C108.71 143.186 103.773 153.053 100.638 163.687H56.2499C48.1853 163.687 41.6249 157.127 41.6249 149.062C41.6249 140.998 48.1853 134.437 56.2499 134.437ZM56.2499 174.937H98.0548C97.2015 180.063 96.7504 185.323 96.7504 190.688C96.7504 195.27 97.0817 199.775 97.7078 204.187H56.2499C48.1853 204.187 41.6249 197.627 41.6249 189.562C41.6249 181.498 48.1853 174.937 56.2499 174.937ZM56.2499 244.687C48.1853 244.687 41.6249 238.127 41.6249 230.062C41.6249 221.998 48.1853 215.437 56.2499 215.437H100.004C102.843 226.019 107.454 235.882 113.5 244.687H56.2499ZM192.375 275.063C145.851 275.063 108 237.212 108 190.688C108 144.163 145.851 106.313 192.375 106.313C238.899 106.313 276.75 144.163 276.75 190.688C276.75 237.212 238.899 275.063 192.375 275.063Z" fill="#8245E5"/>
</g>
<defs>
<clipPath id="clip0">
<rect width="288" height="288" fill="white"/>
</clipPath>
</defs>
</svg>
