<svg width="288" height="288" viewBox="0 0 288 288" fill="none" xmlns="http://www.w3.org/2000/svg">
<path d="M147.76 157.178C147.227 157.063 146.68 157.042 146.141 157.122C140.731 156.493 136.651 151.916 136.642 146.473C136.642 143.864 134.527 141.749 131.918 141.749C129.309 141.749 127.194 143.864 127.194 146.473C127.208 155.563 133.288 163.526 142.053 165.932V170.656C142.053 173.264 144.168 175.38 146.777 175.38C149.386 175.38 151.501 173.264 151.501 170.656V166.218C161.618 164.1 168.494 154.677 167.431 144.397C166.365 134.116 157.704 126.303 147.368 126.301C141.444 126.301 136.642 121.498 136.642 115.575C136.642 109.652 141.444 104.849 147.368 104.849C153.291 104.849 158.094 109.652 158.094 115.575C158.094 118.184 160.209 120.299 162.818 120.299C165.427 120.299 167.542 118.184 167.542 115.575C167.528 106.03 160.841 97.7976 151.501 95.8277V91.5281C151.501 88.9193 149.386 86.8041 146.777 86.8041C144.168 86.8041 142.053 88.9193 142.053 91.5281V96.116C132.305 98.7779 126.031 108.242 127.374 118.258C128.716 128.273 137.262 135.749 147.368 135.747C153.213 135.747 157.981 140.427 158.087 146.27C158.195 152.112 153.6 156.966 147.76 157.178V157.178Z" fill="#8245E5"/>
<path d="M78.8646 131.387C78.8646 169.221 109.534 199.89 147.368 199.89C185.201 199.89 215.871 169.221 215.871 131.387C215.871 93.5534 185.201 62.8841 147.368 62.8841C109.552 62.9256 78.9085 93.5718 78.8646 131.387ZM147.368 72.3321C179.984 72.3321 206.423 98.771 206.423 131.387C206.423 164.003 179.984 190.442 147.368 190.442C114.752 190.442 88.3127 164.003 88.3127 131.387C88.3496 98.7872 114.768 72.369 147.368 72.3321Z" fill="#8245E5"/>
<path d="M239.159 211.537L202.153 229.021C197.044 219.518 187.243 213.469 176.457 213.165L142.295 212.226C136.886 212.072 131.579 210.701 126.769 208.217L123.293 206.416C105.495 197.138 84.2807 197.161 66.501 206.476L66.7178 198.601C66.7893 195.992 64.7341 193.819 62.1253 193.748L24.6652 192.716C22.0563 192.645 19.8858 194.7 19.8143 197.309L17.5514 279.514C17.4799 282.122 19.5352 284.295 22.144 284.367L59.6041 285.398H59.7333C62.2936 285.398 64.3881 283.361 64.4573 280.803L64.5657 276.87L74.2975 271.659C78.1173 269.604 82.583 269.115 86.7557 270.296L144.87 286.607C144.971 286.637 145.073 286.66 145.176 286.683C149.377 287.562 153.658 288.002 157.948 288C167.037 288.004 176.019 286.046 184.279 282.254C184.482 282.162 184.678 282.053 184.865 281.931L269.125 227.429C271.224 226.071 271.902 223.314 270.672 221.137C264.417 210.037 250.542 205.809 239.159 211.537V211.537ZM27.1264 275.053L29.1285 202.291L57.1429 203.062L55.1407 275.825L27.1264 275.053ZM180.023 273.816C169.761 278.448 158.299 279.726 147.269 277.472L89.3115 261.203C82.7883 259.36 75.806 260.124 69.8387 263.332L64.8656 265.997L66.1965 217.619C81.9556 207.138 102.166 206.06 118.95 214.805L122.426 216.607C128.502 219.744 135.202 221.474 142.037 221.672L176.201 222.611C185.797 222.888 193.946 229.72 195.893 239.122L145.006 237.717C142.397 237.646 140.226 239.703 140.153 242.31C140.081 244.918 142.139 247.091 144.745 247.163L200.903 248.708H201.034C203.592 248.706 205.685 246.669 205.754 244.113C205.811 242.06 205.659 240.005 205.297 237.985L243.253 220.05C243.29 220.034 243.327 220.016 243.364 219.997C248.748 217.273 255.257 218.184 259.686 222.283L180.023 273.816ZM152.092 49.6023V4.72403C152.092 2.1152 149.977 0 147.368 0C144.759 0 142.644 2.1152 142.644 4.72403V49.6023C142.644 52.2112 144.759 54.3264 147.368 54.3264C149.977 54.3264 152.092 52.2112 152.092 49.6023ZM187.522 49.6023V28.3442C187.522 25.7354 185.407 23.6202 182.798 23.6202C180.189 23.6202 178.074 25.7354 178.074 28.3442V49.6023C178.074 52.2112 180.189 54.3264 182.798 54.3264C185.407 54.3264 187.522 52.2112 187.522 49.6023ZM116.662 49.6023V28.3442C116.662 25.7354 114.546 23.6202 111.937 23.6202C109.329 23.6202 107.213 25.7354 107.213 28.3442V49.6023C107.213 52.2112 109.329 54.3264 111.937 54.3264C114.546 54.3264 116.662 52.2112 116.662 49.6023Z" fill="#8245E5"/>
</svg>
