<svg width="18" height="18" viewBox="0 0 18 18" fill="none" xmlns="http://www.w3.org/2000/svg">
<path d="M16.9249 14.84L16.8935 14.8525L12.3938 16.6524L12.3252 16.6799V16.606V10.6866C12.3252 10.4038 12.0956 10.1742 11.8127 10.1742C11.5299 10.1742 11.3003 10.4038 11.3003 10.6866V16.6049V16.6787L11.2317 16.6513L6.73199 14.8514L6.70055 14.8388V14.805V5.8933V5.81944L6.76913 5.84688L9.37559 6.88969L9.37571 6.88974C9.63465 6.99413 9.93622 6.86712 10.0418 6.60365L10.0418 6.60359C10.1473 6.34143 10.0194 6.04313 9.75579 5.93747C9.75578 5.93747 9.75577 5.93746 9.75577 5.93746L6.39782 4.59338H6.39726L6.38877 4.5902L6.37977 4.58683L6.37862 4.58639L6.37862 4.58638C6.25676 4.53722 6.12055 4.53722 5.99868 4.58638L5.99582 4.58753L5.99579 4.58744L5.98567 4.59082L5.98032 4.5926L0.372859 6.83626L16.9249 14.84ZM16.9249 14.84V14.8061V8.43677C16.9249 8.1539 17.1545 7.9243 17.4374 7.9243C17.7203 7.9243 17.9499 8.1539 17.9499 8.43677V15.1863C17.9499 15.3963 17.8218 15.584 17.6289 15.6631C17.6289 15.6631 17.6288 15.6631 17.6288 15.6632L12.0147 17.9084L12.0321 17.952M16.9249 14.84L12.0321 17.952M12.0321 17.952V17.9548L12.0118 17.9091L12.0025 17.9132C11.8811 17.962 11.7455 17.962 11.6241 17.9132L11.6148 17.9091L11.6051 17.9048H11.603L6.20666 15.7463L6.18809 15.7388L6.16953 15.7463L0.754114 17.9117L0.772678 17.9582L0.754109 17.9117C0.692508 17.9364 0.627939 17.9487 0.563441 17.9487L12.0321 17.952ZM0.276536 17.8606C0.136002 17.7651 0.0509766 17.6062 0.0509766 17.4362V7.31184C0.0509766 7.10182 0.179006 6.91425 0.372779 6.83629L0.276536 17.8606ZM5.6442 14.8514L5.67563 14.8388V14.805V5.89217V5.81832L5.60706 5.84575L1.10734 7.64564L1.07591 7.65821V7.69206V16.6049V16.6787L1.14448 16.6513L5.6442 14.8514Z" fill="#8245E5" stroke="white" stroke-width="0.1"/>
<path d="M12.425 3.93739C12.425 3.03469 13.1597 2.3 14.0624 2.3C14.9651 2.3 15.6998 3.03469 15.6998 3.93739C15.6998 4.8401 14.9651 5.57479 14.0624 5.57479C13.1597 5.57479 12.425 4.8401 12.425 3.93739ZM13.4499 3.93739C13.4499 4.27549 13.7243 4.54986 14.0624 4.54986C14.4005 4.54986 14.6749 4.27549 14.6749 3.93739C14.6749 3.5993 14.4005 3.32493 14.0624 3.32493C13.7243 3.32493 13.4499 3.5993 13.4499 3.93739Z" fill="#8245E5" stroke="white" stroke-width="0.1"/>
<path d="M14.024 8.73581L14.0623 8.78114L14.1005 8.73581C14.7158 8.00616 15.4203 7.08069 15.9714 6.20273C16.2469 5.76378 16.4847 5.33578 16.6537 4.94945C16.8222 4.56425 16.9246 4.21574 16.9246 3.93725C16.9246 2.35949 15.64 1.07493 14.0623 1.07493C12.4845 1.07493 11.1999 2.35949 11.1999 3.93725C11.1999 4.21601 11.3023 4.56466 11.4708 4.94992C11.6398 5.33631 11.8776 5.76428 12.1531 6.20315C12.7042 7.08097 13.4088 8.00616 14.024 8.73581ZM10.175 3.93725C10.175 1.79375 11.9188 0.05 14.0623 0.05C16.2058 0.05 17.9495 1.79375 17.9495 3.93725C17.9495 4.43101 17.756 5.02529 17.4553 5.64897C17.1551 6.27155 16.7506 6.9184 16.3341 7.51589C15.5013 8.71051 14.6234 9.70358 14.4436 9.90411C14.3461 10.0119 14.2076 10.0744 14.0623 10.0744C13.9169 10.0744 13.7785 10.0119 13.6809 9.90417C13.5013 9.70377 12.6233 8.71062 11.7904 7.51589C11.3739 6.9184 10.9694 6.27155 10.6692 5.64897C10.3685 5.02529 10.175 4.43101 10.175 3.93725Z" fill="#8245E5" stroke="white" stroke-width="0.1"/>
</svg>
