<svg width="18" height="20" viewBox="0 0 18 20" fill="none" xmlns="http://www.w3.org/2000/svg">
<path d="M9.41832 0.269908L9.41833 0.269917C11.3395 2.13786 13.6452 3.00602 16.6614 3.00602C16.9929 3.00602 17.2615 3.27467 17.2615 3.60607C17.2615 4.09531 17.2711 4.60067 17.2812 5.13395L17.2816 5.15154C17.3296 7.66724 17.3849 10.625 16.3899 13.3161C15.3978 15.9993 13.3585 18.4244 9.19646 19.8669L9.19641 19.8669C9.13284 19.889 9.06637 19.9001 8.99997 19.9001C8.93359 19.9001 8.86719 19.889 8.80348 19.8669L8.77072 19.9614L8.80347 19.8669C4.64177 18.4244 2.60265 15.9994 1.61072 13.3163C0.615814 10.6252 0.67118 7.66756 0.719216 5.15193C0.729573 4.61204 0.739302 4.10078 0.739302 3.60607C0.739302 3.27468 1.00797 3.00602 1.33935 3.00602C4.35542 3.00602 6.66071 2.13786 8.5817 0.269913L8.5817 0.269909C8.81461 0.0434017 9.18534 0.0433261 9.41832 0.269908ZM8.96592 18.6511L9.00006 18.6635L9.0342 18.6511C12.654 17.3362 14.4464 15.2327 15.3161 12.816C16.1816 10.4108 16.1299 7.70245 16.0819 5.18294L16.0817 5.17433L15.9817 5.17624L16.0817 5.17433C16.0759 4.8713 16.0703 4.57793 16.0664 4.29029L16.0651 4.19573L15.9706 4.19174C13.1867 4.07433 10.9665 3.23176 9.06574 1.57612L9.00006 1.51891L8.93438 1.57612C7.03382 3.23176 4.81398 4.07424 2.03024 4.19174L1.93575 4.19573L1.93447 4.29029C1.93055 4.57802 1.92496 4.87158 1.91917 5.1748L1.919 5.18338C1.87091 7.7028 1.81922 10.4111 2.68461 12.8162C3.55419 15.2328 5.3464 17.3362 8.96592 18.6511Z" fill="#8245E5" stroke="white" stroke-width="0.2"/>
<path d="M7.96066 11.0176L8.03137 11.0883L8.10208 11.0176L11.4809 7.63899L11.4102 7.56828L11.4809 7.63899C11.7152 7.40466 12.0952 7.40474 12.3294 7.63907L12.3295 7.6391C12.5638 7.87333 12.5638 8.25327 12.3294 8.48762L12.3294 8.48763L8.45564 12.3612L8.52635 12.432L8.45564 12.3612C8.33851 12.4784 8.18507 12.5369 8.03137 12.5369C7.87767 12.5369 7.72423 12.4784 7.6071 12.3612L5.67029 10.4244C5.43596 10.1901 5.43594 9.81025 5.67029 9.5758C5.90453 9.34156 6.28449 9.34154 6.51884 9.57581L7.96066 11.0176Z" fill="#8245E5" stroke="white" stroke-width="0.2"/>
</svg>
