<svg width="23" height="23" viewBox="0 0 23 23" fill="none" xmlns="http://www.w3.org/2000/svg">
<path d="M11.5002 19.1669C7.27283 19.1669 3.8335 15.7276 3.8335 11.5002C3.8335 7.27283 7.27283 3.8335 11.5002 3.8335C15.7276 3.8335 19.1669 7.27283 19.1669 11.5002C19.1669 15.7276 15.7276 19.1669 11.5002 19.1669ZM11.5002 4.60015C7.69572 4.60015 4.60015 7.69572 4.60015 11.5002C4.60015 15.3047 7.69572 18.4003 11.5002 18.4003C15.3047 18.4003 18.4003 15.3047 18.4003 11.5002C18.4003 7.69572 15.3047 4.60015 11.5002 4.60015Z" fill="#8245E5"/>
<path d="M11.4996 22.9997C11.288 22.9997 11.1162 22.8279 11.1162 22.6163V20.3163C11.1162 20.1047 11.288 19.9331 11.4996 19.9331C11.7113 19.9331 11.883 20.1047 11.883 20.3163V22.6163C11.883 22.8279 11.7113 22.9997 11.4996 22.9997Z" fill="#8245E5"/>
<path d="M11.4996 3.06662C11.288 3.06662 11.1162 2.895 11.1162 2.68338V0.383415C11.1162 0.171791 11.288 0 11.4996 0C11.7113 0 11.883 0.171791 11.883 0.383415V2.68338C11.883 2.895 11.7113 3.06662 11.4996 3.06662Z" fill="#8245E5"/>
<path d="M2.68338 11.883H0.383415C0.171791 11.883 0 11.7113 0 11.4996C0 11.288 0.171791 11.1162 0.383415 11.1162H2.68338C2.895 11.1162 3.06662 11.288 3.06662 11.4996C3.06662 11.7113 2.895 11.883 2.68338 11.883Z" fill="#8245E5"/>
<path d="M22.6163 11.883H20.3163C20.1047 11.883 19.9331 11.7113 19.9331 11.4996C19.9331 11.288 20.1047 11.1162 20.3163 11.1162H22.6163C22.8279 11.1162 22.9997 11.288 22.9997 11.4996C22.9997 11.7113 22.8279 11.883 22.6163 11.883Z" fill="#8245E5"/>
<path d="M9.5833 17.2498C9.52434 17.2498 9.46485 17.2365 9.40975 17.2084C9.25288 17.1288 9.17058 16.952 9.21006 16.7803L10.2515 12.2665H8.43341C8.28302 12.2665 8.14703 12.1787 8.08456 12.0426C8.02209 11.9062 8.04508 11.7458 8.14352 11.6325L13.1269 5.88249C13.2423 5.74912 13.4336 5.71192 13.5903 5.79159C13.7475 5.87126 13.83 6.04814 13.79 6.21975L12.7485 10.7332H14.5666C14.717 10.7332 14.853 10.8209 14.9155 10.9571C14.978 11.0934 14.955 11.2538 14.8565 11.3672L9.87319 17.1172C9.79843 17.2039 9.69192 17.2498 9.5833 17.2498ZM9.27288 11.4998H10.7334C10.8502 11.4998 10.9606 11.5532 11.0331 11.6444C11.1059 11.7355 11.1328 11.8552 11.1068 11.9694L10.3036 15.4501L13.7272 11.4998H12.2667C12.1498 11.4998 12.0394 11.4465 11.9666 11.3552C11.8941 11.2642 11.8669 11.1445 11.8929 11.0303L12.6964 7.54951L9.27288 11.4998Z" fill="#8245E5"/>
<path d="M19.3605 19.744C19.2624 19.744 19.1644 19.7062 19.0896 19.6316L17.4635 18.0055C17.3136 17.8557 17.3136 17.6133 17.4635 17.4635C17.6133 17.3136 17.8557 17.3136 18.0055 17.4635L19.6316 19.0896C19.7815 19.2395 19.7815 19.4816 19.6316 19.6316C19.5569 19.7062 19.4586 19.744 19.3605 19.744Z" fill="#8245E5"/>
<path d="M5.26585 5.64874C5.16776 5.64874 5.06949 5.61119 4.99474 5.53644L3.36825 3.9103C3.2184 3.76044 3.2184 3.51828 3.36825 3.36825C3.51776 3.2184 3.76044 3.2184 3.9103 3.36825L5.53679 4.99439C5.68682 5.14425 5.68682 5.38658 5.53679 5.53644C5.46203 5.61154 5.36359 5.64874 5.26585 5.64874Z" fill="#8245E5"/>
<path d="M3.63936 19.744C3.54127 19.744 3.443 19.7062 3.36825 19.6316C3.2184 19.4816 3.2184 19.2395 3.36825 19.0896L4.99474 17.4635C5.14477 17.3136 5.38728 17.3136 5.53679 17.4635C5.68682 17.6133 5.68682 17.8557 5.53679 18.0055L3.9103 19.6316C3.83554 19.7062 3.73745 19.744 3.63936 19.744Z" fill="#8245E5"/>
<path d="M17.7344 5.64874C17.6363 5.64874 17.5382 5.61119 17.4635 5.53644C17.3136 5.38658 17.3136 5.14425 17.4635 4.99439L19.0896 3.36825C19.2395 3.2184 19.4816 3.2184 19.6316 3.36825C19.7815 3.51828 19.7815 3.76044 19.6316 3.9103L18.0055 5.53644C17.9304 5.61154 17.8325 5.64874 17.7344 5.64874Z" fill="#8245E5"/>
</svg>
