<svg width="19" height="24" viewBox="0 0 19 24" fill="none" xmlns="http://www.w3.org/2000/svg">
<path d="M14.992 4.92977L14.992 4.92979C15.0786 5.01636 15.1344 5.14126 15.1344 5.27344V18.2422C15.1344 19.1562 14.3906 19.9 13.4766 19.9H1.75781C0.843783 19.9 0.1 19.1562 0.1 18.2422V1.75781C0.1 0.843783 0.843783 0.1 1.75781 0.1H9.96094C10.09 0.1 10.2139 0.151632 10.3046 0.242378L10.3046 0.24239L14.992 4.92977ZM10.6176 1.9298L10.4469 1.75909V2.00051V4.10156C10.4469 4.47988 10.7545 4.7875 11.1328 4.7875H13.2339H13.4753L13.3046 4.61679L10.6176 1.9298ZM9.475 1.17188V1.07187H9.375H1.75781C1.3795 1.07187 1.07187 1.3795 1.07187 1.75781V18.2422C1.07187 18.6205 1.3795 18.9281 1.75781 18.9281H13.4766C13.8549 18.9281 14.1625 18.6205 14.1625 18.2422V5.85938V5.75938H14.0625H11.1328C10.2188 5.75938 9.475 5.01559 9.475 4.10156V1.17188Z" fill="#8245E5" stroke="white" stroke-width="0.2"/>
<path d="M4.10156 9.38125H11.1328C11.4012 9.38125 11.6187 9.59882 11.6187 9.86719C11.6187 10.1356 11.4012 10.3531 11.1328 10.3531H4.10156C3.8332 10.3531 3.61563 10.1356 3.61563 9.86719C3.61563 9.59882 3.8332 9.38125 4.10156 9.38125Z" fill="#8245E5" stroke="white" stroke-width="0.2"/>
<path d="M4.20312 7.1H11.2344C11.5027 7.1 11.7203 7.31757 11.7203 7.58594C11.7203 7.8543 11.5027 8.07187 11.2344 8.07187H4.20312C3.93476 8.07187 3.71719 7.8543 3.71719 7.58594C3.71719 7.31757 3.93476 7.1 4.20312 7.1Z" fill="#8245E5" stroke="white" stroke-width="0.2"/>
<path d="M4.10156 11.725H11.1328C11.4012 11.725 11.6187 11.9426 11.6187 12.2109C11.6187 12.4793 11.4012 12.6969 11.1328 12.6969H4.10156C3.8332 12.6969 3.61563 12.4793 3.61563 12.2109C3.61563 11.9426 3.8332 11.725 4.10156 11.725Z" fill="#8245E5" stroke="white" stroke-width="0.2"/>
<path d="M4.10156 14.1H8.78906C9.05743 14.1 9.275 14.3176 9.275 14.5859C9.275 14.8543 9.05743 15.0719 8.78906 15.0719H4.10156C3.8332 15.0719 3.61563 14.8543 3.61563 14.5859C3.61563 14.3176 3.8332 14.1 4.10156 14.1Z" fill="#8245E5" stroke="white" stroke-width="0.2"/>
<path d="M17.1172 20.5V19.5L18.1172 19V18.5V18L17.6172 17.5L17.1172 17V16.5V15.5H16.6172H15.6172L15.1172 15L14.6172 14.5L14.1172 14L13.6172 14.5L13.1172 15.5H12.6172L11.6172 15L11.1172 15.5L10.6172 16L11.1172 16.5V17.5H10.1172L9.61719 18L10.1172 19L10.6172 19.5L11.1172 20L10.6172 21L11.1172 21.5L11.6172 22L12.1172 21.5H13.1172V22L13.6172 23H14.6172L15.1172 22.5V21.5H15.6172L16.1172 22H17.1172L17.6172 21L17.1172 20.5Z" fill="white"/>
<mask id="path-7-outside-1" maskUnits="userSpaceOnUse" x="8.61719" y="13" width="11" height="11" fill="black">
<rect fill="white" x="8.61719" y="13" width="11" height="11"/>
<path d="M14.5372 23H13.6972C13.4133 23 13.1737 22.7874 13.1399 22.505L13.0503 21.8015C12.8714 21.7434 12.6989 21.6718 12.5351 21.5881L11.9748 22.0235C11.7476 22.1994 11.4277 22.1791 11.2304 21.9763L10.6398 21.3856C10.4384 21.1902 10.4182 20.8704 10.5941 20.6435L11.0294 20.0829C10.9454 19.919 10.8738 19.7465 10.8161 19.5676L10.1111 19.478C9.82981 19.4435 9.61719 19.2039 9.61719 18.92V18.08C9.61719 17.7961 9.82981 17.5565 10.1122 17.5227L10.8157 17.4331C10.8738 17.2543 10.9454 17.0818 11.0291 16.9179L10.5941 16.3576C10.4178 16.1304 10.4384 15.8101 10.6417 15.6129L11.2323 15.0223C11.4277 14.8209 11.7479 14.801 11.9744 14.9765L12.5347 15.4123C12.6986 15.3286 12.8711 15.257 13.0503 15.1989L13.1399 14.4939C13.1737 14.2126 13.4133 14 13.6972 14H14.5372C14.8211 14 15.0607 14.2126 15.0944 14.495L15.1841 15.1985C15.3633 15.2566 15.5358 15.3283 15.6997 15.4119L16.2599 14.9765C16.4876 14.8006 16.8071 14.8209 17.0043 15.0241L17.5949 15.6148C17.7963 15.8101 17.8166 16.13 17.6407 16.3569L17.2053 16.9175C17.2893 17.0814 17.3609 17.2539 17.4187 17.4328L18.1237 17.5224C18.4046 17.5565 18.6172 17.7961 18.6172 18.08V18.92C18.6172 19.2039 18.4046 19.4435 18.1222 19.4773L17.4187 19.5669C17.3606 19.7458 17.2889 19.9183 17.2053 20.0821L17.6407 20.6424C17.8169 20.8696 17.7963 21.1895 17.5931 21.3868L17.0024 21.9774C16.8071 22.1788 16.4868 22.1994 16.2603 22.0231L15.6997 21.5877C15.5358 21.6718 15.3633 21.7434 15.1844 21.8011L15.0948 22.5061C15.0607 22.7874 14.8211 23 14.5372 23ZM12.5159 21.1775C12.5471 21.1775 12.5789 21.1854 12.6074 21.2011C12.8141 21.3166 13.0379 21.4096 13.2727 21.4771C13.3447 21.4977 13.3976 21.5593 13.4069 21.6335L13.5119 22.4585C13.5232 22.5526 13.6046 22.625 13.6972 22.625H14.5372C14.6298 22.625 14.7112 22.5526 14.7221 22.4604L14.8274 21.6339C14.8368 21.5596 14.8897 21.4981 14.9617 21.4775C15.1964 21.41 15.4203 21.317 15.6269 21.2015C15.6926 21.1648 15.7743 21.1711 15.8332 21.2173L16.4894 21.7273C16.5648 21.7858 16.6706 21.7809 16.7351 21.7145L17.3294 21.1201C17.3973 21.0541 17.4026 20.9484 17.3441 20.8726L16.8341 20.2164C16.7879 20.1571 16.7816 20.0758 16.8183 20.0101C16.9338 19.8035 17.0268 19.5796 17.0943 19.3449C17.1149 19.2729 17.1764 19.22 17.2507 19.2106L18.0757 19.1056C18.1698 19.094 18.2422 19.0126 18.2422 18.92V18.08C18.2422 17.9874 18.1698 17.906 18.0776 17.8951L17.2511 17.7898C17.1768 17.7804 17.1153 17.7275 17.0947 17.6555C17.0272 17.4208 16.9342 17.1969 16.8187 16.9903C16.7819 16.9246 16.7879 16.8433 16.8344 16.784L17.3444 16.1277C17.4033 16.052 17.3981 15.9463 17.3321 15.8825L16.7377 15.2881C16.6721 15.2199 16.5659 15.2146 16.4902 15.2735L15.8339 15.7835C15.7743 15.8296 15.6929 15.836 15.6273 15.7992C15.4214 15.6837 15.1976 15.5911 14.9621 15.5232C14.8901 15.5026 14.8372 15.4411 14.8278 15.3669L14.7228 14.5419C14.7112 14.4474 14.6298 14.375 14.5372 14.375H13.6972C13.6046 14.375 13.5232 14.4474 13.5123 14.5396L13.4069 15.3661C13.3976 15.4404 13.3447 15.5019 13.2727 15.5229C13.0372 15.5904 12.8133 15.6834 12.6074 15.7985C12.5418 15.8356 12.4604 15.8289 12.4008 15.7831L11.7446 15.2731C11.6688 15.2142 11.5634 15.2195 11.4993 15.2855L10.9049 15.8802C10.8371 15.9462 10.8318 16.052 10.8903 16.1277L11.4003 16.784C11.4464 16.8433 11.4528 16.9246 11.4161 16.9903C11.3002 17.1969 11.2076 17.4208 11.1401 17.6555C11.1194 17.7275 11.0579 17.7804 10.9837 17.7898L10.1587 17.8947C10.0646 17.906 9.99219 17.9874 9.99219 18.08V18.92C9.99219 19.0126 10.0646 19.094 10.1568 19.1049L10.9833 19.2102C11.0576 19.2196 11.1191 19.2725 11.1397 19.3445C11.2072 19.5792 11.3002 19.8031 11.4157 20.0097C11.4524 20.0754 11.4464 20.1568 11.3999 20.216L10.8899 20.8723C10.8311 20.948 10.8363 21.0538 10.9023 21.1175L11.4967 21.7119C11.5623 21.7798 11.6677 21.785 11.7442 21.7265L12.4004 21.2165C12.4346 21.191 12.4751 21.1775 12.5159 21.1775Z"/>
<path d="M14.1173 20.3749C13.0835 20.3749 12.2423 19.5338 12.2423 18.4999C12.2423 17.466 13.0835 16.6249 14.1173 16.6249C15.1512 16.6249 15.9923 17.466 15.9923 18.4999C15.9923 19.5338 15.1512 20.3749 14.1173 20.3749ZM14.1173 16.9999C13.2901 16.9999 12.6173 17.6727 12.6173 18.4999C12.6173 19.3272 13.2901 19.9999 14.1173 19.9999C14.9446 19.9999 15.6173 19.3272 15.6173 18.4999C15.6173 17.6727 14.9446 16.9999 14.1173 16.9999Z"/>
</mask>
<path d="M14.5372 23H13.6972C13.4133 23 13.1737 22.7874 13.1399 22.505L13.0503 21.8015C12.8714 21.7434 12.6989 21.6718 12.5351 21.5881L11.9748 22.0235C11.7476 22.1994 11.4277 22.1791 11.2304 21.9763L10.6398 21.3856C10.4384 21.1902 10.4182 20.8704 10.5941 20.6435L11.0294 20.0829C10.9454 19.919 10.8738 19.7465 10.8161 19.5676L10.1111 19.478C9.82981 19.4435 9.61719 19.2039 9.61719 18.92V18.08C9.61719 17.7961 9.82981 17.5565 10.1122 17.5227L10.8157 17.4331C10.8738 17.2543 10.9454 17.0818 11.0291 16.9179L10.5941 16.3576C10.4178 16.1304 10.4384 15.8101 10.6417 15.6129L11.2323 15.0223C11.4277 14.8209 11.7479 14.801 11.9744 14.9765L12.5347 15.4123C12.6986 15.3286 12.8711 15.257 13.0503 15.1989L13.1399 14.4939C13.1737 14.2126 13.4133 14 13.6972 14H14.5372C14.8211 14 15.0607 14.2126 15.0944 14.495L15.1841 15.1985C15.3633 15.2566 15.5358 15.3283 15.6997 15.4119L16.2599 14.9765C16.4876 14.8006 16.8071 14.8209 17.0043 15.0241L17.5949 15.6148C17.7963 15.8101 17.8166 16.13 17.6407 16.3569L17.2053 16.9175C17.2893 17.0814 17.3609 17.2539 17.4187 17.4328L18.1237 17.5224C18.4046 17.5565 18.6172 17.7961 18.6172 18.08V18.92C18.6172 19.2039 18.4046 19.4435 18.1222 19.4773L17.4187 19.5669C17.3606 19.7458 17.2889 19.9183 17.2053 20.0821L17.6407 20.6424C17.8169 20.8696 17.7963 21.1895 17.5931 21.3868L17.0024 21.9774C16.8071 22.1788 16.4868 22.1994 16.2603 22.0231L15.6997 21.5877C15.5358 21.6718 15.3633 21.7434 15.1844 21.8011L15.0948 22.5061C15.0607 22.7874 14.8211 23 14.5372 23ZM12.5159 21.1775C12.5471 21.1775 12.5789 21.1854 12.6074 21.2011C12.8141 21.3166 13.0379 21.4096 13.2727 21.4771C13.3447 21.4977 13.3976 21.5593 13.4069 21.6335L13.5119 22.4585C13.5232 22.5526 13.6046 22.625 13.6972 22.625H14.5372C14.6298 22.625 14.7112 22.5526 14.7221 22.4604L14.8274 21.6339C14.8368 21.5596 14.8897 21.4981 14.9617 21.4775C15.1964 21.41 15.4203 21.317 15.6269 21.2015C15.6926 21.1648 15.7743 21.1711 15.8332 21.2173L16.4894 21.7273C16.5648 21.7858 16.6706 21.7809 16.7351 21.7145L17.3294 21.1201C17.3973 21.0541 17.4026 20.9484 17.3441 20.8726L16.8341 20.2164C16.7879 20.1571 16.7816 20.0758 16.8183 20.0101C16.9338 19.8035 17.0268 19.5796 17.0943 19.3449C17.1149 19.2729 17.1764 19.22 17.2507 19.2106L18.0757 19.1056C18.1698 19.094 18.2422 19.0126 18.2422 18.92V18.08C18.2422 17.9874 18.1698 17.906 18.0776 17.8951L17.2511 17.7898C17.1768 17.7804 17.1153 17.7275 17.0947 17.6555C17.0272 17.4208 16.9342 17.1969 16.8187 16.9903C16.7819 16.9246 16.7879 16.8433 16.8344 16.784L17.3444 16.1277C17.4033 16.052 17.3981 15.9463 17.3321 15.8825L16.7377 15.2881C16.6721 15.2199 16.5659 15.2146 16.4902 15.2735L15.8339 15.7835C15.7743 15.8296 15.6929 15.836 15.6273 15.7992C15.4214 15.6837 15.1976 15.5911 14.9621 15.5232C14.8901 15.5026 14.8372 15.4411 14.8278 15.3669L14.7228 14.5419C14.7112 14.4474 14.6298 14.375 14.5372 14.375H13.6972C13.6046 14.375 13.5232 14.4474 13.5123 14.5396L13.4069 15.3661C13.3976 15.4404 13.3447 15.5019 13.2727 15.5229C13.0372 15.5904 12.8133 15.6834 12.6074 15.7985C12.5418 15.8356 12.4604 15.8289 12.4008 15.7831L11.7446 15.2731C11.6688 15.2142 11.5634 15.2195 11.4993 15.2855L10.9049 15.8802C10.8371 15.9462 10.8318 16.052 10.8903 16.1277L11.4003 16.784C11.4464 16.8433 11.4528 16.9246 11.4161 16.9903C11.3002 17.1969 11.2076 17.4208 11.1401 17.6555C11.1194 17.7275 11.0579 17.7804 10.9837 17.7898L10.1587 17.8947C10.0646 17.906 9.99219 17.9874 9.99219 18.08V18.92C9.99219 19.0126 10.0646 19.094 10.1568 19.1049L10.9833 19.2102C11.0576 19.2196 11.1191 19.2725 11.1397 19.3445C11.2072 19.5792 11.3002 19.8031 11.4157 20.0097C11.4524 20.0754 11.4464 20.1568 11.3999 20.216L10.8899 20.8723C10.8311 20.948 10.8363 21.0538 10.9023 21.1175L11.4967 21.7119C11.5623 21.7798 11.6677 21.785 11.7442 21.7265L12.4004 21.2165C12.4346 21.191 12.4751 21.1775 12.5159 21.1775Z" fill="#8245E5"/>
<path d="M14.1173 20.3749C13.0835 20.3749 12.2423 19.5338 12.2423 18.4999C12.2423 17.466 13.0835 16.6249 14.1173 16.6249C15.1512 16.6249 15.9923 17.466 15.9923 18.4999C15.9923 19.5338 15.1512 20.3749 14.1173 20.3749ZM14.1173 16.9999C13.2901 16.9999 12.6173 17.6727 12.6173 18.4999C12.6173 19.3272 13.2901 19.9999 14.1173 19.9999C14.9446 19.9999 15.6173 19.3272 15.6173 18.4999C15.6173 17.6727 14.9446 16.9999 14.1173 16.9999Z" fill="#8245E5"/>
<path d="M14.5372 23H13.6972C13.4133 23 13.1737 22.7874 13.1399 22.505L13.0503 21.8015C12.8714 21.7434 12.6989 21.6718 12.5351 21.5881L11.9748 22.0235C11.7476 22.1994 11.4277 22.1791 11.2304 21.9763L10.6398 21.3856C10.4384 21.1902 10.4182 20.8704 10.5941 20.6435L11.0294 20.0829C10.9454 19.919 10.8738 19.7465 10.8161 19.5676L10.1111 19.478C9.82981 19.4435 9.61719 19.2039 9.61719 18.92V18.08C9.61719 17.7961 9.82981 17.5565 10.1122 17.5227L10.8157 17.4331C10.8738 17.2543 10.9454 17.0818 11.0291 16.9179L10.5941 16.3576C10.4178 16.1304 10.4384 15.8101 10.6417 15.6129L11.2323 15.0223C11.4277 14.8209 11.7479 14.801 11.9744 14.9765L12.5347 15.4123C12.6986 15.3286 12.8711 15.257 13.0503 15.1989L13.1399 14.4939C13.1737 14.2126 13.4133 14 13.6972 14H14.5372C14.8211 14 15.0607 14.2126 15.0944 14.495L15.1841 15.1985C15.3633 15.2566 15.5358 15.3283 15.6997 15.4119L16.2599 14.9765C16.4876 14.8006 16.8071 14.8209 17.0043 15.0241L17.5949 15.6148C17.7963 15.8101 17.8166 16.13 17.6407 16.3569L17.2053 16.9175C17.2893 17.0814 17.3609 17.2539 17.4187 17.4328L18.1237 17.5224C18.4046 17.5565 18.6172 17.7961 18.6172 18.08V18.92C18.6172 19.2039 18.4046 19.4435 18.1222 19.4773L17.4187 19.5669C17.3606 19.7458 17.2889 19.9183 17.2053 20.0821L17.6407 20.6424C17.8169 20.8696 17.7963 21.1895 17.5931 21.3868L17.0024 21.9774C16.8071 22.1788 16.4868 22.1994 16.2603 22.0231L15.6997 21.5877C15.5358 21.6718 15.3633 21.7434 15.1844 21.8011L15.0948 22.5061C15.0607 22.7874 14.8211 23 14.5372 23ZM12.5159 21.1775C12.5471 21.1775 12.5789 21.1854 12.6074 21.2011C12.8141 21.3166 13.0379 21.4096 13.2727 21.4771C13.3447 21.4977 13.3976 21.5593 13.4069 21.6335L13.5119 22.4585C13.5232 22.5526 13.6046 22.625 13.6972 22.625H14.5372C14.6298 22.625 14.7112 22.5526 14.7221 22.4604L14.8274 21.6339C14.8368 21.5596 14.8897 21.4981 14.9617 21.4775C15.1964 21.41 15.4203 21.317 15.6269 21.2015C15.6926 21.1648 15.7743 21.1711 15.8332 21.2173L16.4894 21.7273C16.5648 21.7858 16.6706 21.7809 16.7351 21.7145L17.3294 21.1201C17.3973 21.0541 17.4026 20.9484 17.3441 20.8726L16.8341 20.2164C16.7879 20.1571 16.7816 20.0758 16.8183 20.0101C16.9338 19.8035 17.0268 19.5796 17.0943 19.3449C17.1149 19.2729 17.1764 19.22 17.2507 19.2106L18.0757 19.1056C18.1698 19.094 18.2422 19.0126 18.2422 18.92V18.08C18.2422 17.9874 18.1698 17.906 18.0776 17.8951L17.2511 17.7898C17.1768 17.7804 17.1153 17.7275 17.0947 17.6555C17.0272 17.4208 16.9342 17.1969 16.8187 16.9903C16.7819 16.9246 16.7879 16.8433 16.8344 16.784L17.3444 16.1277C17.4033 16.052 17.3981 15.9463 17.3321 15.8825L16.7377 15.2881C16.6721 15.2199 16.5659 15.2146 16.4902 15.2735L15.8339 15.7835C15.7743 15.8296 15.6929 15.836 15.6273 15.7992C15.4214 15.6837 15.1976 15.5911 14.9621 15.5232C14.8901 15.5026 14.8372 15.4411 14.8278 15.3669L14.7228 14.5419C14.7112 14.4474 14.6298 14.375 14.5372 14.375H13.6972C13.6046 14.375 13.5232 14.4474 13.5123 14.5396L13.4069 15.3661C13.3976 15.4404 13.3447 15.5019 13.2727 15.5229C13.0372 15.5904 12.8133 15.6834 12.6074 15.7985C12.5418 15.8356 12.4604 15.8289 12.4008 15.7831L11.7446 15.2731C11.6688 15.2142 11.5634 15.2195 11.4993 15.2855L10.9049 15.8802C10.8371 15.9462 10.8318 16.052 10.8903 16.1277L11.4003 16.784C11.4464 16.8433 11.4528 16.9246 11.4161 16.9903C11.3002 17.1969 11.2076 17.4208 11.1401 17.6555C11.1194 17.7275 11.0579 17.7804 10.9837 17.7898L10.1587 17.8947C10.0646 17.906 9.99219 17.9874 9.99219 18.08V18.92C9.99219 19.0126 10.0646 19.094 10.1568 19.1049L10.9833 19.2102C11.0576 19.2196 11.1191 19.2725 11.1397 19.3445C11.2072 19.5792 11.3002 19.8031 11.4157 20.0097C11.4524 20.0754 11.4464 20.1568 11.3999 20.216L10.8899 20.8723C10.8311 20.948 10.8363 21.0538 10.9023 21.1175L11.4967 21.7119C11.5623 21.7798 11.6677 21.785 11.7442 21.7265L12.4004 21.2165C12.4346 21.191 12.4751 21.1775 12.5159 21.1775Z" stroke="#8245E5" stroke-width="0.3" mask="url(#path-7-outside-1)"/>
<path d="M14.1173 20.3749C13.0835 20.3749 12.2423 19.5338 12.2423 18.4999C12.2423 17.466 13.0835 16.6249 14.1173 16.6249C15.1512 16.6249 15.9923 17.466 15.9923 18.4999C15.9923 19.5338 15.1512 20.3749 14.1173 20.3749ZM14.1173 16.9999C13.2901 16.9999 12.6173 17.6727 12.6173 18.4999C12.6173 19.3272 13.2901 19.9999 14.1173 19.9999C14.9446 19.9999 15.6173 19.3272 15.6173 18.4999C15.6173 17.6727 14.9446 16.9999 14.1173 16.9999Z" stroke="#8245E5" stroke-width="0.3" mask="url(#path-7-outside-1)"/>
</svg>
