<svg width="18" height="18" viewBox="0 0 18 18" fill="none" xmlns="http://www.w3.org/2000/svg">
<path d="M17.1826 9.07549V6.54563C17.1826 5.68778 16.5172 4.99012 15.6764 4.92247L13.327 0.818844C13.1093 0.439316 12.7577 0.168054 12.3371 0.0554156C11.9184 -0.0564561 11.4805 0.00229861 11.1058 0.220404L3.05185 4.90928H1.63733C0.734874 4.90928 0.000976562 5.64314 0.000976562 6.54563V16.3636C0.000976562 17.2661 0.734835 18 1.63733 18H15.5462C16.4487 18 17.1826 17.2661 17.1826 16.3636V13.8338C17.6577 13.6643 18.0007 13.2145 18.0007 12.6819V10.2274C18.0007 9.69476 17.6577 9.24493 17.1826 9.07549ZM14.7257 4.90928H11.1602L13.8344 3.35235L14.7257 4.90928ZM13.4279 2.64235L9.53408 4.90928H7.91898L13.024 1.93702L13.4279 2.64235ZM11.5177 0.927494C11.7026 0.819227 11.9188 0.790463 12.1253 0.845613C12.3343 0.90153 12.5084 1.03657 12.6167 1.22552L12.6176 1.22702L6.29299 4.90928H4.67796L11.5177 0.927494ZM16.3644 16.3636C16.3644 16.8147 15.9972 17.1818 15.5462 17.1818H1.63733C1.18631 17.1818 0.819171 16.8147 0.819171 16.3636V6.54563C0.819171 6.09461 1.18631 5.72747 1.63733 5.72747H15.5462C15.9972 5.72747 16.3644 6.09461 16.3644 6.54563V9.00013H13.9099C12.5563 9.00013 11.4553 10.1011 11.4553 11.4546C11.4553 12.8081 12.5563 13.9091 13.9099 13.9091H16.3644V16.3636ZM17.1826 12.6819C17.1826 12.9076 16.9992 13.091 16.7735 13.091H13.9099C13.0074 13.091 12.2735 12.3571 12.2735 11.4546C12.2735 10.5522 13.0074 9.81829 13.9099 9.81829H16.7735C16.9992 9.81829 17.1826 10.0016 17.1826 10.2274V12.6819Z" fill="#8245E5"/>
<path d="M13.909 10.6362C13.458 10.6362 13.0908 11.0034 13.0908 11.4544C13.0908 11.9054 13.458 12.2725 13.909 12.2725C14.36 12.2725 14.7271 11.9054 14.7271 11.4544C14.7272 11.0034 14.36 10.6362 13.909 10.6362Z" fill="#8245E5"/>
</svg>
