<svg width="18" height="20" viewBox="0 0 18 20" fill="none" xmlns="http://www.w3.org/2000/svg">
<path d="M11.8707 3.4978H2.57318C1.70077 3.4978 0.992188 4.20638 0.992188 5.0788V18.419C0.992188 19.2914 1.70077 20 2.57318 20H11.8707C12.7432 20 13.4517 19.2914 13.4517 18.419V5.0788C13.4476 4.20638 12.7391 3.4978 11.8707 3.4978ZM12.3418 18.4149C12.3418 18.677 12.1288 18.89 11.8667 18.89H2.56909C2.30695 18.89 2.09397 18.677 2.09397 18.4149V5.0788C2.09397 4.81666 2.30695 4.60368 2.56909 4.60368H11.8667C12.1288 4.60368 12.3418 4.81666 12.3418 5.0788V18.4149Z" fill="#878691"/>
<path d="M15.4254 0H6.12787C5.25546 0 4.54688 0.708581 4.54688 1.581C4.54688 1.88818 4.79263 2.13393 5.09981 2.13393C5.407 2.13393 5.65275 1.88818 5.65275 1.581C5.65275 1.31886 5.86574 1.10588 6.12787 1.10588H15.4254C15.6876 1.10588 15.9006 1.31886 15.9006 1.581V14.9212C15.9006 15.1833 15.6876 15.3963 15.4254 15.3963C15.1183 15.3963 14.8725 15.642 14.8725 15.9492C14.8725 16.2564 15.1183 16.5021 15.4254 16.5021C16.2979 16.5021 17.0064 15.7936 17.0064 14.9212V1.581C17.0064 0.708581 16.2979 0 15.4254 0Z" fill="#878691"/>
</svg>
