<svg width="19" height="20" viewBox="0 0 19 20" fill="none" xmlns="http://www.w3.org/2000/svg">
<g clip-path="url(#clip0)">
<path d="M17.4378 12.8572C17.0867 12.8572 16.8021 13.177 16.8021 13.5715V17.8572C16.8021 18.2517 16.5174 18.5715 16.1663 18.5715H3.4521C3.10099 18.5715 2.81637 18.2517 2.81637 17.8572V13.5715C2.81637 13.177 2.53176 12.8572 2.18065 12.8572C1.82954 12.8572 1.54492 13.177 1.54492 13.5715V17.8572C1.54492 19.0407 2.39878 20 3.45206 20H16.1664C17.2197 20 18.0735 19.0407 18.0735 17.8572V13.5715C18.0735 13.177 17.7889 12.8572 17.4378 12.8572Z" fill="#F7F7F8"/>
<path d="M13.4241 12.3521C13.1777 12.0848 12.7871 12.0848 12.5408 12.3521L10.4461 14.7043V0.714299C10.4461 0.319796 10.1615 0 9.8104 0C9.45929 0 9.17468 0.319796 9.17468 0.714299V14.7043L7.08125 12.3521C6.82871 12.0781 6.42627 12.086 6.18237 12.3697C5.94442 12.6465 5.94442 13.0853 6.18237 13.3621L9.36092 16.9335C9.60889 17.2128 10.0114 17.2134 10.26 16.9348C10.2603 16.9344 10.2607 16.934 10.2611 16.9335L13.4397 13.3621C13.6836 13.0784 13.6766 12.6262 13.4241 12.3521Z" fill="#F7F7F8"/>
</g>
<defs>
<clipPath id="clip0">
<rect width="17.8" height="20" fill="white" transform="translate(0.910156)"/>
</clipPath>
</defs>
</svg>
