<svg width="50" height="32" viewBox="0 0 50 32" fill="none" xmlns="http://www.w3.org/2000/svg">
<path fill-rule="evenodd" clip-rule="evenodd" d="M4.85542 5.26976C4.85287 5.29934 4.85374 5.31575 4.85371 5.31575L4.86081 5.40664V16.7344H0.00699021V5.57353C-0.0450078 4.61328 0.181693 3.28081 1.07235 2.11699C2.08726 0.790796 3.72074 0 5.83157 0H10.5527L10.6623 0.00981786C11.5397 0.0883879 12.7133 0.454933 13.7106 1.31588C14.7924 2.24975 15.5391 3.66196 15.5391 5.49845V16.7344H10.6853V5.49845C10.6853 5.23622 10.6362 5.10028 10.6099 5.04302C10.5831 4.98478 10.5511 4.94585 10.5116 4.91171C10.4661 4.87244 10.4032 4.83428 10.3288 4.80476C10.3015 4.79395 10.2781 4.78642 10.2598 4.78126H5.83157C5.39739 4.78126 5.1732 4.85759 5.08038 4.89993C4.99469 4.93901 4.96451 4.97386 4.94823 4.99514C4.92402 5.02678 4.89468 5.08114 4.87403 5.16162C4.86408 5.20042 4.85818 5.23781 4.85542 5.26976Z" fill="#090B2F"/>
<path fill-rule="evenodd" clip-rule="evenodd" d="M22.4093 5.35329C22.1742 5.61489 22.1133 5.93083 22.1133 6.0301V16.7344H17.332V6.0301C17.332 4.91622 17.7253 3.41241 18.8529 2.15757C20.0496 0.825786 21.8683 0 24.2649 0H29.2852V4.78126H24.2649C23.0277 4.78126 22.5752 5.16863 22.4093 5.35329Z" fill="#090B2F"/>
<path fill-rule="evenodd" clip-rule="evenodd" d="M26.8945 12.5508H20.3203V7.76953H26.8945V12.5508Z" fill="#090B2F"/>
<path d="M49.9996 0H41.2598C43.8004 0.406504 44.6134 3.55691 44.8094 4.78126H49.9996V0Z" fill="#090B2F"/>
<path fill-rule="evenodd" clip-rule="evenodd" d="M37.97 5.18837C38.1658 5.44985 38.25 5.82556 38.25 6.0301V11.9918H38.2505C38.3107 13.6532 39.1278 16.3197 41.7079 16.7344H43.0313H45.4219C43.7539 15.2133 43.2364 15.2972 43.0209 15.0806C42.8956 14.9547 42.8723 14.7274 42.7845 14.0244L43.0313 12.0935V9.94788V6.0301C43.0313 5.02149 42.7369 3.57746 41.7972 2.32249C40.7704 0.951303 39.1099 0 36.8555 0H31.0781V4.78126H36.8555C37.2858 4.78126 37.531 4.86531 37.6621 4.93035C37.7932 4.99539 37.8893 5.08055 37.97 5.18837Z" fill="#090B2F"/>
<path d="M42.683 16.7334H46.8052C43.9742 16.4943 43.0895 13.7196 43.0305 11.9919H42.683V16.7334Z" fill="#090B2F"/>
<rect y="20.3203" width="50" height="10.7578" rx="5.37892" fill="#8245E5"/>
<path d="M14.5357 24.5086C14.8654 24.5086 15.1597 24.5317 15.4187 24.5777C15.6799 24.6217 15.8993 24.6908 16.0769 24.7851C16.2567 24.8793 16.3937 24.9987 16.4879 25.1432C16.5821 25.2877 16.6292 25.4594 16.6292 25.6584V26.9401C16.6292 27.139 16.5821 27.3108 16.4879 27.4553C16.3937 27.5998 16.2567 27.7192 16.0769 27.8134C15.8993 27.9077 15.6799 27.9778 15.4187 28.0239C15.1597 28.0679 14.8654 28.0899 14.5357 28.0899C14.3516 28.0899 14.1632 28.0836 13.9706 28.071C13.7779 28.0563 13.5917 28.0385 13.4119 28.0176C13.2321 27.9946 13.063 27.9684 12.9046 27.9391C12.7462 27.9097 12.6113 27.8783 12.5 27.8448V23.3086H13.3413V24.7348C13.5318 24.6678 13.7308 24.6133 13.9385 24.5714C14.1483 24.5296 14.3473 24.5086 14.5357 24.5086ZM14.3045 25.0929C14.1932 25.0929 14.0915 25.1003 13.9995 25.1149C13.9074 25.1296 13.8218 25.1484 13.7426 25.1715C13.6656 25.1945 13.5938 25.2207 13.5275 25.25C13.4611 25.2772 13.399 25.3045 13.3413 25.3317V27.3108C13.399 27.3296 13.4654 27.3485 13.5403 27.3673C13.6152 27.3841 13.6945 27.3998 13.7779 27.4144C13.8636 27.4291 13.9503 27.4406 14.038 27.449C14.1279 27.4574 14.2168 27.4616 14.3045 27.4616C14.4372 27.4616 14.5667 27.4605 14.693 27.4584C14.8193 27.4542 14.9371 27.4448 15.0462 27.4302C15.1554 27.4155 15.2549 27.3935 15.3448 27.3642C15.4369 27.3349 15.515 27.294 15.5792 27.2417C15.6456 27.1872 15.697 27.1212 15.7334 27.0438C15.7698 26.9642 15.788 26.8668 15.788 26.7516V25.828C15.788 25.6626 15.7484 25.5317 15.6691 25.4353C15.5899 25.3369 15.4829 25.2626 15.3481 25.2123C15.2132 25.162 15.0559 25.1296 14.8761 25.1149C14.6962 25.1003 14.5057 25.0929 14.3045 25.0929Z" fill="white"/>
<path d="M21.1951 26.8082C21.1416 26.7621 21.0752 26.717 20.996 26.6731C20.9168 26.6291 20.8194 26.5903 20.7038 26.5568C20.5882 26.5212 20.4502 26.493 20.2896 26.472C20.1312 26.449 19.945 26.4375 19.7309 26.4375C19.5404 26.4375 19.3595 26.4416 19.1883 26.45C19.0192 26.4563 18.8704 26.4773 18.742 26.5129C18.6135 26.5464 18.5119 26.6008 18.4369 26.6762C18.362 26.7516 18.3246 26.8563 18.3246 26.9904V27.3925C18.5129 27.4218 18.7206 27.4459 18.9475 27.4647C19.1744 27.4836 19.427 27.493 19.7052 27.493C19.9279 27.493 20.1644 27.4857 20.4148 27.471C20.6674 27.4542 20.9275 27.4218 21.1951 27.3736V26.8082ZM19.7502 24.5086C19.8572 24.5086 19.9867 24.5139 20.1387 24.5243C20.2907 24.5348 20.4491 24.5536 20.6139 24.5809C20.7787 24.606 20.9414 24.6416 21.102 24.6877C21.2647 24.7317 21.4102 24.7903 21.5387 24.8636C21.6692 24.9348 21.7741 25.0207 21.8533 25.1212C21.9325 25.2217 21.9721 25.3401 21.9721 25.4762V27.9077C21.7923 27.9433 21.589 27.9736 21.3621 27.9988C21.1673 28.0218 20.935 28.0427 20.6653 28.0616C20.3956 28.0804 20.0948 28.0899 19.763 28.0899C19.4334 28.0899 19.0823 28.0762 18.7099 28.049C18.3395 28.0218 17.9521 27.9747 17.5475 27.9077V26.7767C17.5475 26.6553 17.5764 26.5495 17.6342 26.4595C17.6942 26.3673 17.7755 26.2888 17.8782 26.2238C17.981 26.1589 18.1019 26.1055 18.2411 26.0636C18.3802 26.0217 18.5301 25.9882 18.6906 25.9631C18.8511 25.938 19.0181 25.9212 19.1915 25.9128C19.3649 25.9024 19.5383 25.8971 19.7117 25.8971C19.975 25.8971 20.1986 25.9139 20.3827 25.9474C20.569 25.9788 20.7231 26.0134 20.8451 26.0511C20.9864 26.0971 21.103 26.1484 21.1951 26.205V25.6961C21.1951 25.6102 21.1737 25.5369 21.1309 25.4762C21.0881 25.4134 21.0303 25.361 20.9575 25.3191C20.8847 25.2751 20.8012 25.2406 20.707 25.2154C20.6129 25.1882 20.5144 25.1673 20.4116 25.1526C20.3089 25.138 20.204 25.1285 20.097 25.1243C19.9921 25.1202 19.8936 25.1181 19.8016 25.1181C19.7052 25.1181 19.6025 25.1212 19.4933 25.1275C19.3842 25.1317 19.275 25.1411 19.1658 25.1558C19.0588 25.1704 18.955 25.1914 18.8544 25.2186C18.7559 25.2437 18.6681 25.2783 18.5911 25.3223C18.514 25.3662 18.4519 25.4196 18.4048 25.4825C18.3599 25.5432 18.3374 25.6165 18.3374 25.7024L17.5411 25.5013C17.5411 25.361 17.5764 25.2395 17.6471 25.1369C17.7177 25.0322 17.8108 24.9432 17.9264 24.8699C18.0441 24.7966 18.179 24.7369 18.331 24.6908C18.483 24.6427 18.6403 24.606 18.803 24.5809C18.9678 24.5536 19.1316 24.5348 19.2942 24.5243C19.4569 24.5139 19.6089 24.5086 19.7502 24.5086Z" fill="white"/>
<path d="M25.0161 24.5086C25.2708 24.5086 25.5191 24.5243 25.761 24.5557C26.0029 24.5851 26.2201 24.6364 26.4128 24.7097C26.6054 24.7809 26.7639 24.8783 26.888 25.0018C27.0122 25.1254 27.086 25.2793 27.1096 25.4636L26.3646 25.6647C26.3646 25.5558 26.3261 25.4657 26.249 25.3945C26.1741 25.3212 26.0735 25.2647 25.9472 25.2249C25.8231 25.183 25.6796 25.1537 25.517 25.1369C25.3543 25.1202 25.1873 25.1118 25.0161 25.1118C24.8512 25.1118 24.6875 25.1202 24.5248 25.1369C24.3642 25.1516 24.2198 25.1798 24.0913 25.2217C23.965 25.2615 23.8623 25.317 23.7831 25.3882C23.706 25.4594 23.6675 25.5516 23.6675 25.6647V26.0479H27.1096V27.1349C27.1096 27.2584 27.0817 27.3684 27.0261 27.4647C26.9704 27.559 26.8934 27.6417 26.7949 27.7129C26.6964 27.782 26.5798 27.8417 26.4449 27.8919C26.3122 27.9401 26.1677 27.9789 26.0114 28.0082C25.8573 28.0375 25.6946 28.0584 25.5234 28.071C25.3543 28.0836 25.1852 28.0899 25.0161 28.0899C24.757 28.0899 24.5066 28.0752 24.2647 28.0459C24.0228 28.0145 23.8055 27.9632 23.6129 27.8919C23.4202 27.8186 23.2618 27.7213 23.1377 27.5998C23.0157 27.4762 22.944 27.3213 22.9226 27.1349L23.6675 26.9338C23.6675 27.049 23.706 27.1422 23.7831 27.2134C23.8623 27.2846 23.965 27.3401 24.0913 27.3799C24.2198 27.4197 24.3642 27.4469 24.5248 27.4616C24.6875 27.4741 24.8512 27.4804 25.0161 27.4804C25.1873 27.4804 25.3543 27.4731 25.517 27.4584C25.6796 27.4417 25.8231 27.4134 25.9472 27.3736C26.0735 27.3317 26.1741 27.2762 26.249 27.2071C26.3261 27.1359 26.3646 27.0448 26.3646 26.9338V26.5506H22.9226V25.4636C22.9226 25.3401 22.9504 25.2312 23.006 25.1369C23.0617 25.0406 23.1377 24.9578 23.234 24.8887C23.3325 24.8175 23.4481 24.7578 23.5808 24.7097C23.7135 24.6594 23.8569 24.6196 24.011 24.5903C24.1673 24.561 24.33 24.54 24.4991 24.5275C24.6703 24.5149 24.8427 24.5086 25.0161 24.5086Z" fill="white"/>
<path d="M30.237 24.5086C30.3461 24.5086 30.4778 24.5139 30.6319 24.5243C30.786 24.5348 30.9455 24.5536 31.1103 24.5809C31.2773 24.606 31.4421 24.6427 31.6048 24.6908C31.7675 24.7369 31.913 24.7966 32.0415 24.8699C32.1721 24.9432 32.277 25.0322 32.3562 25.1369C32.4375 25.2395 32.4782 25.361 32.4782 25.5013V26.5631H28.7985V27.3673C29.0575 27.4029 29.3069 27.4281 29.5466 27.4427C29.7864 27.4553 30.0165 27.4616 30.237 27.4616C30.573 27.4616 30.877 27.449 31.1489 27.4239C31.4229 27.3987 31.6594 27.3705 31.8585 27.3391C32.0875 27.3034 32.2941 27.2626 32.4782 27.2165V27.9139C32.0715 27.9768 31.6787 28.0218 31.2998 28.049C30.923 28.0762 30.5688 28.0899 30.237 28.0899C29.903 28.0899 29.6001 28.0815 29.3283 28.0647C29.0564 28.0459 28.8231 28.0249 28.6283 28.0019C28.4014 27.9768 28.197 27.9474 28.015 27.9139V25.5013C28.015 25.361 28.0503 25.2395 28.121 25.1369C28.1916 25.0322 28.2858 24.9432 28.4035 24.8699C28.5213 24.7966 28.6561 24.7369 28.8081 24.6908C28.9622 24.6427 29.1217 24.606 29.2865 24.5809C29.4514 24.5536 29.6151 24.5348 29.7778 24.5243C29.9426 24.5139 30.0957 24.5086 30.237 24.5086ZM28.7985 26.0605H31.6819V25.6961C31.6819 25.6102 31.6605 25.5369 31.6176 25.4762C31.5748 25.4134 31.517 25.361 31.4443 25.3191C31.3736 25.2772 31.2901 25.2437 31.1938 25.2186C31.0996 25.1914 31.0012 25.1715 30.8984 25.1589C30.7957 25.1442 30.6918 25.1348 30.587 25.1306C30.4842 25.1264 30.3868 25.1243 30.2948 25.1243C30.1984 25.1243 30.0946 25.1264 29.9833 25.1306C29.8741 25.1348 29.7639 25.1442 29.6526 25.1589C29.5413 25.1736 29.4342 25.1945 29.3315 25.2217C29.2287 25.2469 29.1378 25.2814 29.0586 25.3254C28.9794 25.3673 28.9162 25.4196 28.8691 25.4825C28.822 25.5432 28.7985 25.6165 28.7985 25.7024V26.0605Z" fill="white"/>
<path d="M35.4643 24.5086C35.6527 24.5086 35.8496 24.5296 36.0551 24.5714C36.2627 24.6133 36.464 24.6678 36.6587 24.7348V23.3086H37.5V27.8448C37.3865 27.8783 37.2506 27.9097 37.0922 27.9391C36.936 27.9684 36.7679 27.9946 36.5881 28.0176C36.4083 28.0385 36.221 28.0563 36.0262 28.071C35.8335 28.0836 35.6462 28.0899 35.4643 28.0899C35.1346 28.0899 34.8403 28.0679 34.5813 28.0239C34.3223 27.9778 34.1029 27.9077 33.9231 27.8134C33.7433 27.7192 33.6063 27.5998 33.5121 27.4553C33.4179 27.3108 33.3708 27.139 33.3708 26.9401V25.6584C33.3708 25.4594 33.4179 25.2877 33.5121 25.1432C33.6063 24.9987 33.7433 24.8793 33.9231 24.7851C34.1029 24.6908 34.3223 24.6217 34.5813 24.5777C34.8403 24.5317 35.1346 24.5086 35.4643 24.5086ZM35.6955 27.5055C35.7811 27.5055 35.8678 27.5014 35.9556 27.493C36.0455 27.4846 36.1322 27.4731 36.2156 27.4584C36.3013 27.4438 36.3815 27.427 36.4565 27.4082C36.5335 27.3893 36.601 27.3694 36.6587 27.3485V25.3757C36.511 25.3065 36.3591 25.25 36.2028 25.206C36.0487 25.1599 35.8796 25.1369 35.6955 25.1369C35.5628 25.1369 35.4333 25.14 35.307 25.1463C35.1828 25.1505 35.0661 25.162 34.957 25.1809C34.8478 25.1976 34.7472 25.2228 34.6552 25.2563C34.5631 25.2877 34.4839 25.3306 34.4175 25.3851C34.3533 25.4395 34.303 25.5066 34.2666 25.5861C34.2302 25.6657 34.212 25.761 34.212 25.872V26.7956C34.212 26.9652 34.2516 27.0982 34.3309 27.1945C34.4122 27.2888 34.5203 27.3589 34.6552 27.405C34.79 27.4511 34.9473 27.4794 35.1272 27.4898C35.307 27.5003 35.4964 27.5055 35.6955 27.5055Z" fill="white"/>
</svg>
