<svg width="60" height="38" viewBox="0 0 60 38" fill="none" xmlns="http://www.w3.org/2000/svg">
<path fill-rule="evenodd" clip-rule="evenodd" d="M5.82651 6.52732C5.82345 6.56282 5.82449 6.58251 5.82445 6.58251L5.83297 6.69158V20.2849H0.00838826V6.89185C-0.0540094 5.73955 0.218032 4.14058 1.28682 2.744C2.50472 1.15257 4.46489 0.203613 6.99788 0.203613H12.6632L12.7948 0.215395C13.8476 0.309679 15.256 0.749533 16.4528 1.78267C17.7509 2.90332 18.6469 4.59797 18.6469 6.80175V20.2849H12.8223V6.80175C12.8223 6.48707 12.7635 6.32395 12.7318 6.25524C12.6997 6.18535 12.6613 6.13863 12.6139 6.09767C12.5593 6.05054 12.4838 6.00474 12.3945 5.96933C12.3618 5.95636 12.3337 5.94732 12.3118 5.94113H6.99788C6.47687 5.94113 6.20784 6.03272 6.09645 6.08352C5.99363 6.13042 5.95742 6.17225 5.93788 6.19778C5.90882 6.23575 5.87362 6.30098 5.84884 6.39756C5.83689 6.44412 5.82981 6.48898 5.82651 6.52732Z" fill="white"/>
<path fill-rule="evenodd" clip-rule="evenodd" d="M26.8906 6.62707C26.6085 6.941 26.5354 7.32012 26.5354 7.43924V20.2844H20.7979V7.43924C20.7979 6.10258 21.2698 4.29802 22.6229 2.79221C24.059 1.19407 26.2413 0.203125 29.1172 0.203125H35.1416V5.94064H29.1172C27.6327 5.94064 27.0897 6.40548 26.8906 6.62707Z" fill="white"/>
<path fill-rule="evenodd" clip-rule="evenodd" d="M32.2729 15.2641H24.3838V9.52661H32.2729V15.2641Z" fill="white"/>
<path d="M59.9995 0.203125H49.5117C52.5605 0.69093 53.5361 4.47142 53.7713 5.94064H59.9995V0.203125Z" fill="white"/>
<path fill-rule="evenodd" clip-rule="evenodd" d="M45.5642 6.42917C45.7992 6.74294 45.9002 7.19379 45.9002 7.43924V14.5931H45.9008C45.973 16.587 46.9538 19.7875 50.0512 20.2844H51.6377H54.5065C52.5049 18.4591 51.8839 18.5598 51.6253 18.2999C51.4749 18.1488 51.447 17.876 51.3416 17.0324L51.6377 14.7153V12.1406V7.43924C51.6377 6.22891 51.2845 4.49608 50.1568 2.99012C48.9247 1.34469 46.9321 0.203125 44.2268 0.203125H37.2939V5.94064H44.2268C44.7431 5.94064 45.0374 6.04149 45.1947 6.11954C45.3521 6.19759 45.4673 6.29978 45.5642 6.42917Z" fill="white"/>
<path d="M51.2194 20.2834H56.166C52.7688 19.9966 51.7072 16.6668 51.6364 14.5937H51.2194V20.2834Z" fill="white"/>
<rect y="24.5876" width="60" height="12.9094" rx="6.4547" fill="#8245E5"/>
<path d="M17.4428 29.6136C17.8384 29.6136 18.1916 29.6413 18.5024 29.6966C18.8158 29.7493 19.0791 29.8323 19.2923 29.9454C19.5081 30.0584 19.6725 30.2017 19.7855 30.3751C19.8985 30.5485 19.955 30.7546 19.955 30.9933V32.5314C19.955 32.7701 19.8985 32.9762 19.7855 33.1496C19.6725 33.323 19.5081 33.4663 19.2923 33.5794C19.0791 33.6925 18.8158 33.7766 18.5024 33.8319C18.1916 33.8847 17.8384 33.9111 17.4428 33.9111C17.2219 33.9111 16.9959 33.9036 16.7647 33.8885C16.5335 33.8709 16.31 33.8495 16.0943 33.8244C15.8785 33.7967 15.6756 33.7653 15.4855 33.7302C15.2954 33.695 15.1336 33.6573 15 33.6171V28.1736H16.0095V29.885C16.2381 29.8046 16.477 29.7393 16.7262 29.689C16.9779 29.6387 17.2168 29.6136 17.4428 29.6136ZM17.1654 30.3148C17.0319 30.3148 16.9098 30.3236 16.7994 30.3412C16.6889 30.3588 16.5862 30.3814 16.4911 30.409C16.3987 30.4367 16.3126 30.4681 16.233 30.5033C16.1534 30.5359 16.0789 30.5686 16.0095 30.6013V32.9762C16.0789 32.9988 16.1585 33.0214 16.2484 33.0441C16.3383 33.0642 16.4333 33.083 16.5335 33.1006C16.6363 33.1182 16.7403 33.132 16.8456 33.1421C16.9535 33.1521 17.0601 33.1572 17.1654 33.1572C17.3247 33.1572 17.4801 33.1559 17.6316 33.1534C17.7832 33.1484 17.9245 33.137 18.0555 33.1195C18.1865 33.1019 18.3059 33.0755 18.4138 33.0403C18.5243 33.0051 18.618 32.9561 18.6951 32.8933C18.7747 32.8279 18.8364 32.7488 18.88 32.6558C18.9237 32.5603 18.9455 32.4434 18.9455 32.3052V31.1969C18.9455 30.9984 18.898 30.8413 18.803 30.7257C18.7079 30.6076 18.5795 30.5183 18.4177 30.458C18.2558 30.3977 18.067 30.3588 17.8513 30.3412C17.6355 30.3236 17.4069 30.3148 17.1654 30.3148Z" fill="white"/>
<path d="M25.4341 32.3731C25.3699 32.3178 25.2903 32.2637 25.1952 32.211C25.1002 32.1582 24.9833 32.1117 24.8446 32.0715C24.7059 32.0288 24.5402 31.9948 24.3475 31.9697C24.1575 31.942 23.934 31.9282 23.6771 31.9282C23.4485 31.9282 23.2314 31.9333 23.0259 31.9433C22.823 31.9508 22.6445 31.976 22.4904 32.0187C22.3362 32.0589 22.2142 32.1243 22.1243 32.2147C22.0344 32.3052 21.9895 32.4309 21.9895 32.5917V33.0742C22.2155 33.1094 22.4647 33.1383 22.737 33.1609C23.0092 33.1835 23.3124 33.1949 23.6463 33.1949C23.9134 33.1949 24.1973 33.1861 24.4978 33.1685C24.8009 33.1484 25.113 33.1094 25.4341 33.0516V32.3731ZM23.7002 29.6136C23.8287 29.6136 23.9841 29.6199 24.1665 29.6325C24.3488 29.645 24.5389 29.6676 24.7367 29.7003C24.9345 29.7305 25.1297 29.7732 25.3224 29.8285C25.5176 29.8813 25.6923 29.9516 25.8464 30.0396C26.0031 30.125 26.129 30.2281 26.224 30.3487C26.319 30.4693 26.3666 30.6113 26.3666 30.7747V33.6925C26.1508 33.7352 25.9068 33.7716 25.6345 33.8018C25.4007 33.8294 25.122 33.8546 24.7984 33.8772C24.4747 33.8998 24.1138 33.9111 23.7156 33.9111C23.3201 33.9111 22.8988 33.8948 22.4518 33.8621C22.0074 33.8294 21.5425 33.7729 21.057 33.6925V32.3354C21.057 32.1896 21.0917 32.0627 21.1611 31.9546C21.233 31.844 21.3306 31.7498 21.4539 31.6719C21.5772 31.594 21.7223 31.5299 21.8893 31.4796C22.0563 31.4294 22.2361 31.3892 22.4287 31.359C22.6214 31.3288 22.8217 31.3087 23.0298 31.2987C23.2379 31.2861 23.4459 31.2798 23.654 31.2798C23.9699 31.2798 24.2384 31.2999 24.4593 31.3401C24.6828 31.3778 24.8677 31.4193 25.0141 31.4645C25.1837 31.5198 25.3237 31.5814 25.4341 31.6493V31.0386C25.4341 30.9355 25.4084 30.8476 25.3571 30.7747C25.3057 30.6993 25.2363 30.6365 25.149 30.5862C25.0616 30.5334 24.9615 30.492 24.8484 30.4618C24.7354 30.4291 24.6173 30.404 24.494 30.3864C24.3707 30.3688 24.2448 30.3575 24.1164 30.3525C23.9905 30.3475 23.8723 30.3449 23.7619 30.3449C23.6463 30.3449 23.523 30.3487 23.392 30.3563C23.261 30.3613 23.13 30.3726 22.999 30.3902C22.8705 30.4078 22.746 30.4329 22.6252 30.4656C22.5071 30.4957 22.4017 30.5372 22.3093 30.59C22.2168 30.6428 22.1423 30.7068 22.0858 30.7822C22.0319 30.8551 22.0049 30.9431 22.0049 31.0461L21.0493 30.8048C21.0493 30.6365 21.0917 30.4907 21.1765 30.3676C21.2612 30.2419 21.373 30.1351 21.5117 30.0471C21.653 29.9592 21.8148 29.8875 21.9972 29.8323C22.1796 29.7745 22.3684 29.7305 22.5636 29.7003C22.7614 29.6676 22.9579 29.645 23.1531 29.6325C23.3483 29.6199 23.5307 29.6136 23.7002 29.6136Z" fill="white"/>
<path d="M30.0193 29.6136C30.3249 29.6136 30.6229 29.6325 30.9132 29.6702C31.2034 29.7053 31.4642 29.7669 31.6954 29.8549C31.9265 29.9403 32.1166 30.0572 32.2656 30.2055C32.4146 30.3537 32.5032 30.5385 32.5315 30.7596L31.6376 31.0009C31.6376 30.8702 31.5913 30.7621 31.4988 30.6767C31.4089 30.5887 31.2882 30.5209 31.1367 30.4731C30.9877 30.4229 30.8156 30.3877 30.6203 30.3676C30.4251 30.3475 30.2248 30.3374 30.0193 30.3374C29.8215 30.3374 29.625 30.3475 29.4297 30.3676C29.2371 30.3852 29.0637 30.4191 28.9096 30.4693C28.758 30.5171 28.6347 30.5837 28.5397 30.6691C28.4472 30.7546 28.401 30.8652 28.401 31.0009V31.4608H32.5315V32.7651C32.5315 32.9134 32.4981 33.0453 32.4313 33.1609C32.3645 33.274 32.272 33.3733 32.1539 33.4587C32.0357 33.5417 31.8957 33.6133 31.7339 33.6736C31.5746 33.7314 31.4012 33.7779 31.2137 33.8131C31.0288 33.8483 30.8335 33.8734 30.6281 33.8885C30.4251 33.9036 30.2222 33.9111 30.0193 33.9111C29.7085 33.9111 29.4079 33.8935 29.1176 33.8583C28.8274 33.8206 28.5667 33.7591 28.3355 33.6736C28.1043 33.5856 27.9142 33.4688 27.7652 33.323C27.6188 33.1747 27.5328 32.9888 27.5071 32.7651L28.401 32.5238C28.401 32.6621 28.4472 32.7739 28.5397 32.8593C28.6347 32.9448 28.758 33.0114 28.9096 33.0591C29.0637 33.1069 29.2371 33.1396 29.4297 33.1572C29.625 33.1722 29.8215 33.1798 30.0193 33.1798C30.2248 33.1798 30.4251 33.171 30.6203 33.1534C30.8156 33.1333 30.9877 33.0994 31.1367 33.0516C31.2882 33.0013 31.4089 32.9347 31.4988 32.8518C31.5913 32.7664 31.6376 32.657 31.6376 32.5238V32.0639H27.5071V30.7596C27.5071 30.6113 27.5405 30.4807 27.6072 30.3676C27.674 30.252 27.7652 30.1527 27.8808 30.0698C27.999 29.9843 28.1377 29.9127 28.2969 29.8549C28.4562 29.7946 28.6283 29.7468 28.8133 29.7116C29.0008 29.6764 29.196 29.6513 29.3989 29.6362C29.6044 29.6212 29.8112 29.6136 30.0193 29.6136Z" fill="white"/>
<path d="M36.2844 29.6136C36.4154 29.6136 36.5733 29.6199 36.7583 29.6325C36.9432 29.645 37.1346 29.6676 37.3324 29.7003C37.5328 29.7305 37.7305 29.7745 37.9258 29.8323C38.121 29.8875 38.2957 29.9592 38.4498 30.0471C38.6065 30.1351 38.7323 30.2419 38.8274 30.3676C38.925 30.4907 38.9738 30.6365 38.9738 30.8048V32.079H34.5582V33.0441C34.869 33.0868 35.1683 33.1169 35.4559 33.1345C35.7436 33.1496 36.0198 33.1572 36.2844 33.1572C36.6876 33.1572 37.0524 33.1421 37.3786 33.1119C37.7074 33.0818 37.9913 33.0478 38.2302 33.0101C38.505 32.9674 38.7529 32.9184 38.9738 32.8631V33.7C38.4857 33.7754 38.0144 33.8294 37.5597 33.8621C37.1076 33.8948 36.6825 33.9111 36.2844 33.9111C35.8836 33.9111 35.5202 33.901 35.1939 33.8809C34.8677 33.8583 34.5877 33.8332 34.354 33.8055C34.0817 33.7754 33.8364 33.7402 33.618 33.7V30.8048C33.618 30.6365 33.6604 30.4907 33.7452 30.3676C33.83 30.2419 33.943 30.1351 34.0843 30.0471C34.2255 29.9592 34.3874 29.8875 34.5697 29.8323C34.7547 29.7745 34.9461 29.7305 35.1438 29.7003C35.3416 29.6676 35.5381 29.645 35.7334 29.6325C35.9312 29.6199 36.1148 29.6136 36.2844 29.6136ZM34.5582 31.4759H38.0182V31.0386C38.0182 30.9355 37.9926 30.8476 37.9412 30.7747C37.8898 30.6993 37.8204 30.6365 37.7331 30.5862C37.6483 30.5359 37.5482 30.4957 37.4326 30.4656C37.3195 30.4329 37.2014 30.409 37.0781 30.3939C36.9548 30.3764 36.8302 30.365 36.7043 30.36C36.581 30.355 36.4642 30.3525 36.3537 30.3525C36.2381 30.3525 36.1135 30.355 35.98 30.36C35.849 30.365 35.7167 30.3764 35.5831 30.3939C35.4495 30.4115 35.3211 30.4367 35.1978 30.4693C35.0745 30.4995 34.9653 30.541 34.8703 30.5937C34.7752 30.644 34.6995 30.7068 34.643 30.7822C34.5864 30.8551 34.5582 30.9431 34.5582 31.0461V31.4759Z" fill="white"/>
<path d="M42.5572 29.6136C42.7832 29.6136 43.0195 29.6387 43.2661 29.689C43.5153 29.7393 43.7567 29.8046 43.9905 29.885V28.1736H45V33.6171C44.8639 33.6573 44.7007 33.695 44.5107 33.7302C44.3231 33.7653 44.1215 33.7967 43.9057 33.8244C43.69 33.8495 43.4652 33.8709 43.2314 33.8885C43.0003 33.9036 42.7755 33.9111 42.5572 33.9111C42.1616 33.9111 41.8084 33.8847 41.4976 33.8319C41.1867 33.7766 40.9235 33.6925 40.7077 33.5794C40.4919 33.4663 40.3275 33.323 40.2145 33.1496C40.1015 32.9762 40.045 32.7701 40.045 32.5314V30.9933C40.045 30.7546 40.1015 30.5485 40.2145 30.3751C40.3275 30.2017 40.4919 30.0584 40.7077 29.9454C40.9235 29.8323 41.1867 29.7493 41.4976 29.6966C41.8084 29.6413 42.1616 29.6136 42.5572 29.6136ZM42.8346 33.2099C42.9373 33.2099 43.0414 33.2049 43.1467 33.1949C43.2546 33.1848 43.3586 33.171 43.4588 33.1534C43.5615 33.1358 43.6578 33.1157 43.7478 33.0931C43.8402 33.0705 43.9211 33.0466 43.9905 33.0214V30.6541C43.8133 30.5711 43.6309 30.5033 43.4434 30.4505C43.2584 30.3952 43.0555 30.3676 42.8346 30.3676C42.6753 30.3676 42.5199 30.3713 42.3684 30.3789C42.2194 30.3839 42.0794 30.3977 41.9484 30.4203C41.8174 30.4404 41.6966 30.4706 41.5862 30.5108C41.4757 30.5485 41.3807 30.6 41.3011 30.6654C41.224 30.7307 41.1636 30.8111 41.12 30.9066C41.0763 31.0021 41.0545 31.1165 41.0545 31.2497V32.358C41.0545 32.5615 41.102 32.7211 41.197 32.8367C41.2946 32.9498 41.4244 33.034 41.5862 33.0893C41.748 33.1446 41.9368 33.1785 42.1526 33.1911C42.3684 33.2036 42.5957 33.2099 42.8346 33.2099Z" fill="white"/>
</svg>
