<svg width="8" height="8" viewBox="0 0 8 8" fill="none" xmlns="http://www.w3.org/2000/svg">
<g clip-path="url(#clip0)">
<path d="M7.83429 0.000698216C6.27263 -0.0273018 4.49163 0.789032 3.36429 2.05537C2.28696 2.0757 1.23796 2.51737 0.465628 3.2897C0.420628 3.33403 0.404628 3.40037 0.424294 3.46037C0.444294 3.5207 0.496294 3.56437 0.558961 3.57337L1.84363 3.75737L1.68496 3.93503C1.62596 4.00103 1.62896 4.10137 1.69163 4.16403L3.83396 6.30637C3.86629 6.3387 3.90896 6.35503 3.95196 6.35503C3.99163 6.35503 4.03129 6.34103 4.06296 6.3127L4.24063 6.15403L4.42463 7.4387C4.43363 7.50137 4.48296 7.54737 4.54263 7.56737C4.55796 7.57237 4.57396 7.5747 4.59029 7.5747C4.63763 7.5747 4.68596 7.55403 4.71929 7.52103C5.48096 6.75937 5.92263 5.71037 5.94296 4.63303C7.21063 3.50337 8.03363 1.72303 7.99729 0.163365C7.99496 0.0746982 7.92329 0.00303155 7.83429 0.000698216ZM6.29829 2.87803C6.13596 3.04037 5.92263 3.1217 5.70896 3.1217C5.49529 3.1217 5.28196 3.04037 5.11963 2.87803C4.79496 2.55303 4.79496 2.02437 5.11963 1.69937C5.44463 1.37436 5.97329 1.37436 6.29829 1.69937C6.62329 2.02437 6.62329 2.55337 6.29829 2.87803Z" fill="white"/>
<path d="M0.908019 5.63511C0.551353 5.99178 0.0616858 7.60312 0.00701913 7.78545C-0.0106475 7.84412 0.0056858 7.90779 0.0486858 7.95112C0.0806858 7.98312 0.123019 8.00012 0.166686 8.00012C0.182686 8.00012 0.198686 7.99779 0.214686 7.99312C0.397019 7.93845 2.00835 7.44879 2.36502 7.09212C2.76669 6.69045 2.76669 6.03678 2.36502 5.63511C1.96302 5.23344 1.30969 5.23378 0.908019 5.63511Z" fill="white"/>
</g>
<defs>
<clipPath id="clip0">
<rect width="8" height="8" fill="white"/>
</clipPath>
</defs>
</svg>
